<svg viewBox="0 0 16 16" fill="none" xmlns="http://www.w3.org/2000/svg">
<path d="M13.8166 3.39979H11.6333V2.68337C11.6333 2.05792 11.4257 1.53767 11.0107 1.1226C10.5956 0.707532 10.0753 0.5 9.44989 0.5H6.55011C5.92466 0.5 5.40441 0.707532 4.98934 1.1226C4.57427 1.53767 4.36674 2.05792 4.36674 2.68337V3.39979H2.18337C1.55792 3.39979 1.03767 3.61016 0.622601 4.03092C0.207532 4.45167 0 4.96908 0 5.58316V12.8667C0 13.4808 0.207532 13.9982 0.622601 14.419C1.03767 14.8397 1.55792 15.0501 2.18337 15.0501H13.8166C14.4421 15.0501 14.9623 14.8397 15.3774 14.419C15.7925 13.9982 16 13.4808 16 12.8667V5.58316C16 4.96908 15.7925 4.45167 15.3774 4.03092C14.9623 3.61016 14.4421 3.39979 13.8166 3.39979ZM5.81663 2.68337C5.81663 2.45593 5.88202 2.27683 6.01279 2.14606C6.14357 2.01528 6.32267 1.94989 6.55011 1.94989H9.44989C9.67733 1.94989 9.85643 2.01528 9.98721 2.14606C10.118 2.27683 10.1834 2.45593 10.1834 2.68337V3.39979H5.81663V2.68337ZM10.1834 4.86674V13.6002H5.81663V4.86674H10.1834ZM1.44989 12.8667V5.58316C1.44989 5.36709 1.51528 5.19368 1.64606 5.0629C1.77683 4.93212 1.95593 4.86674 2.18337 4.86674H4.36674V13.6002H2.18337C1.95593 13.6002 1.77683 13.532 1.64606 13.3955C1.51528 13.2591 1.44989 13.0828 1.44989 12.8667ZM14.5501 12.8667C14.5501 13.0828 14.4847 13.2591 14.3539 13.3955C14.2232 13.532 14.0441 13.6002 13.8166 13.6002H11.6333V4.86674H13.8166C14.0441 4.86674 14.2232 4.93212 14.3539 5.0629C14.4847 5.19368 14.5501 5.36709 14.5501 5.58316V12.8667Z" fill="#36474B"/>
<path d="M13.8166 3.39979H11.6333V2.68337C11.6333 2.05792 11.4257 1.53767 11.0107 1.1226C10.5956 0.707532 10.0753 0.5 9.44989 0.5H6.55011C5.92466 0.5 5.40441 0.707532 4.98934 1.1226C4.57427 1.53767 4.36674 2.05792 4.36674 2.68337V3.39979H2.18337C1.55792 3.39979 1.03767 3.61016 0.622601 4.03092C0.207532 4.45167 0 4.96908 0 5.58316V12.8667C0 13.4808 0.207532 13.9982 0.622601 14.419C1.03767 14.8397 1.55792 15.0501 2.18337 15.0501H13.8166C14.4421 15.0501 14.9623 14.8397 15.3774 14.419C15.7925 13.9982 16 13.4808 16 12.8667V5.58316C16 4.96908 15.7925 4.45167 15.3774 4.03092C14.9623 3.61016 14.4421 3.39979 13.8166 3.39979ZM5.81663 2.68337C5.81663 2.45593 5.88202 2.27683 6.01279 2.14606C6.14357 2.01528 6.32267 1.94989 6.55011 1.94989H9.44989C9.67733 1.94989 9.85643 2.01528 9.98721 2.14606C10.118 2.27683 10.1834 2.45593 10.1834 2.68337V3.39979H5.81663V2.68337ZM10.1834 4.86674V13.6002H5.81663V4.86674H10.1834ZM1.44989 12.8667V5.58316C1.44989 5.36709 1.51528 5.19368 1.64606 5.0629C1.77683 4.93212 1.95593 4.86674 2.18337 4.86674H4.36674V13.6002H2.18337C1.95593 13.6002 1.77683 13.532 1.64606 13.3955C1.51528 13.2591 1.44989 13.0828 1.44989 12.8667ZM14.5501 12.8667C14.5501 13.0828 14.4847 13.2591 14.3539 13.3955C14.2232 13.532 14.0441 13.6002 13.8166 13.6002H11.6333V4.86674H13.8166C14.0441 4.86674 14.2232 4.93212 14.3539 5.0629C14.4847 5.19368 14.5501 5.36709 14.5501 5.58316V12.8667Z" fill="#31B8DA" fill-opacity="0.05"/>
</svg>
