<svg viewBox="0 0 16 16" fill="none" xmlns="http://www.w3.org/2000/svg">
<path d="M14.8062 2.17891C14.677 2.05964 14.5279 2 14.3589 2C14.1899 2 14.0408 2.05964 13.9116 2.17891L7.36635 8.73908L5.90522 7.27796C5.776 7.14874 5.62691 7.08413 5.45793 7.08413C5.28896 7.08413 5.13987 7.14874 5.01065 7.27796C4.88143 7.40717 4.81683 7.55626 4.81683 7.72524C4.81683 7.89421 4.88143 8.04331 5.01065 8.17252L6.91906 10.0809C6.98864 10.1406 7.06567 10.1853 7.15016 10.2151C7.23465 10.2449 7.30671 10.2599 7.36635 10.2599C7.42599 10.2599 7.49805 10.2449 7.58253 10.2151C7.66702 10.1853 7.74405 10.1406 7.81363 10.0809L14.8062 3.07348C14.9354 2.94427 15 2.79517 15 2.6262C15 2.45722 14.9354 2.30813 14.8062 2.17891ZM13.0916 7.72524C12.9027 7.72524 12.7487 7.78239 12.6294 7.8967C12.5101 8.011 12.4505 8.16258 12.4505 8.35144V12.8094C12.4505 12.9982 12.3933 13.1523 12.279 13.2716C12.1647 13.3908 12.0131 13.4505 11.8243 13.4505H2.90841C2.71956 13.4505 2.56798 13.3908 2.45367 13.2716C2.33937 13.1523 2.28222 12.9982 2.28222 12.8094V3.90841C2.28222 3.70962 2.33937 3.55307 2.45367 3.43876C2.56798 3.32446 2.71956 3.26731 2.90841 3.26731H9.91587C10.1047 3.26731 10.2563 3.21015 10.3706 3.09585C10.4849 2.98154 10.5421 2.82499 10.5421 2.6262C10.5421 2.43734 10.4849 2.28577 10.3706 2.17146C10.2563 2.05715 10.1047 2 9.91587 2H2.90841C2.37167 2 1.91942 2.1814 1.55165 2.5442C1.18388 2.907 1 3.36173 1 3.90841V12.8094C1 13.3461 1.18388 13.7984 1.55165 14.1661C1.91942 14.5339 2.37167 14.7178 2.90841 14.7178H11.8243C12.361 14.7178 12.8133 14.5339 13.181 14.1661C13.5488 13.7984 13.7327 13.3461 13.7327 12.8094V8.35144C13.7327 8.16258 13.6731 8.011 13.5538 7.8967C13.4345 7.78239 13.2804 7.72524 13.0916 7.72524Z" fill="#36474B"/>
<path d="M14.8062 2.17891C14.677 2.05964 14.5279 2 14.3589 2C14.1899 2 14.0408 2.05964 13.9116 2.17891L7.36635 8.73908L5.90522 7.27796C5.776 7.14874 5.62691 7.08413 5.45793 7.08413C5.28896 7.08413 5.13987 7.14874 5.01065 7.27796C4.88143 7.40717 4.81683 7.55626 4.81683 7.72524C4.81683 7.89421 4.88143 8.04331 5.01065 8.17252L6.91906 10.0809C6.98864 10.1406 7.06567 10.1853 7.15016 10.2151C7.23465 10.2449 7.30671 10.2599 7.36635 10.2599C7.42599 10.2599 7.49805 10.2449 7.58253 10.2151C7.66702 10.1853 7.74405 10.1406 7.81363 10.0809L14.8062 3.07348C14.9354 2.94427 15 2.79517 15 2.6262C15 2.45722 14.9354 2.30813 14.8062 2.17891ZM13.0916 7.72524C12.9027 7.72524 12.7487 7.78239 12.6294 7.8967C12.5101 8.011 12.4505 8.16258 12.4505 8.35144V12.8094C12.4505 12.9982 12.3933 13.1523 12.279 13.2716C12.1647 13.3908 12.0131 13.4505 11.8243 13.4505H2.90841C2.71956 13.4505 2.56798 13.3908 2.45367 13.2716C2.33937 13.1523 2.28222 12.9982 2.28222 12.8094V3.90841C2.28222 3.70962 2.33937 3.55307 2.45367 3.43876C2.56798 3.32446 2.71956 3.26731 2.90841 3.26731H9.91587C10.1047 3.26731 10.2563 3.21015 10.3706 3.09585C10.4849 2.98154 10.5421 2.82499 10.5421 2.6262C10.5421 2.43734 10.4849 2.28577 10.3706 2.17146C10.2563 2.05715 10.1047 2 9.91587 2H2.90841C2.37167 2 1.91942 2.1814 1.55165 2.5442C1.18388 2.907 1 3.36173 1 3.90841V12.8094C1 13.3461 1.18388 13.7984 1.55165 14.1661C1.91942 14.5339 2.37167 14.7178 2.90841 14.7178H11.8243C12.361 14.7178 12.8133 14.5339 13.181 14.1661C13.5488 13.7984 13.7327 13.3461 13.7327 12.8094V8.35144C13.7327 8.16258 13.6731 8.011 13.5538 7.8967C13.4345 7.78239 13.2804 7.72524 13.0916 7.72524Z" fill="#31B8DA" fill-opacity="0.05"/>
</svg>
