<svg viewBox="0 0 16 16" fill="none" xmlns="http://www.w3.org/2000/svg"><path d="M9.204 7.99l3.535-3.543a.83.83 0 0 0 0-1.206.86.86 0 0 0-.602-.241.86.86 0 0 0-.602.241L8 6.804 4.465 3.241A.86.86 0 0 0 3.863 3 .86.86 0 0 0 3 3.844c0 .228.087.429.26.603L6.797 7.99l-3.535 3.543a.829.829 0 0 0 0 1.206c.094.093.184.16.27.2a.79.79 0 0 0 .332.061.79.79 0 0 0 .331-.06.972.972 0 0 0 .27-.201L8 9.196l3.535 3.543c.094.093.197.16.311.2a.9.9 0 0 0 .291.061.9.9 0 0 0 .602-.261.829.829 0 0 0 0-1.206L9.204 7.99z" fill="#36474B"/><path d="M9.204 7.99l3.535-3.543a.83.83 0 0 0 0-1.206.86.86 0 0 0-.602-.241.86.86 0 0 0-.602.241L8 6.804 4.465 3.241A.86.86 0 0 0 3.863 3 .86.86 0 0 0 3 3.844c0 .228.087.429.26.603L6.797 7.99l-3.535 3.543a.829.829 0 0 0 0 1.206c.094.093.184.16.27.2a.79.79 0 0 0 .332.061.79.79 0 0 0 .331-.06.972.972 0 0 0 .27-.201L8 9.196l3.535 3.543c.094.093.197.16.311.2a.9.9 0 0 0 .291.061.9.9 0 0 0 .602-.261.829.829 0 0 0 0-1.206L9.204 7.99z" fill="#31B8DA" fill-opacity=".05"/></svg>