<svg viewBox="0 0 17 17" fill="none" xmlns="http://www.w3.org/2000/svg">
<path d="M15.8151 7.54746L13.03 4.74888C12.7631 4.48078 12.3296 4.4809 12.0616 4.74914C11.7938 5.01738 11.793 5.45217 12.0598 5.72027L13.68 7.3477H5.18571C4.80703 7.3477 4.5 7.6547 4.5 8.03341C4.5 8.41212 4.80703 8.71912 5.18571 8.71912H13.681L12.0589 10.3485C11.7917 10.6168 11.7927 11.051 12.061 11.3182C12.3295 11.5854 12.7636 11.5844 13.0308 11.316L15.8146 8.51886L15.8172 8.5172C16.0304 8.30303 16.0729 7.98319 15.945 7.72697C15.9129 7.66229 15.8701 7.60164 15.8164 7.54773L15.8151 7.54746Z" fill="#36474B"/>
<path d="M15.8151 7.54746L13.03 4.74888C12.7631 4.48078 12.3296 4.4809 12.0616 4.74914C11.7938 5.01738 11.793 5.45217 12.0598 5.72027L13.68 7.3477H5.18571C4.80703 7.3477 4.5 7.6547 4.5 8.03341C4.5 8.41212 4.80703 8.71912 5.18571 8.71912H13.681L12.0589 10.3485C11.7917 10.6168 11.7927 11.051 12.061 11.3182C12.3295 11.5854 12.7636 11.5844 13.0308 11.316L15.8146 8.51886L15.8172 8.5172C16.0304 8.30303 16.0729 7.98319 15.945 7.72697C15.9129 7.66229 15.8701 7.60164 15.8164 7.54773L15.8151 7.54746Z" fill="#31B8DA" fill-opacity="0.05"/>
<path d="M4.87842 0.630463C5.84509 0.210144 6.88562 0 8 0C9.11438 0 10.1549 0.210144 11.1216 0.630463C11.4466 0.766384 11.7575 0.919879 12.0543 1.09094C12.5131 1.3554 12.4796 1.99623 12.0283 2.27328C11.7774 2.42727 11.462 2.41916 11.2048 2.27604C10.9974 2.1607 10.7821 2.05519 10.5586 1.95953C9.76257 1.61874 8.90979 1.44835 8 1.44835C7.09021 1.44835 6.23743 1.61874 5.44141 1.95953C4.64539 2.30032 3.95166 2.76607 3.36035 3.35677C2.76904 3.94746 2.30273 4.6404 1.96167 5.43558C1.62048 6.23074 1.44995 7.0827 1.44995 7.99149C1.44995 8.90025 1.62048 9.75221 1.96167 10.5474C2.30273 11.3426 2.76904 12.0355 3.36035 12.6262C3.95166 13.2169 4.64539 13.6826 5.44141 14.0234C6.23743 14.3642 7.09021 14.5346 8 14.5346C8.90979 14.5346 9.76257 14.3642 10.5586 14.0234C10.7769 13.93 10.9875 13.8271 11.1904 13.7149C11.4483 13.5722 11.764 13.5645 12.0152 13.7187C12.4686 13.997 12.5018 14.6408 12.0417 14.9079C11.7487 15.0779 11.442 15.2318 11.1216 15.3695C10.1549 15.7899 9.11438 16 8 16C6.88562 16 5.84509 15.7899 4.87842 15.3695C3.90051 14.9492 3.05042 14.3784 2.32837 13.6571C1.6062 12.9357 1.03479 12.0866 0.614014 11.1097C0.204712 10.1441 0 9.10472 0 7.99149C0 6.88959 0.204712 5.8502 0.614014 4.87328C1.03479 3.9077 1.6062 3.06142 2.32837 2.3344C3.05042 1.60738 3.90051 1.0394 4.87842 0.630463Z" fill="#36474B"/>
<path d="M4.87842 0.630463C5.84509 0.210144 6.88562 0 8 0C9.11438 0 10.1549 0.210144 11.1216 0.630463C11.4466 0.766384 11.7575 0.919879 12.0543 1.09094C12.5131 1.3554 12.4796 1.99623 12.0283 2.27328C11.7774 2.42727 11.462 2.41916 11.2048 2.27604C10.9974 2.1607 10.7821 2.05519 10.5586 1.95953C9.76257 1.61874 8.90979 1.44835 8 1.44835C7.09021 1.44835 6.23743 1.61874 5.44141 1.95953C4.64539 2.30032 3.95166 2.76607 3.36035 3.35677C2.76904 3.94746 2.30273 4.6404 1.96167 5.43558C1.62048 6.23074 1.44995 7.0827 1.44995 7.99149C1.44995 8.90025 1.62048 9.75221 1.96167 10.5474C2.30273 11.3426 2.76904 12.0355 3.36035 12.6262C3.95166 13.2169 4.64539 13.6826 5.44141 14.0234C6.23743 14.3642 7.09021 14.5346 8 14.5346C8.90979 14.5346 9.76257 14.3642 10.5586 14.0234C10.7769 13.93 10.9875 13.8271 11.1904 13.7149C11.4483 13.5722 11.764 13.5645 12.0152 13.7187C12.4686 13.997 12.5018 14.6408 12.0417 14.9079C11.7487 15.0779 11.442 15.2318 11.1216 15.3695C10.1549 15.7899 9.11438 16 8 16C6.88562 16 5.84509 15.7899 4.87842 15.3695C3.90051 14.9492 3.05042 14.3784 2.32837 13.6571C1.6062 12.9357 1.03479 12.0866 0.614014 11.1097C0.204712 10.1441 0 9.10472 0 7.99149C0 6.88959 0.204712 5.8502 0.614014 4.87328C1.03479 3.9077 1.6062 3.06142 2.32837 2.3344C3.05042 1.60738 3.90051 1.0394 4.87842 0.630463Z" fill="#31B8DA" fill-opacity="0.05"/>
</svg>
