<svg viewBox="0 0 16 16" fill="none" xmlns="http://www.w3.org/2000/svg">
<path d="M15.953 7.7456C15.9217 7.68297 15.7234 7.34899 15.3581 6.74364C14.9928 6.13829 14.4736 5.48337 13.8004 4.77887C13.1272 4.07436 12.3053 3.4351 11.3346 2.86106C10.364 2.28702 9.25245 2 8 2C6.74755 2 5.63601 2.28702 4.66536 2.86106C3.69471 3.4351 2.8728 4.07436 2.19961 4.77887C1.52642 5.48337 1.00718 6.13829 0.641879 6.74364C0.27658 7.34899 0.0782781 7.68297 0.0469667 7.7456C0.0156554 7.84997 0 7.95173 0 8.05088C0 8.15003 0.0156554 8.25179 0.0469667 8.35616C0.0782781 8.39791 0.27658 8.72146 0.641879 9.32681C1.00718 9.92172 1.52642 10.5688 2.19961 11.2681C2.8728 11.9674 3.69471 12.5988 4.66536 13.1624C5.63601 13.7365 6.74755 14.0235 8 14.0235C9.25245 14.0235 10.364 13.7365 11.3346 13.1624C12.3053 12.5884 13.1272 11.9517 13.8004 11.2524C14.4736 10.5532 14.9928 9.90085 15.3581 9.2955C15.7234 8.69015 15.9217 8.35095 15.953 8.27789C15.9843 8.21526 16 8.12916 16 8.01957C16 7.90998 15.9843 7.81866 15.953 7.7456ZM8 12.6928C7.10241 12.6928 6.28311 12.4997 5.54207 12.1135C4.80104 11.7273 4.15134 11.2759 3.59296 10.7593C3.03457 10.2427 2.56752 9.72342 2.19178 9.20157C1.82648 8.67971 1.56034 8.28311 1.39335 8.01174C1.53947 7.75081 1.79517 7.35943 2.16047 6.83757C2.53621 6.31572 3.00587 5.79648 3.56947 5.27984C4.13308 4.76321 4.78538 4.31181 5.52642 3.92564C6.27789 3.53946 7.10241 3.34638 8 3.34638C8.89759 3.34638 9.71689 3.53946 10.4579 3.92564C11.199 4.31181 11.8487 4.76321 12.407 5.27984C12.9654 5.79648 13.4325 6.31572 13.8082 6.83757C14.1735 7.35943 14.4397 7.75081 14.6067 8.01174C14.4397 8.28311 14.1735 8.67971 13.8082 9.20157C13.4325 9.72342 12.9654 10.2427 12.407 10.7593C11.8487 11.2759 11.199 11.7273 10.4579 12.1135C9.71689 12.4997 8.89759 12.6928 8 12.6928ZM8 5.35029C7.2694 5.35029 6.64058 5.61122 6.1135 6.13307C5.58643 6.65493 5.3229 7.28114 5.3229 8.01174C5.3229 8.75278 5.58643 9.38421 6.1135 9.90607C6.64058 10.4279 7.2694 10.6888 8 10.6888C8.7306 10.6888 9.35942 10.4279 9.8865 9.90607C10.4136 9.38421 10.6771 8.75278 10.6771 8.01174C10.6771 7.28114 10.4136 6.65493 9.8865 6.13307C9.35942 5.61122 8.7306 5.35029 8 5.35029ZM8 9.35812C7.6347 9.35812 7.32159 9.22766 7.06067 8.96673C6.79974 8.7058 6.66928 8.38748 6.66928 8.01174C6.66928 7.64644 6.79974 7.33333 7.06067 7.07241C7.32159 6.81148 7.6347 6.68102 8 6.68102C8.3653 6.68102 8.67841 6.81148 8.93933 7.07241C9.20026 7.33333 9.33072 7.64644 9.33072 8.01174C9.33072 8.38748 9.20026 8.7058 8.93933 8.96673C8.67841 9.22766 8.3653 9.35812 8 9.35812Z" fill="#36474B"/>
<path d="M15.953 7.7456C15.9217 7.68297 15.7234 7.34899 15.3581 6.74364C14.9928 6.13829 14.4736 5.48337 13.8004 4.77887C13.1272 4.07436 12.3053 3.4351 11.3346 2.86106C10.364 2.28702 9.25245 2 8 2C6.74755 2 5.63601 2.28702 4.66536 2.86106C3.69471 3.4351 2.8728 4.07436 2.19961 4.77887C1.52642 5.48337 1.00718 6.13829 0.641879 6.74364C0.27658 7.34899 0.0782781 7.68297 0.0469667 7.7456C0.0156554 7.84997 0 7.95173 0 8.05088C0 8.15003 0.0156554 8.25179 0.0469667 8.35616C0.0782781 8.39791 0.27658 8.72146 0.641879 9.32681C1.00718 9.92172 1.52642 10.5688 2.19961 11.2681C2.8728 11.9674 3.69471 12.5988 4.66536 13.1624C5.63601 13.7365 6.74755 14.0235 8 14.0235C9.25245 14.0235 10.364 13.7365 11.3346 13.1624C12.3053 12.5884 13.1272 11.9517 13.8004 11.2524C14.4736 10.5532 14.9928 9.90085 15.3581 9.2955C15.7234 8.69015 15.9217 8.35095 15.953 8.27789C15.9843 8.21526 16 8.12916 16 8.01957C16 7.90998 15.9843 7.81866 15.953 7.7456ZM8 12.6928C7.10241 12.6928 6.28311 12.4997 5.54207 12.1135C4.80104 11.7273 4.15134 11.2759 3.59296 10.7593C3.03457 10.2427 2.56752 9.72342 2.19178 9.20157C1.82648 8.67971 1.56034 8.28311 1.39335 8.01174C1.53947 7.75081 1.79517 7.35943 2.16047 6.83757C2.53621 6.31572 3.00587 5.79648 3.56947 5.27984C4.13308 4.76321 4.78538 4.31181 5.52642 3.92564C6.27789 3.53946 7.10241 3.34638 8 3.34638C8.89759 3.34638 9.71689 3.53946 10.4579 3.92564C11.199 4.31181 11.8487 4.76321 12.407 5.27984C12.9654 5.79648 13.4325 6.31572 13.8082 6.83757C14.1735 7.35943 14.4397 7.75081 14.6067 8.01174C14.4397 8.28311 14.1735 8.67971 13.8082 9.20157C13.4325 9.72342 12.9654 10.2427 12.407 10.7593C11.8487 11.2759 11.199 11.7273 10.4579 12.1135C9.71689 12.4997 8.89759 12.6928 8 12.6928ZM8 5.35029C7.2694 5.35029 6.64058 5.61122 6.1135 6.13307C5.58643 6.65493 5.3229 7.28114 5.3229 8.01174C5.3229 8.75278 5.58643 9.38421 6.1135 9.90607C6.64058 10.4279 7.2694 10.6888 8 10.6888C8.7306 10.6888 9.35942 10.4279 9.8865 9.90607C10.4136 9.38421 10.6771 8.75278 10.6771 8.01174C10.6771 7.28114 10.4136 6.65493 9.8865 6.13307C9.35942 5.61122 8.7306 5.35029 8 5.35029ZM8 9.35812C7.6347 9.35812 7.32159 9.22766 7.06067 8.96673C6.79974 8.7058 6.66928 8.38748 6.66928 8.01174C6.66928 7.64644 6.79974 7.33333 7.06067 7.07241C7.32159 6.81148 7.6347 6.68102 8 6.68102C8.3653 6.68102 8.67841 6.81148 8.93933 7.07241C9.20026 7.33333 9.33072 7.64644 9.33072 8.01174C9.33072 8.38748 9.20026 8.7058 8.93933 8.96673C8.67841 9.22766 8.3653 9.35812 8 9.35812Z" fill="#31B8DA" fill-opacity="0.05"/>
</svg>
