<svg viewBox="0 0 16 16" fill="none" xmlns="http://www.w3.org/2000/svg">
<path d="M6.7393 3.45525C6.93645 3.42412 7.14656 3.39559 7.36965 3.36965C7.59274 3.34371 7.80285 3.33074 8 3.33074C8.89235 3.33074 9.70687 3.5227 10.4436 3.90661C11.1803 4.29053 11.8262 4.7393 12.3813 5.25292C12.9364 5.76654 13.4008 6.28275 13.7743 6.80156C14.1375 7.32037 14.4021 7.70947 14.5681 7.96887C14.4021 8.26978 14.2205 8.5655 14.0233 8.85603C13.8262 9.14656 13.6135 9.40596 13.3852 9.63424C13.2503 9.76913 13.1933 9.93255 13.214 10.1245C13.2348 10.3165 13.3126 10.4643 13.4475 10.5681C13.5097 10.6304 13.5746 10.6667 13.642 10.677C13.7095 10.6874 13.7743 10.6926 13.8366 10.6926C13.9403 10.6926 14.0389 10.6744 14.1323 10.6381C14.2257 10.6018 14.3087 10.5318 14.3813 10.428C14.6719 10.096 14.939 9.738 15.1829 9.35409C15.4267 8.97017 15.668 8.57588 15.9066 8.17121C15.9689 8.07782 16 7.97925 16 7.87549C16 7.77172 15.9689 7.67315 15.9066 7.57977C15.8755 7.54864 15.6783 7.23736 15.3152 6.64591C14.952 6.06485 14.4358 5.42932 13.7665 4.7393C13.0973 4.04928 12.2802 3.41894 11.3152 2.84825C10.3502 2.27756 9.24514 1.99222 8 1.99222C7.73022 1.99222 7.46563 2.01038 7.20623 2.04669C6.94682 2.08301 6.70298 2.1323 6.47471 2.19455C6.27756 2.22568 6.1323 2.31647 6.03891 2.46693C5.94552 2.61738 5.9144 2.79118 5.94553 2.98833C6.00778 3.15435 6.11414 3.28145 6.26459 3.36965C6.41505 3.45785 6.57328 3.48638 6.7393 3.45525ZM15.7665 14.8171L1.16732 0.202335C1.03242 0.0674441 0.876784 0 0.700389 0C0.523994 0 0.368354 0.0674441 0.233463 0.202335C0.0985726 0.337225 0.0311284 0.492866 0.0311284 0.669261C0.0311284 0.845656 0.0985726 1.0013 0.233463 1.13619L3.08171 3.98444C2.49027 4.524 1.94553 5.09468 1.44747 5.6965C0.949414 6.29832 0.498056 6.94682 0.0933852 7.64202C0.031128 7.74579 0 7.84695 0 7.94553C0 8.0441 0.031128 8.14008 0.0933852 8.23346C0.124514 8.3061 0.321658 8.64332 0.684825 9.24514C1.04799 9.84696 1.5642 10.4955 2.23346 11.1907C2.90273 11.8859 3.71984 12.5188 4.68482 13.0895C5.64981 13.6602 6.75486 13.9455 8 13.9455C8.6952 13.9455 9.36965 13.847 10.0233 13.6498C10.677 13.4527 11.284 13.1569 11.8444 12.7626L14.8327 15.751C14.9053 15.8132 14.9857 15.8599 15.0739 15.8911C15.1621 15.9222 15.2374 15.9377 15.2996 15.9377C15.3722 15.9377 15.4527 15.9222 15.5409 15.8911C15.6291 15.8599 15.7043 15.8132 15.7665 15.751C15.9014 15.6161 15.9689 15.4604 15.9689 15.284C15.9689 15.1077 15.9014 14.952 15.7665 14.8171ZM6.67704 7.57977L8.32685 9.22957C8.26459 9.27108 8.19974 9.29442 8.1323 9.29961C8.06485 9.3048 8 9.30739 7.93774 9.30739C7.77172 9.30739 7.6083 9.27627 7.44747 9.21401C7.28664 9.15175 7.13878 9.06874 7.00389 8.96498C6.869 8.84047 6.76783 8.6978 6.70039 8.53697C6.63294 8.37613 6.59922 8.21271 6.59922 8.04669C6.59922 7.97406 6.61219 7.90143 6.63813 7.82879C6.66407 7.75616 6.67704 7.67315 6.67704 7.57977ZM8 12.6226C7.10765 12.6226 6.29313 12.4306 5.55642 12.0467C4.81971 11.6628 4.1738 11.214 3.61868 10.7004C3.06355 10.1868 2.59922 9.67056 2.22568 9.15175C1.86251 8.63294 1.59793 8.23865 1.43191 7.96887C1.76394 7.37743 2.14526 6.83009 2.57588 6.32685C3.00649 5.8236 3.48638 5.35409 4.01556 4.91829L5.68093 6.64591C5.54604 6.87419 5.44488 7.12062 5.37743 7.38521C5.30999 7.64981 5.27626 7.9118 5.27626 8.17121C5.27626 8.53437 5.35408 8.87678 5.50973 9.19844C5.66537 9.52011 5.87808 9.80026 6.14786 10.0389C6.37614 10.2672 6.64851 10.4462 6.96498 10.5759C7.28145 10.7056 7.60571 10.7704 7.93774 10.7704C7.93774 10.7704 7.94812 10.7704 7.96887 10.7704C7.98962 10.7704 8 10.7704 8 10.7704C8.22828 10.7704 8.45655 10.7289 8.68482 10.6459C8.9131 10.5629 9.12581 10.4695 9.32296 10.3658L10.8482 11.8911C10.4228 12.1193 9.96628 12.2983 9.4786 12.428C8.99092 12.5577 8.49806 12.6226 8 12.6226Z" fill="#36474B"/>
<path d="M6.7393 3.45525C6.93645 3.42412 7.14656 3.39559 7.36965 3.36965C7.59274 3.34371 7.80285 3.33074 8 3.33074C8.89235 3.33074 9.70687 3.5227 10.4436 3.90661C11.1803 4.29053 11.8262 4.7393 12.3813 5.25292C12.9364 5.76654 13.4008 6.28275 13.7743 6.80156C14.1375 7.32037 14.4021 7.70947 14.5681 7.96887C14.4021 8.26978 14.2205 8.5655 14.0233 8.85603C13.8262 9.14656 13.6135 9.40596 13.3852 9.63424C13.2503 9.76913 13.1933 9.93255 13.214 10.1245C13.2348 10.3165 13.3126 10.4643 13.4475 10.5681C13.5097 10.6304 13.5746 10.6667 13.642 10.677C13.7095 10.6874 13.7743 10.6926 13.8366 10.6926C13.9403 10.6926 14.0389 10.6744 14.1323 10.6381C14.2257 10.6018 14.3087 10.5318 14.3813 10.428C14.6719 10.096 14.939 9.738 15.1829 9.35409C15.4267 8.97017 15.668 8.57588 15.9066 8.17121C15.9689 8.07782 16 7.97925 16 7.87549C16 7.77172 15.9689 7.67315 15.9066 7.57977C15.8755 7.54864 15.6783 7.23736 15.3152 6.64591C14.952 6.06485 14.4358 5.42932 13.7665 4.7393C13.0973 4.04928 12.2802 3.41894 11.3152 2.84825C10.3502 2.27756 9.24514 1.99222 8 1.99222C7.73022 1.99222 7.46563 2.01038 7.20623 2.04669C6.94682 2.08301 6.70298 2.1323 6.47471 2.19455C6.27756 2.22568 6.1323 2.31647 6.03891 2.46693C5.94552 2.61738 5.9144 2.79118 5.94553 2.98833C6.00778 3.15435 6.11414 3.28145 6.26459 3.36965C6.41505 3.45785 6.57328 3.48638 6.7393 3.45525ZM15.7665 14.8171L1.16732 0.202335C1.03242 0.0674441 0.876784 0 0.700389 0C0.523994 0 0.368354 0.0674441 0.233463 0.202335C0.0985726 0.337225 0.0311284 0.492866 0.0311284 0.669261C0.0311284 0.845656 0.0985726 1.0013 0.233463 1.13619L3.08171 3.98444C2.49027 4.524 1.94553 5.09468 1.44747 5.6965C0.949414 6.29832 0.498056 6.94682 0.0933852 7.64202C0.031128 7.74579 0 7.84695 0 7.94553C0 8.0441 0.031128 8.14008 0.0933852 8.23346C0.124514 8.3061 0.321658 8.64332 0.684825 9.24514C1.04799 9.84696 1.5642 10.4955 2.23346 11.1907C2.90273 11.8859 3.71984 12.5188 4.68482 13.0895C5.64981 13.6602 6.75486 13.9455 8 13.9455C8.6952 13.9455 9.36965 13.847 10.0233 13.6498C10.677 13.4527 11.284 13.1569 11.8444 12.7626L14.8327 15.751C14.9053 15.8132 14.9857 15.8599 15.0739 15.8911C15.1621 15.9222 15.2374 15.9377 15.2996 15.9377C15.3722 15.9377 15.4527 15.9222 15.5409 15.8911C15.6291 15.8599 15.7043 15.8132 15.7665 15.751C15.9014 15.6161 15.9689 15.4604 15.9689 15.284C15.9689 15.1077 15.9014 14.952 15.7665 14.8171ZM6.67704 7.57977L8.32685 9.22957C8.26459 9.27108 8.19974 9.29442 8.1323 9.29961C8.06485 9.3048 8 9.30739 7.93774 9.30739C7.77172 9.30739 7.6083 9.27627 7.44747 9.21401C7.28664 9.15175 7.13878 9.06874 7.00389 8.96498C6.869 8.84047 6.76783 8.6978 6.70039 8.53697C6.63294 8.37613 6.59922 8.21271 6.59922 8.04669C6.59922 7.97406 6.61219 7.90143 6.63813 7.82879C6.66407 7.75616 6.67704 7.67315 6.67704 7.57977ZM8 12.6226C7.10765 12.6226 6.29313 12.4306 5.55642 12.0467C4.81971 11.6628 4.1738 11.214 3.61868 10.7004C3.06355 10.1868 2.59922 9.67056 2.22568 9.15175C1.86251 8.63294 1.59793 8.23865 1.43191 7.96887C1.76394 7.37743 2.14526 6.83009 2.57588 6.32685C3.00649 5.8236 3.48638 5.35409 4.01556 4.91829L5.68093 6.64591C5.54604 6.87419 5.44488 7.12062 5.37743 7.38521C5.30999 7.64981 5.27626 7.9118 5.27626 8.17121C5.27626 8.53437 5.35408 8.87678 5.50973 9.19844C5.66537 9.52011 5.87808 9.80026 6.14786 10.0389C6.37614 10.2672 6.64851 10.4462 6.96498 10.5759C7.28145 10.7056 7.60571 10.7704 7.93774 10.7704C7.93774 10.7704 7.94812 10.7704 7.96887 10.7704C7.98962 10.7704 8 10.7704 8 10.7704C8.22828 10.7704 8.45655 10.7289 8.68482 10.6459C8.9131 10.5629 9.12581 10.4695 9.32296 10.3658L10.8482 11.8911C10.4228 12.1193 9.96628 12.2983 9.4786 12.428C8.99092 12.5577 8.49806 12.6226 8 12.6226Z" fill="#31B8DA" fill-opacity="0.05"/>
</svg>
