<svg viewBox="0 0 16 16" fill="none" xmlns="http://www.w3.org/2000/svg"><path d="M4.878.63A7.742 7.742 0 0 1 8 0c1.114 0 2.155.21 3.121.63a7.786 7.786 0 0 1 2.55 1.704 8.233 8.233 0 0 1 1.715 2.54c.41.976.614 2.016.614 3.117a7.905 7.905 0 0 1-.614 3.119 8.076 8.076 0 0 1-1.714 2.547 8.085 8.085 0 0 1-2.55 1.713c-.967.42-2.008.63-3.122.63a7.742 7.742 0 0 1-3.122-.63 8.085 8.085 0 0 1-2.55-1.713A8.076 8.076 0 0 1 .614 11.11 7.905 7.905 0 0 1 0 7.99c0-1.101.205-2.14.614-3.118a8.234 8.234 0 0 1 1.714-2.539A7.787 7.787 0 0 1 4.878.63z" fill="#DA3131"/><path d="M8.753 7.994l2.209-2.214a.518.518 0 0 0 0-.754.538.538 0 0 0-.376-.151.538.538 0 0 0-.377.15L8 7.254 5.79 5.026a.538.538 0 0 0-.376-.151.538.538 0 0 0-.539.528c0 .142.054.268.163.377l2.21 2.214-2.21 2.214a.518.518 0 0 0 0 .754c.059.058.115.1.17.125a.495.495 0 0 0 .206.038.495.495 0 0 0 .207-.038.607.607 0 0 0 .17-.125L8 8.747l2.21 2.215a.564.564 0 0 0 .376.163.564.564 0 0 0 .376-.163.518.518 0 0 0 0-.754l-2.21-2.214z" fill="#fff" stroke="#fff" stroke-width=".5"/></svg>