<svg viewBox="0 0 16 16" fill="none" xmlns="http://www.w3.org/2000/svg">
<circle cx="8" cy="8" r="8" fill="#31B8DA"/>
<path d="M6.9691 4.51547L11.3312 7.41217C11.4107 7.49168 11.4789 7.58256 11.5357 7.6848C11.5925 7.78703 11.6209 7.88927 11.6209 7.99151C11.6209 8.1051 11.601 8.21302 11.5612 8.31525C11.5215 8.41749 11.4448 8.50269 11.3312 8.57085L6.9691 11.4846C6.90095 11.5187 6.82995 11.5527 6.75611 11.5868C6.68227 11.6209 6.61128 11.6379 6.54312 11.6379C6.4636 11.6379 6.40112 11.6351 6.35569 11.6294C6.31025 11.6237 6.24777 11.5982 6.16825 11.5527C6.06602 11.4846 5.98082 11.3965 5.91266 11.2886C5.8445 11.1807 5.81042 11.0529 5.81042 10.9052V5.09481C5.81042 4.94713 5.84734 4.82218 5.92118 4.71994C5.99502 4.6177 6.10577 4.54955 6.25345 4.51547C6.35569 4.43595 6.47496 4.39619 6.61128 4.39619C6.74759 4.39619 6.86687 4.43595 6.9691 4.51547Z" fill="white"/>
</svg>
