<svg viewBox="0 0 16 16" fill="none" xmlns="http://www.w3.org/2000/svg">
<path d="M13.5991 2H2.40094C1.72567 2 1.1567 2.22821 0.694021 2.68464C0.231338 3.14107 0 3.71317 0 4.40094V11.5991C0 12.2743 0.231338 12.8433 0.694021 13.306C1.1567 13.7687 1.72567 14 2.40094 14H13.5991C14.2868 14 14.8589 13.7687 15.3154 13.306C15.7718 12.8433 16 12.2743 16 11.5991V4.40094C16 3.71317 15.7718 3.14107 15.3154 2.68464C14.8589 2.22821 14.2868 2 13.5991 2ZM14.4056 11.5991C14.4056 11.8367 14.3337 12.0305 14.1899 12.1805C14.0461 12.3306 13.8492 12.4056 13.5991 12.4056H2.40094C2.16334 12.4056 1.96952 12.3306 1.81946 12.1805C1.6694 12.0305 1.59437 11.8367 1.59437 11.5991V4.40094C1.59437 4.15084 1.6694 3.95389 1.81946 3.81008C1.96952 3.66628 2.16334 3.59437 2.40094 3.59437H13.5991C13.8492 3.59437 14.0461 3.66628 14.1899 3.81008C14.3337 3.95389 14.4056 4.15084 14.4056 4.40094V11.5991Z" fill="#36474B"/>
<path d="M13.5991 2H2.40094C1.72567 2 1.1567 2.22821 0.694021 2.68464C0.231338 3.14107 0 3.71317 0 4.40094V11.5991C0 12.2743 0.231338 12.8433 0.694021 13.306C1.1567 13.7687 1.72567 14 2.40094 14H13.5991C14.2868 14 14.8589 13.7687 15.3154 13.306C15.7718 12.8433 16 12.2743 16 11.5991V4.40094C16 3.71317 15.7718 3.14107 15.3154 2.68464C14.8589 2.22821 14.2868 2 13.5991 2ZM14.4056 11.5991C14.4056 11.8367 14.3337 12.0305 14.1899 12.1805C14.0461 12.3306 13.8492 12.4056 13.5991 12.4056H2.40094C2.16334 12.4056 1.96952 12.3306 1.81946 12.1805C1.6694 12.0305 1.59437 11.8367 1.59437 11.5991V4.40094C1.59437 4.15084 1.6694 3.95389 1.81946 3.81008C1.96952 3.66628 2.16334 3.59437 2.40094 3.59437H13.5991C13.8492 3.59437 14.0461 3.66628 14.1899 3.81008C14.3337 3.95389 14.4056 4.15084 14.4056 4.40094V11.5991Z" fill="#31B8DA" fill-opacity="0.05"/>
<path d="M6.99707 5.09882L10.7507 7.49882C10.8192 7.56471 10.8778 7.64 10.9267 7.72471C10.9756 7.80941 11 7.89412 11 7.97882C11 8.07294 10.9829 8.16235 10.9487 8.24706C10.9145 8.33176 10.8485 8.40235 10.7507 8.45882L6.99707 10.8729C6.93842 10.9012 6.87732 10.9294 6.81378 10.9576C6.75024 10.9859 6.68915 11 6.6305 11C6.56207 11 6.50831 10.9976 6.46921 10.9929C6.43011 10.9882 6.37634 10.9671 6.30792 10.9294C6.21994 10.8729 6.14663 10.8 6.08798 10.7106C6.02933 10.6212 6 10.5153 6 10.3929V5.57882C6 5.45647 6.03177 5.35294 6.09531 5.26824C6.15885 5.18353 6.25415 5.12706 6.38123 5.09882C6.46921 5.03294 6.57185 5 6.68915 5C6.80645 5 6.90909 5.03294 6.99707 5.09882Z" fill="#36474B"/>
<path d="M6.99707 5.09882L10.7507 7.49882C10.8192 7.56471 10.8778 7.64 10.9267 7.72471C10.9756 7.80941 11 7.89412 11 7.97882C11 8.07294 10.9829 8.16235 10.9487 8.24706C10.9145 8.33176 10.8485 8.40235 10.7507 8.45882L6.99707 10.8729C6.93842 10.9012 6.87732 10.9294 6.81378 10.9576C6.75024 10.9859 6.68915 11 6.6305 11C6.56207 11 6.50831 10.9976 6.46921 10.9929C6.43011 10.9882 6.37634 10.9671 6.30792 10.9294C6.21994 10.8729 6.14663 10.8 6.08798 10.7106C6.02933 10.6212 6 10.5153 6 10.3929V5.57882C6 5.45647 6.03177 5.35294 6.09531 5.26824C6.15885 5.18353 6.25415 5.12706 6.38123 5.09882C6.46921 5.03294 6.57185 5 6.68915 5C6.80645 5 6.90909 5.03294 6.99707 5.09882Z" fill="#31B8DA" fill-opacity="0.05"/>
</svg>
