<svg viewBox="0 0 16 16" fill="none" xmlns="http://www.w3.org/2000/svg">
<path d="M14.6259 1.27024C14.2024 0.846826 13.7275 0.53213 13.2011 0.326143C12.6747 0.108713 12.1369 0 11.5876 0C11.0383 0 10.5004 0.108713 9.97403 0.326143C9.44762 0.53213 8.97271 0.846826 8.54929 1.27024L7.22755 2.50615C7.09023 2.65492 7.02157 2.82658 7.02157 3.02112C7.02157 3.21566 7.09023 3.38731 7.22755 3.53608C7.37632 3.68485 7.54798 3.75923 7.74252 3.75923C7.93706 3.75923 8.10871 3.68485 8.25748 3.53608L9.51056 2.30017C10.0942 1.75087 10.7751 1.47623 11.5532 1.47623C12.3314 1.47623 13.018 1.75087 13.6131 2.30017C14.1967 2.84947 14.4914 3.53036 14.4971 4.34286C14.5028 5.15536 14.2311 5.83625 13.6818 6.38554L11.4846 8.58272C11.4503 8.6285 11.4016 8.67999 11.3387 8.73721C11.2757 8.79443 11.2271 8.84592 11.1928 8.8917C10.529 9.36089 9.79665 9.54399 8.9956 9.44099C8.19454 9.338 7.55942 8.95464 7.09023 8.29091C6.97579 8.15358 6.81272 8.06776 6.60102 8.03343C6.38931 7.9991 6.20907 8.03915 6.0603 8.15359C5.91154 8.25658 5.82285 8.41679 5.79424 8.63422C5.76563 8.85165 5.80854 9.03474 5.92298 9.18351C6.35784 9.76714 6.8871 10.2049 7.51078 10.4967C8.13447 10.7885 8.77244 10.9344 9.42473 10.9344C9.87104 10.9344 10.3231 10.86 10.7808 10.7112C11.2385 10.5625 11.6677 10.345 12.0682 10.0589C12.1369 9.97884 12.2113 9.90446 12.2914 9.8358C12.3715 9.76714 12.4687 9.69275 12.5832 9.61265L14.7803 7.41547C15.2038 6.99205 15.5127 6.51143 15.7073 5.97357C15.9133 5.43572 16.0105 4.88357 15.9991 4.31711C15.9877 3.75065 15.8675 3.20422 15.6386 2.67781C15.4097 2.13996 15.0722 1.67077 14.6259 1.27024ZM7.60519 12.4793L6.35212 13.7152C5.76849 14.2645 5.08474 14.5391 4.30085 14.5391C3.51695 14.5391 2.8332 14.2645 2.24958 13.7152C1.66595 13.1659 1.37128 12.4821 1.36556 11.6639C1.35983 10.8457 1.63162 10.1619 2.18091 9.61265L4.37809 7.41547C4.41242 7.38114 4.46106 7.33251 4.524 7.26957C4.58694 7.20662 4.63557 7.15799 4.6699 7.12366C5.00177 6.90623 5.3508 6.74602 5.717 6.64303C6.08319 6.54003 6.46655 6.5057 6.86708 6.54003C7.26761 6.6087 7.63094 6.73744 7.95709 6.92626C8.28323 7.11508 8.55501 7.37542 8.77244 7.70728C8.88688 7.85605 9.04995 7.94474 9.26166 7.97335C9.47337 8.00196 9.6536 7.96477 9.80237 7.86177C9.9397 7.74734 10.0255 7.58427 10.0599 7.37256C10.0942 7.16085 10.0541 6.98061 9.93969 6.83185C9.5735 6.35121 9.14437 5.96785 8.65229 5.68176C8.16021 5.39567 7.63953 5.2183 7.09023 5.14963C6.54093 5.0352 5.98592 5.0495 5.42518 5.19255C4.86444 5.33559 4.34376 5.59021 3.86313 5.95641C3.79447 6.02507 3.72294 6.09659 3.64856 6.17098C3.57418 6.24536 3.49693 6.31688 3.41683 6.38554L1.21965 8.58272C0.807677 9.02903 0.498702 9.52682 0.292716 10.0761C0.0867296 10.614 -0.0105403 11.1661 0.000903474 11.7326C0.0123472 12.299 0.126782 12.8455 0.344212 13.3719C0.561642 13.9097 0.882061 14.3904 1.30548 14.8138C1.74034 15.2143 2.22383 15.5233 2.75596 15.7407C3.28809 15.9581 3.82879 16.0669 4.37809 16.0669C4.92739 16.0669 5.46809 15.9581 6.00023 15.7407C6.53236 15.5233 7.01585 15.2143 7.45071 14.8138L8.70378 13.5779C8.84111 13.4291 8.90977 13.2574 8.90977 13.0629C8.90977 12.8684 8.84111 12.6967 8.70378 12.5479C8.55501 12.3992 8.36906 12.3133 8.14591 12.2905C7.92275 12.2676 7.74252 12.3305 7.60519 12.4793Z" fill="#36474B"/>
<path d="M14.6259 1.27024C14.2024 0.846826 13.7275 0.53213 13.2011 0.326143C12.6747 0.108713 12.1369 0 11.5876 0C11.0383 0 10.5004 0.108713 9.97403 0.326143C9.44762 0.53213 8.97271 0.846826 8.54929 1.27024L7.22755 2.50615C7.09023 2.65492 7.02157 2.82658 7.02157 3.02112C7.02157 3.21566 7.09023 3.38731 7.22755 3.53608C7.37632 3.68485 7.54798 3.75923 7.74252 3.75923C7.93706 3.75923 8.10871 3.68485 8.25748 3.53608L9.51056 2.30017C10.0942 1.75087 10.7751 1.47623 11.5532 1.47623C12.3314 1.47623 13.018 1.75087 13.6131 2.30017C14.1967 2.84947 14.4914 3.53036 14.4971 4.34286C14.5028 5.15536 14.2311 5.83625 13.6818 6.38554L11.4846 8.58272C11.4503 8.6285 11.4016 8.67999 11.3387 8.73721C11.2757 8.79443 11.2271 8.84592 11.1928 8.8917C10.529 9.36089 9.79665 9.54399 8.9956 9.44099C8.19454 9.338 7.55942 8.95464 7.09023 8.29091C6.97579 8.15358 6.81272 8.06776 6.60102 8.03343C6.38931 7.9991 6.20907 8.03915 6.0603 8.15359C5.91154 8.25658 5.82285 8.41679 5.79424 8.63422C5.76563 8.85165 5.80854 9.03474 5.92298 9.18351C6.35784 9.76714 6.8871 10.2049 7.51078 10.4967C8.13447 10.7885 8.77244 10.9344 9.42473 10.9344C9.87104 10.9344 10.3231 10.86 10.7808 10.7112C11.2385 10.5625 11.6677 10.345 12.0682 10.0589C12.1369 9.97884 12.2113 9.90446 12.2914 9.8358C12.3715 9.76714 12.4687 9.69275 12.5832 9.61265L14.7803 7.41547C15.2038 6.99205 15.5127 6.51143 15.7073 5.97357C15.9133 5.43572 16.0105 4.88357 15.9991 4.31711C15.9877 3.75065 15.8675 3.20422 15.6386 2.67781C15.4097 2.13996 15.0722 1.67077 14.6259 1.27024ZM7.60519 12.4793L6.35212 13.7152C5.76849 14.2645 5.08474 14.5391 4.30085 14.5391C3.51695 14.5391 2.8332 14.2645 2.24958 13.7152C1.66595 13.1659 1.37128 12.4821 1.36556 11.6639C1.35983 10.8457 1.63162 10.1619 2.18091 9.61265L4.37809 7.41547C4.41242 7.38114 4.46106 7.33251 4.524 7.26957C4.58694 7.20662 4.63557 7.15799 4.6699 7.12366C5.00177 6.90623 5.3508 6.74602 5.717 6.64303C6.08319 6.54003 6.46655 6.5057 6.86708 6.54003C7.26761 6.6087 7.63094 6.73744 7.95709 6.92626C8.28323 7.11508 8.55501 7.37542 8.77244 7.70728C8.88688 7.85605 9.04995 7.94474 9.26166 7.97335C9.47337 8.00196 9.6536 7.96477 9.80237 7.86177C9.9397 7.74734 10.0255 7.58427 10.0599 7.37256C10.0942 7.16085 10.0541 6.98061 9.93969 6.83185C9.5735 6.35121 9.14437 5.96785 8.65229 5.68176C8.16021 5.39567 7.63953 5.2183 7.09023 5.14963C6.54093 5.0352 5.98592 5.0495 5.42518 5.19255C4.86444 5.33559 4.34376 5.59021 3.86313 5.95641C3.79447 6.02507 3.72294 6.09659 3.64856 6.17098C3.57418 6.24536 3.49693 6.31688 3.41683 6.38554L1.21965 8.58272C0.807677 9.02903 0.498702 9.52682 0.292716 10.0761C0.0867296 10.614 -0.0105403 11.1661 0.000903474 11.7326C0.0123472 12.299 0.126782 12.8455 0.344212 13.3719C0.561642 13.9097 0.882061 14.3904 1.30548 14.8138C1.74034 15.2143 2.22383 15.5233 2.75596 15.7407C3.28809 15.9581 3.82879 16.0669 4.37809 16.0669C4.92739 16.0669 5.46809 15.9581 6.00023 15.7407C6.53236 15.5233 7.01585 15.2143 7.45071 14.8138L8.70378 13.5779C8.84111 13.4291 8.90977 13.2574 8.90977 13.0629C8.90977 12.8684 8.84111 12.6967 8.70378 12.5479C8.55501 12.3992 8.36906 12.3133 8.14591 12.2905C7.92275 12.2676 7.74252 12.3305 7.60519 12.4793Z" fill="#31B8DA" fill-opacity="0.05"/>
</svg>
 