<svg width="16" height="16" viewBox="0 0 16 16" fill="none" xmlns="http://www.w3.org/2000/svg">
<g clip-path="url(#clip0)">
<path d="M16.0056 7.98555C14.9528 7.98 14.7778 7.96055 14.4917 8.12444V7.98555C13.2333 7.98555 13.0056 7.93833 12.6889 8.13V7.98555H10.5167V8.12722C10.2 7.94667 9.92222 7.98555 8.41389 7.98555V8.14111C8.23889 8.03833 8.01111 7.98555 7.73889 7.98555H6.12778C6.03056 8.09111 5.78056 8.36611 5.69167 8.46333C5.33889 8.07167 5.4 8.14111 5.26111 7.98555H2.95278V10.5494H5.23056C5.32222 10.4522 5.58889 10.1633 5.67778 10.0661C6.03056 10.4633 5.96389 10.3911 6.10556 10.5494H7.46389C7.46389 10.1411 7.46667 10.3189 7.46667 9.91055C7.78611 9.91611 8.14167 9.905 8.41944 9.73833C8.41944 10.1244 8.41667 10.2133 8.41667 10.5494H9.51667C9.51667 10.0356 9.51944 10.3439 9.51944 9.84667C9.69167 9.84667 9.73333 9.84667 9.78056 9.84944C9.78333 9.88555 9.78056 9.84944 9.78056 10.5494C14.025 10.5494 13.8333 10.58 14.1333 10.4244V10.5494C15.1 10.5494 15.6556 10.6106 16.0083 10.38V12.8911C16.0083 13.6272 15.4111 14.2244 14.675 14.2244H1.33889C0.602778 14.2244 0.00555556 13.6272 0.00555556 12.8911V7.23278H0.744444C0.861111 6.95222 0.805556 7.08555 0.922222 6.80778H1.45556C1.57222 7.08555 1.51667 6.95222 1.63333 7.23278H3.10278V6.91611C3.16389 7.055 3.13333 6.98555 3.24444 7.23278H4.06389C4.13056 7.08 4.13611 7.07167 4.20556 6.91611V7.23278H7.96945V6.53555C8.14722 6.53555 8.19167 6.53278 8.24167 6.54111C8.24167 6.54111 8.23611 6.84389 8.24445 7.23H10.0917V6.98278C10.2972 7.14667 10.575 7.23 10.9167 7.23H11.6611C11.7778 6.94944 11.7222 7.08278 11.8389 6.805H12.3667C12.5472 7.22167 12.3722 6.81889 12.55 7.23H14.0167V6.62167C14.3444 7.16889 14.2333 6.98 14.3833 7.23H15.5389V4.67444H14.4306V5.18555C14.0917 4.62444 14.2556 4.89667 14.1194 4.67444H12.9167V5.24667C12.7444 4.84111 12.7889 4.94667 12.6722 4.67444H11.7722C11.7611 4.67444 11.7083 4.68 11.7083 4.66611H10.9417C10.5861 4.66611 10.3 4.755 10.0889 4.92444V4.66611H8.98056V4.81333C8.68056 4.64389 8.40556 4.67167 7.19167 4.66611C7.18889 4.66611 6.86944 4.66333 6.86944 4.66611H4.00833C3.93889 4.83555 3.81944 5.12167 3.65833 5.49944C3.58056 5.33278 3.35278 4.83833 3.27222 4.66611H1.99444V5.25222C1.78889 4.76889 1.86389 4.94667 1.74444 4.66611H0.641667C0.547222 4.88555 0.261111 5.555 0 6.16333V3.11333C0 2.37722 0.597222 1.78 1.33333 1.78H14.6667C15.4028 1.78 16 2.37722 16 3.11333V7.98555H16.0056ZM10.8222 5.74667C10.8139 5.75222 10.7833 5.80778 10.7833 5.95778C10.7833 6.12444 10.8083 6.17167 10.8139 6.17722C10.8194 6.18 10.8444 6.19111 10.9083 6.19111L11.1111 5.72167C11.0806 5.72167 11.0528 5.71889 11.025 5.71889C10.8694 5.71889 10.8306 5.73833 10.8222 5.74667ZM10.2694 9.38278C10.525 9.47444 10.575 9.64667 10.575 9.89389L10.5722 10.2772H10.1111L10.1139 9.95778C10.1139 9.63 10.0083 9.57444 9.70278 9.57444H9.21389L9.21111 10.2772H8.75L8.75278 8.35222H9.84722C10.2083 8.35222 10.6 8.41611 10.6 8.87167C10.5972 9.08278 10.4833 9.29667 10.2694 9.38278V9.38278ZM10.0944 8.955C10.0944 8.77722 9.93889 8.74944 9.79722 8.74944H9.21389V9.18278H9.78889C9.94445 9.18278 10.0944 9.14667 10.0944 8.955V8.955ZM15.1417 8.75778H15.9778V8.35222H15.0639C14.7083 8.35222 14.4028 8.53555 14.4028 8.92722C14.4028 9.84389 15.5889 9.28278 15.5889 9.68833C15.5889 9.83 15.4694 9.86611 15.3556 9.86611H14.4667L14.4639 10.2772H15.3528C15.5861 10.2772 15.8417 10.2272 15.9778 10.03V9.31333C15.6861 8.93 14.8861 9.27722 14.8861 8.93833C14.8861 8.77722 15.0139 8.75778 15.1417 8.75778V8.75778ZM12.3861 8.74944V8.35222H10.8528L10.85 10.2772H12.3833L12.3861 9.88L11.3139 9.87167V9.48833H12.3667V9.09667H11.3167V8.74944H12.3861V8.74944ZM13.5583 9.86333H12.6639L12.6611 10.2744H13.5556C13.9667 10.2744 14.2833 10.1189 14.2833 9.66333C14.2833 8.74111 13.0917 9.35222 13.0917 8.93278C13.0917 8.77722 13.2278 8.755 13.3472 8.755H14.1917V8.34944H13.2694C12.9139 8.34944 12.6167 8.53278 12.6167 8.92444C12.6167 9.84111 13.8028 9.27167 13.8028 9.68555C13.8 9.83555 13.6722 9.86333 13.5583 9.86333V9.86333ZM11.3889 5.455C10.9056 5.44667 10.4667 5.34111 10.4667 6.00222C10.4667 6.33 10.5444 6.555 10.9139 6.555H11.1194L11.7722 5.04111H12.4611L13.2361 6.85778V5.04111H13.9389L14.7472 6.37722V5.04111H15.2167V6.95778H14.5611L13.6944 5.51611V6.95778H12.7583L12.575 6.53278H11.6222L11.4444 6.95778H10.9111C10.2778 6.95778 9.99445 6.63 9.99445 6.01333C9.99445 5.36611 10.2861 5.03278 10.9389 5.03278H11.3861V5.455H11.3889ZM11.7861 6.13555H12.4194L12.1083 5.36889L11.7861 6.13555ZM9.76944 5.03555H9.3V6.96055H9.76944V5.03555V5.03555ZM8.71111 6.07167C8.975 6.16333 9.01667 6.32722 9.01667 6.58278V6.95778H8.55556C8.54722 6.54667 8.65556 6.26055 8.14444 6.26055H7.64444V6.95778H7.18889V5.03278L8.275 5.04111C8.64445 5.04111 9.03611 5.09667 9.03611 5.55222C9.03889 5.77444 8.91667 5.98833 8.71111 6.07167V6.07167ZM8.525 5.64667C8.525 5.46889 8.36944 5.44111 8.22778 5.44111H7.64444V5.86611H8.21945C8.37778 5.86611 8.525 5.83 8.525 5.64667ZM6.87222 5.44111V5.03555H5.33056V6.96055H6.87222V6.56333H5.79167V6.18H6.84167V5.78833H5.79167V5.44111H6.87222V5.44111ZM4.52222 6.96055V5.455L3.85556 6.96055H3.45L2.78333 5.455V6.96055H1.84444L1.66667 6.53555H0.708333L0.530556 6.96055H0.0333333L0.858333 5.03555H1.53889L2.31944 6.86055V5.03555H3.07222L3.675 6.34111L4.22222 5.03555H4.98889V6.96055H4.52222V6.96055ZM1.50278 6.13555L1.18333 5.36889L0.872222 6.13555H1.50278ZM8.53056 8.98278C8.53056 9.75778 7.68611 9.63 7.16111 9.63L7.15833 10.2772H6.26389L5.69722 9.63833L5.10556 10.2772H3.28889L3.29167 8.35222H5.13889L5.70833 8.98555L6.29167 8.35222H7.75556C8.18889 8.35222 8.53056 8.50222 8.53056 8.98278ZM5.4 9.31055L4.90278 8.74944H3.74444V9.09667H4.75278V9.48833H3.74444V9.87167H4.87222L5.4 9.31055V9.31055ZM6.7 8.55778L5.99722 9.31889L6.7 10.0994V8.55778ZM8.04167 8.98278C8.04167 8.81333 7.91389 8.74944 7.75833 8.74944H7.16111V9.23833H7.75C7.91389 9.23833 8.04167 9.16055 8.04167 8.98278V8.98278Z" fill="#374B50"/>
</g>
<defs>
<clipPath id="clip0">
<rect width="16" height="16" fill="white"/>
</clipPath>
</defs>
</svg>
