<svg width="16" height="16" viewBox="0 0 16 16" version="1.1" xmlns="http://www.w3.org/2000/svg" xmlns:xlink="http://www.w3.org/1999/xlink" xml:space="preserve" xmlns:serif="http://www.serif.com/" style="fill-rule:evenodd;clip-rule:evenodd;stroke-linejoin:round;stroke-miterlimit:1.41421;">
    <path d="M9.002,2.564C11.567,2.663 12.948,6.815 10.252,8.184C9.871,8.378 9.448,8.479 9.015,8.499C7.34,8.524 5.664,8.5 3.989,8.5C3.729,8.49 3.519,8.294 3.49,8.037C3.428,6.38 3.489,4.721 3.489,3.063C3.499,2.803 3.695,2.593 3.952,2.564C5.634,2.501 7.319,2.542 9.002,2.564ZM4.489,3.563L4.489,7.5C5.988,7.5 7.486,7.522 8.985,7.499C10.66,7.423 11.715,4.699 9.774,3.758C9.524,3.637 9.254,3.574 8.976,3.564C7.481,3.544 5.985,3.563 4.489,3.563Z" style="fill-rule:nonzero;"/>
    <path d="M9.619,7.501C11.399,7.57 12.879,9.426 12.417,11.208C12.094,12.449 10.916,13.386 9.619,13.436C7.743,13.46 5.866,13.437 3.989,13.437C3.73,13.427 3.521,13.236 3.491,12.976C3.425,11.319 3.489,9.659 3.489,8C3.499,7.741 3.69,7.532 3.95,7.502C5.838,7.427 7.729,7.477 9.619,7.501ZM4.489,8.5L4.489,12.437C6.19,12.437 7.892,12.458 9.593,12.436C11.266,12.372 12.295,9.618 10.391,8.695C10.141,8.574 9.871,8.511 9.593,8.501C7.892,8.479 6.19,8.5 4.489,8.5Z" style="fill-rule:nonzero;"/>
</svg>
