<svg viewBox="0 0 16 16" fill="none" xmlns="http://www.w3.org/2000/svg">
<path d="M14 3.45076H11.6719L10.5312 1.75909C10.4688 1.68796 10.3906 1.627 10.2969 1.5762C10.2031 1.5254 10.1042 1.5 10 1.5H6C5.89583 1.5 5.79688 1.5254 5.70312 1.5762C5.60937 1.627 5.53125 1.68796 5.46875 1.75909L4.32812 3.45076H2C1.4375 3.45076 0.963544 3.63618 0.578125 4.00703C0.192706 4.37788 0 4.84271 0 5.40152V12.5492C0 13.0979 0.192706 13.5602 0.578125 13.9361C0.963544 14.312 1.4375 14.5 2 14.5H14C14.5625 14.5 15.0365 14.312 15.4219 13.9361C15.8073 13.5602 16 13.0979 16 12.5492V5.40152C16 4.84271 15.8073 4.37788 15.4219 4.00703C15.0365 3.63618 14.5625 3.45076 14 3.45076ZM14.6719 12.5492C14.6719 12.7423 14.6094 12.8998 14.4844 13.0217C14.3594 13.1436 14.1979 13.2046 14 13.2046H2C1.80208 13.2046 1.64063 13.1436 1.51562 13.0217C1.39062 12.8998 1.32812 12.7423 1.32812 12.5492V5.40152C1.32812 5.19832 1.39062 5.0383 1.51562 4.92145C1.64063 4.80461 1.80208 4.74619 2 4.74619H4.67188C4.76563 4.74619 4.85937 4.71825 4.95312 4.66237C5.04688 4.60649 5.13021 4.54807 5.20312 4.4871L6.32812 2.79543H9.59375L10.7344 4.4871C10.8385 4.54807 10.9401 4.60649 11.0391 4.66237C11.138 4.71825 11.2344 4.74619 11.3281 4.74619H14C14.1979 4.74619 14.3594 4.80461 14.4844 4.92145C14.6094 5.0383 14.6719 5.19832 14.6719 5.40152V12.5492ZM8 5.40152C7.53125 5.40152 7.09375 5.48281 6.6875 5.64537C6.28125 5.81809 5.92969 6.04924 5.63281 6.3388C5.33594 6.62837 5.09896 6.97128 4.92188 7.36753C4.75521 7.76378 4.67188 8.1905 4.67188 8.64771C4.67188 9.10493 4.75521 9.53165 4.92188 9.9279C5.09896 10.3242 5.33594 10.6671 5.63281 10.9566C5.92969 11.2462 6.28125 11.4773 6.6875 11.6501C7.09375 11.8126 7.53125 11.8939 8 11.8939C8.46875 11.8939 8.90625 11.8126 9.3125 11.6501C9.71875 11.4773 10.0703 11.2462 10.3672 10.9566C10.6641 10.6671 10.901 10.3242 11.0781 9.9279C11.2448 9.53165 11.3281 9.10493 11.3281 8.64771C11.3281 8.1905 11.2448 7.76378 11.0781 7.36753C10.901 6.97128 10.6641 6.62837 10.3672 6.3388C10.0703 6.04924 9.71875 5.81809 9.3125 5.64537C8.90625 5.48281 8.46875 5.40152 8 5.40152ZM8 10.5985C7.4375 10.5985 6.96354 10.4105 6.57812 10.0346C6.19271 9.65865 6 9.19637 6 8.64771C6 8.09906 6.19271 7.63677 6.57812 7.26084C6.96354 6.88491 7.4375 6.69695 8 6.69695C8.5625 6.69695 9.03646 6.88491 9.42188 7.26084C9.80729 7.63677 10 8.09906 10 8.64771C10 9.19637 9.80729 9.65865 9.42188 10.0346C9.03646 10.4105 8.5625 10.5985 8 10.5985Z" fill="#36474B"/>
</svg>
