<svg viewBox="0 0 16 16" fill="none" xmlns="http://www.w3.org/2000/svg">
<path d="M13.7391 4.74633C13.5652 4.58211 13.3645 4.5 13.1371 4.5C12.9097 4.5 12.709 4.58211 12.5351 4.74633L8 9.40616L3.46488 4.74633C3.29097 4.58211 3.0903 4.5 2.86288 4.5C2.63545 4.5 2.43478 4.58211 2.26087 4.74633C2.08696 4.92424 2 5.12952 2 5.36217C2 5.59482 2.08696 5.8001 2.26087 5.97801L7.39799 11.2331C7.49164 11.3289 7.59532 11.3974 7.70903 11.4384C7.82274 11.4795 7.91973 11.5 8 11.5C8.08027 11.5 8.17726 11.4795 8.29097 11.4384C8.40468 11.3974 8.50836 11.3289 8.60201 11.2331L13.7391 5.97801C13.913 5.8001 14 5.59482 14 5.36217C14 5.12952 13.913 4.92424 13.7391 4.74633Z" fill="#36474B"/>
</svg>
