<svg fill="none" viewBox="0 0 16 16" xmlns="http://www.w3.org/2000/svg">
<path d="m14.6008.135283c-.0977-.0901892-.2105-.135283-.3382-.135283-.1278 0-.2405.0450938-.3382.135283l-4.94913 4.960367v-3.17915c0-.14279-.04509-.25741-.13528-.34384s-.20668-.12965-.34948-.12965-.25929.04322-.34948.12965-.13529.20105-.13529.34384v4.32905c0 .03006.00188.06388.00564.10146s.02067.06764.05073.09019c.02255.05261.05637.10146.10146.14656.0451.04509.09019.07891.13529.10146.02255.02254.05449.0357.09582.03945.04134.00376.07328.00564.09583.00564h4.32909c.1428 0 .2592-.04321.3494-.12964.0902-.08644.1353-.20481.1353-.35512 0-.1428-.0451-.25741-.1353-.34384-.0902-.08644-.2066-.12965-.3494-.12965h-3.17919l4.96039-4.960364c.0977-.097705.1465-.210439.1465-.338207 0-.127767-.0488-.240502-.1465-.338206z" fill="#36474b"/>
</svg>