<svg viewBox="0 0 16 16" fill="none" xmlns="http://www.w3.org/2000/svg">
<path d="M14.9306 2.8975C15.6427 3.79137 15.9987 4.76477 15.9987 5.81772C15.9987 6.87068 15.6427 7.84407 14.9306 8.73795C14.2186 9.63182 13.2471 10.3382 12.0161 10.8571C10.7851 11.376 9.44623 11.6354 7.99937 11.6354C7.3479 11.6354 6.68129 11.5748 5.99953 11.4536C5.0602 12.1203 4.00727 12.6051 2.84068 12.9081C2.56798 12.9762 2.24225 13.0368 1.86349 13.0899H1.8294C1.74607 13.0899 1.66843 13.0596 1.59646 12.999C1.5245 12.9384 1.48094 12.8588 1.46579 12.7604C1.45822 12.7376 1.45443 12.713 1.45443 12.6865C1.45443 12.66 1.45632 12.6354 1.46011 12.6126C1.4639 12.5899 1.47147 12.5672 1.48284 12.5445C1.4942 12.5217 1.50367 12.5028 1.51124 12.4877C1.51882 12.4725 1.53208 12.4517 1.55101 12.4252C1.56995 12.3986 1.5851 12.3797 1.59646 12.3683C1.60783 12.357 1.62487 12.338 1.6476 12.3115C1.67032 12.285 1.68547 12.268 1.69305 12.2604C1.73092 12.2149 1.81804 12.1203 1.95439 11.9763C2.09074 11.8324 2.18922 11.7207 2.24982 11.6411C2.31042 11.5616 2.39564 11.4517 2.50548 11.3116C2.61532 11.1715 2.71001 11.0256 2.78955 10.8741C2.86909 10.7226 2.94674 10.556 3.02249 10.3742C2.08316 9.82877 1.34459 9.15837 0.806755 8.36298C0.268915 7.56758 0 6.71917 0 5.81772C0 4.76477 0.356029 3.79137 1.0681 2.8975C1.78017 2.00363 2.75167 1.29725 3.98264 0.778348C5.21361 0.259447 6.55251 0 7.99937 0C9.44623 0 10.7851 0.259447 12.0161 0.778348C13.2471 1.29725 14.2186 2.00363 14.9306 2.8975ZM20.362 8.72658C20.362 9.63561 20.0931 10.4859 19.5553 11.2775C19.0174 12.0691 18.2789 12.7376 17.3395 13.283C17.4153 13.4648 17.4929 13.6315 17.5725 13.783C17.652 13.9345 17.7467 14.0803 17.8565 14.2205C17.9664 14.3606 18.0516 14.4704 18.1122 14.55C18.1728 14.6295 18.2713 14.7413 18.4076 14.8852C18.544 15.0291 18.6311 15.1238 18.669 15.1693C18.6766 15.1768 18.6917 15.1939 18.7144 15.2204C18.7372 15.2469 18.7542 15.2658 18.7656 15.2772C18.7769 15.2886 18.7921 15.3075 18.811 15.334C18.83 15.3605 18.8432 15.3814 18.8508 15.3965C18.8584 15.4117 18.8678 15.4306 18.8792 15.4533C18.8906 15.4761 18.8981 15.4988 18.9019 15.5215C18.9057 15.5442 18.9076 15.5688 18.9076 15.5954C18.9076 15.6219 18.9038 15.6465 18.8962 15.6692C18.8735 15.7753 18.8243 15.8586 18.7485 15.9192C18.6728 15.9798 18.5894 16.0063 18.4985 15.9987C18.1198 15.9457 17.7941 15.8851 17.5213 15.8169C16.3548 15.5139 15.3018 15.0291 14.3625 14.3625C13.6807 14.4837 13.0141 14.5443 12.3627 14.5443C10.3098 14.5443 8.52206 14.0444 6.99945 13.0444C7.43881 13.0747 7.77211 13.0899 7.99937 13.0899C9.21898 13.0899 10.3893 12.9194 11.5105 12.5786C12.6316 12.2377 13.6315 11.7491 14.5102 11.1128C15.4571 10.4158 16.1843 9.61288 16.6919 8.70386C17.1994 7.79484 17.4532 6.8328 17.4532 5.81772C17.4532 5.23443 17.3661 4.65873 17.1918 4.09059C18.169 4.62843 18.9417 5.30261 19.5098 6.11315C20.078 6.9237 20.362 7.79483 20.362 8.72658Z" fill="#B2CDD5"/>
<path d="M14.9306 2.8975C15.6427 3.79137 15.9987 4.76477 15.9987 5.81772C15.9987 6.87068 15.6427 7.84407 14.9306 8.73795C14.2186 9.63182 13.2471 10.3382 12.0161 10.8571C10.7851 11.376 9.44623 11.6354 7.99937 11.6354C7.3479 11.6354 6.68129 11.5748 5.99953 11.4536C5.0602 12.1203 4.00727 12.6051 2.84068 12.9081C2.56798 12.9762 2.24225 13.0368 1.86349 13.0899H1.8294C1.74607 13.0899 1.66843 13.0596 1.59646 12.999C1.5245 12.9384 1.48094 12.8588 1.46579 12.7604C1.45822 12.7376 1.45443 12.713 1.45443 12.6865C1.45443 12.66 1.45632 12.6354 1.46011 12.6126C1.4639 12.5899 1.47147 12.5672 1.48284 12.5445C1.4942 12.5217 1.50367 12.5028 1.51124 12.4877C1.51882 12.4725 1.53208 12.4517 1.55101 12.4252C1.56995 12.3986 1.5851 12.3797 1.59646 12.3683C1.60783 12.357 1.62487 12.338 1.6476 12.3115C1.67032 12.285 1.68547 12.268 1.69305 12.2604C1.73092 12.2149 1.81804 12.1203 1.95439 11.9763C2.09074 11.8324 2.18922 11.7207 2.24982 11.6411C2.31042 11.5616 2.39564 11.4517 2.50548 11.3116C2.61532 11.1715 2.71001 11.0256 2.78955 10.8741C2.86909 10.7226 2.94674 10.556 3.02249 10.3742C2.08316 9.82877 1.34459 9.15837 0.806755 8.36298C0.268915 7.56758 0 6.71917 0 5.81772C0 4.76477 0.356029 3.79137 1.0681 2.8975C1.78017 2.00363 2.75167 1.29725 3.98264 0.778348C5.21361 0.259447 6.55251 0 7.99937 0C9.44623 0 10.7851 0.259447 12.0161 0.778348C13.2471 1.29725 14.2186 2.00363 14.9306 2.8975ZM20.362 8.72658C20.362 9.63561 20.0931 10.4859 19.5553 11.2775C19.0174 12.0691 18.2789 12.7376 17.3395 13.283C17.4153 13.4648 17.4929 13.6315 17.5725 13.783C17.652 13.9345 17.7467 14.0803 17.8565 14.2205C17.9664 14.3606 18.0516 14.4704 18.1122 14.55C18.1728 14.6295 18.2713 14.7413 18.4076 14.8852C18.544 15.0291 18.6311 15.1238 18.669 15.1693C18.6766 15.1768 18.6917 15.1939 18.7144 15.2204C18.7372 15.2469 18.7542 15.2658 18.7656 15.2772C18.7769 15.2886 18.7921 15.3075 18.811 15.334C18.83 15.3605 18.8432 15.3814 18.8508 15.3965C18.8584 15.4117 18.8678 15.4306 18.8792 15.4533C18.8906 15.4761 18.8981 15.4988 18.9019 15.5215C18.9057 15.5442 18.9076 15.5688 18.9076 15.5954C18.9076 15.6219 18.9038 15.6465 18.8962 15.6692C18.8735 15.7753 18.8243 15.8586 18.7485 15.9192C18.6728 15.9798 18.5894 16.0063 18.4985 15.9987C18.1198 15.9457 17.7941 15.8851 17.5213 15.8169C16.3548 15.5139 15.3018 15.0291 14.3625 14.3625C13.6807 14.4837 13.0141 14.5443 12.3627 14.5443C10.3098 14.5443 8.52206 14.0444 6.99945 13.0444C7.43881 13.0747 7.77211 13.0899 7.99937 13.0899C9.21898 13.0899 10.3893 12.9194 11.5105 12.5786C12.6316 12.2377 13.6315 11.7491 14.5102 11.1128C15.4571 10.4158 16.1843 9.61288 16.6919 8.70386C17.1994 7.79484 17.4532 6.8328 17.4532 5.81772C17.4532 5.23443 17.3661 4.65873 17.1918 4.09059C18.169 4.62843 18.9417 5.30261 19.5098 6.11315C20.078 6.9237 20.362 7.79483 20.362 8.72658Z" fill="#31B8DA" fill-opacity="0.05"/>
</svg>
