<svg width="16" height="16" viewBox="0 0 16 16" xmlns="http://www.w3.org/2000/svg">
<path d="M13.8166 5.09478H7.26652C6.65245 5.09478 6.13504 5.30209 5.71429 5.71672C5.29353 6.13135 5.08316 6.65104 5.08316 7.27583V13.819C5.08316 14.4324 5.29353 14.9492 5.71429 15.3695C6.13504 15.7898 6.65245 16 7.26652 16H13.8166C14.4421 16 14.9623 15.7898 15.3774 15.3695C15.7925 14.9492 16 14.4324 16 13.819V7.27583C16 6.65104 15.7925 6.13135 15.3774 5.71672C14.9623 5.30209 14.4421 5.09478 13.8166 5.09478ZM14.5501 13.819C14.5501 14.0348 14.4847 14.208 14.3539 14.3387C14.2232 14.4693 14.0441 14.5346 13.8166 14.5346H7.26652C7.05046 14.5346 6.87704 14.4693 6.74627 14.3387C6.61549 14.208 6.55011 14.0348 6.55011 13.819V7.27583C6.55011 7.04863 6.61549 6.86972 6.74627 6.73908C6.87704 6.60845 7.05046 6.54313 7.26652 6.54313H13.8166C14.0441 6.54313 14.2232 6.60845 14.3539 6.73908C14.4847 6.86972 14.5501 7.04863 14.5501 7.27583V13.819ZM2.89979 9.45687H2.18337C1.95593 9.45687 1.77683 9.38871 1.64606 9.2524C1.51528 9.11608 1.44989 8.94001 1.44989 8.72417V2.18104C1.44989 1.96521 1.51528 1.78914 1.64606 1.65282C1.77683 1.51651 1.95593 1.44835 2.18337 1.44835H8.73348C8.94954 1.44835 9.12296 1.51651 9.25373 1.65282C9.38451 1.78914 9.44989 1.96521 9.44989 2.18104V2.91374C9.44989 3.12957 9.51812 3.3028 9.65458 3.43344C9.79105 3.56408 9.9673 3.62939 10.1834 3.62939C10.3994 3.62939 10.5757 3.56408 10.7122 3.43344C10.8486 3.3028 10.9168 3.12957 10.9168 2.91374V2.18104C10.9168 1.56762 10.7065 1.05077 10.2857 0.630458C9.86496 0.210151 9.34755 0 8.73348 0H2.18337C1.55792 0 1.03767 0.210151 0.622601 0.630458C0.207532 1.05077 0 1.56762 0 2.18104V8.72417C0 9.3376 0.207532 9.85445 0.622601 10.2748C1.03767 10.6951 1.55792 10.9052 2.18337 10.9052H2.89979C3.12722 10.9052 3.30632 10.8399 3.4371 10.7093C3.56788 10.5786 3.63326 10.3997 3.63326 10.1725C3.63326 9.95669 3.56788 9.78346 3.4371 9.65282C3.30632 9.52219 3.12722 9.45687 2.89979 9.45687Z" />
</svg>