<svg viewBox="0 0 16 16" fill="none" xmlns="http://www.w3.org/2000/svg">
<path d="M11.9052 1.44835H11.1725C11.1725 1.05076 11.0305 0.709977 10.7465 0.425985C10.4625 0.141994 10.1218 0 9.72417 0H5.36209C4.9645 0 4.62371 0.141994 4.33972 0.425985C4.05573 0.709977 3.91374 1.05076 3.91374 1.44835H3.18104C2.56762 1.44835 2.05077 1.6585 1.63046 2.07881C1.21015 2.49911 1 3.01597 1 3.62939V13.819C1 14.4324 1.21015 14.9492 1.63046 15.3695C2.05077 15.7898 2.56762 16 3.18104 16H11.9052C12.5186 16 13.0355 15.7898 13.4558 15.3695C13.8761 14.9492 14.0863 14.4324 14.0863 13.819V3.62939C14.0863 3.01597 13.8761 2.49911 13.4558 2.07881C13.0355 1.6585 12.5186 1.44835 11.9052 1.44835ZM5.36209 1.44835H9.72417V2.91374H5.36209V2.18104V1.44835ZM12.6379 13.819C12.6379 14.0348 12.5698 14.208 12.4334 14.3387C12.2971 14.4693 12.1211 14.5346 11.9052 14.5346H3.18104C2.96521 14.5346 2.78914 14.4693 2.65282 14.3387C2.51651 14.208 2.44835 14.0348 2.44835 13.819V3.62939C2.44835 3.41356 2.51651 3.24033 2.65282 3.10969C2.78914 2.97905 2.96521 2.91374 3.18104 2.91374H3.91374C3.91374 3.31133 4.05573 3.65211 4.33972 3.9361C4.62371 4.22009 4.9645 4.36209 5.36209 4.36209H9.72417C10.1218 4.36209 10.4625 4.22009 10.7465 3.9361C11.0305 3.65211 11.1725 3.31133 11.1725 2.91374H11.9052C12.1211 2.91374 12.2971 2.97905 12.4334 3.10969C12.5698 3.24033 12.6379 3.41356 12.6379 3.62939V13.819Z" fill="#36474B"/>
</svg>
