<svg width="16" height="16" viewBox="0 0 16 16" fill="none" xmlns="http://www.w3.org/2000/svg">
<path d="M14.6667 1.47998C15.0333 1.47998 15.3472 1.61295 15.6083 1.8789C15.8694 2.14485 16 2.46455 16 2.83801V13.159C16 13.5325 15.8694 13.8522 15.6083 14.1181C15.3472 14.384 15.0333 14.517 14.6667 14.517H1.33333C0.966665 14.517 0.652779 14.384 0.391667 14.1181C0.130554 13.8522 0 13.5325 0 13.159V2.83801C0 2.46455 0.130554 2.14485 0.391667 1.8789C0.652779 1.61295 0.966665 1.47998 1.33333 1.47998H14.6667ZM1.33333 2.5664C1.26111 2.5664 1.19861 2.59328 1.14583 2.64703C1.09306 2.70079 1.06667 2.76445 1.06667 2.83801V4.73924H14.9333V2.83801C14.9333 2.76445 14.9069 2.70079 14.8542 2.64703C14.8014 2.59328 14.7389 2.5664 14.6667 2.5664H1.33333ZM14.6667 13.4306C14.7389 13.4306 14.8014 13.4037 14.8542 13.35C14.9069 13.2962 14.9333 13.2326 14.9333 13.159V7.9985H1.06667V13.159C1.06667 13.2326 1.09306 13.2962 1.14583 13.35C1.19861 13.4037 1.26111 13.4306 1.33333 13.4306H14.6667ZM2.13333 12.3442V11.2578H4.26667V12.3442H2.13333ZM5.33333 12.3442V11.2578H8.53333V12.3442H5.33333Z" fill="#374B50"/>
</svg>
