<svg width="16" height="16" viewBox="0 0 16 16" fill="none" xmlns="http://www.w3.org/2000/svg">
<path d="M8 0C6.88557 0 5.84506 0.210151 4.87846 0.630458C3.90049 1.03941 3.05047 1.60738 2.32836 2.3344C1.60625 3.06142 1.03483 3.9077 0.614072 4.87327C0.204689 5.8502 0 6.88959 0 7.99148C0 9.10473 0.204689 10.1441 0.614072 11.1097C1.03483 12.0866 1.60625 12.9357 2.32836 13.6571C3.05047 14.3784 3.90049 14.9492 4.87846 15.3695C5.84506 15.7898 6.88557 16 8 16C9.11443 16 10.1549 15.7898 11.1215 15.3695C12.0995 14.9492 12.9495 14.3784 13.6716 13.6571C14.3937 12.9357 14.9652 12.0866 15.3859 11.1097C15.7953 10.1441 16 9.10473 16 7.99148C16 6.88959 15.7953 5.8502 15.3859 4.87327C14.9652 3.9077 14.3937 3.06142 13.6716 2.3344C12.9495 1.60738 12.0995 1.03941 11.1215 0.630458C10.1549 0.210151 9.11443 0 8 0ZM8 14.5346C7.09026 14.5346 6.23739 14.3642 5.44136 14.0234C4.64534 13.6826 3.95167 13.2169 3.36034 12.6262C2.76901 12.0355 2.30277 11.3426 1.96162 10.5474C1.62047 9.75221 1.44989 8.90025 1.44989 7.99148C1.44989 7.08271 1.62047 6.23075 1.96162 5.43557C2.30277 4.64039 2.76901 3.94746 3.36034 3.35676C3.95167 2.76606 4.64534 2.30032 5.44136 1.95953C6.23739 1.61874 7.09026 1.44835 8 1.44835C8.90974 1.44835 9.76261 1.61874 10.5586 1.95953C11.3547 2.30032 12.0483 2.76606 12.6397 3.35676C13.231 3.94746 13.6972 4.64039 14.0384 5.43557C14.3795 6.23075 14.5501 7.08271 14.5501 7.99148C14.5501 8.90025 14.3795 9.75221 14.0384 10.5474C13.6972 11.3426 13.231 12.0355 12.6397 12.6262C12.0483 13.2169 11.3547 13.6826 10.5586 14.0234C9.76261 14.3642 8.90974 14.5346 8 14.5346ZM8 4.36209C7.78394 4.36209 7.60768 4.4274 7.47122 4.55804C7.33475 4.68868 7.26652 4.86759 7.26652 5.09478V7.99148C7.26652 8.21867 7.33475 8.39759 7.47122 8.52822C7.60768 8.65886 7.78394 8.72417 8 8.72417C8.21606 8.72417 8.39232 8.65886 8.52878 8.52822C8.66525 8.39759 8.73348 8.21867 8.73348 7.99148V5.09478C8.73348 4.86759 8.66525 4.68868 8.52878 4.55804C8.39232 4.4274 8.21606 4.36209 8 4.36209ZM7.48827 10.394C7.42004 10.4736 7.36603 10.5502 7.32623 10.6241C7.28642 10.6979 7.26652 10.7916 7.26652 10.9052C7.26652 11.0188 7.28642 11.1125 7.32623 11.1864C7.36603 11.2602 7.42004 11.3369 7.48827 11.4164C7.56788 11.4846 7.64463 11.5385 7.71855 11.5783C7.79247 11.618 7.88628 11.6379 8 11.6379C8.11372 11.6379 8.20753 11.618 8.28145 11.5783C8.35537 11.5385 8.43212 11.4846 8.51173 11.4164C8.57996 11.3369 8.63397 11.2488 8.67377 11.1523C8.71358 11.0557 8.73348 10.9734 8.73348 10.9052C8.73348 10.8371 8.71358 10.7547 8.67377 10.6581C8.63397 10.5616 8.57996 10.4736 8.51173 10.394C8.36389 10.2464 8.19332 10.1725 8 10.1725C7.80668 10.1725 7.63611 10.2464 7.48827 10.394Z" fill="#374B50"/>
</svg>