<svg width="16" height="16" viewBox="0 0 16 16" fill="none" xmlns="http://www.w3.org/2000/svg">
<path d="M2.30556 6.78278C2.30556 7.00222 2.21667 7.21333 2.05833 7.35778C1.92222 7.48 1.73611 7.53555 1.45 7.53555H1.33333V6.03H1.45C1.73611 6.03 1.91389 6.07722 2.05833 6.21333C2.21667 6.35222 2.30556 6.56333 2.30556 6.78278ZM14.0222 6.00222H13.8861V6.69389H14.0167C14.3028 6.69389 14.4556 6.57167 14.4556 6.33833C14.4556 6.11889 14.3028 6.00222 14.0222 6.00222V6.00222ZM16 3.11333V12.8911C16 13.6272 15.4028 14.2244 14.6667 14.2244H1.33333C0.597222 14.2244 0 13.6272 0 12.8911V3.11333C0 2.37722 0.597222 1.78 1.33333 1.78H14.6667C15.4028 1.78 16 2.37722 16 3.11333ZM11.8889 7.91889H13.1472V7.53555H12.3333V6.91889H13.1194V6.53555H12.3333V6.03H13.1472V5.64111H11.8889V7.91889ZM9.49444 5.64111L10.4667 7.98H10.7056L11.6917 5.64111H11.2056L10.5889 7.17444L9.98056 5.64111H9.49444V5.64111ZM7.18889 6.79667C7.18889 7.48 7.74167 8.03555 8.42778 8.03555C9.11111 8.03555 9.66667 7.48278 9.66667 6.79667C9.66667 6.11333 9.11389 5.55778 8.42778 5.55778C7.74444 5.55778 7.18889 6.11055 7.18889 6.79667ZM5.3 6.78278C5.3 7.68555 6.23333 8.24111 7.05833 7.84389V7.31611C6.52222 7.85222 5.75833 7.47722 5.75833 6.78278C5.75833 6.12444 6.5 5.69667 7.05833 6.255V5.72722C6.21944 5.31055 5.3 5.91611 5.3 6.78278V6.78278ZM4.35833 7.56889C4.14722 7.56889 3.975 7.46611 3.87222 7.26889L3.58611 7.54389C4.08056 8.26889 5.15833 8.04944 5.15833 7.23C5.15833 6.86611 5.00833 6.70222 4.50278 6.51889C4.23611 6.42444 4.16111 6.355 4.16111 6.23278C4.16111 5.99111 4.56389 5.84111 4.85278 6.16333L5.08611 5.86333C4.55556 5.38833 3.70556 5.61611 3.70556 6.26055C3.70556 6.57444 3.85 6.73833 4.26667 6.89111C4.98056 7.14389 4.675 7.56889 4.35833 7.56889V7.56889ZM2.76389 6.78278C2.76389 6.11333 2.26389 5.64111 1.53889 5.64111H0.888889V7.91889H1.53889C2.39722 7.91889 2.76389 7.29667 2.76389 6.78278ZM3.41389 5.64111H2.96944V7.91889H3.41389V5.64111ZM15.1111 8.89111C14.1861 9.46889 8.82222 12.3467 3.55556 13.3356H14.6944C14.9222 13.3356 15.1111 13.1467 15.1111 12.9189V8.89111ZM15.1111 7.91889L14.3917 6.96055C14.7278 6.89111 14.9111 6.66611 14.9111 6.31611C14.9111 5.52444 14.0694 5.63833 13.4417 5.63833V7.91611H13.8861V7.005H13.9472L14.5639 7.91611H15.1111V7.91889Z" fill="#374B50"/>
</svg>
