<svg width="16" height="16" viewBox="0 0 16 16" fill="none" xmlns="http://www.w3.org/2000/svg">
<path d="M4 3C4 2.44772 4.44772 2 5 2H11C11.5523 2 12 2.44772 12 3C12 3.55228 11.5523 4 11 4H5C4.44772 4 4 3.55228 4 3Z" fill="#374B50"/>
<path d="M4 8C4 7.44772 4.44772 7 5 7H11C11.5523 7 12 7.44772 12 8C12 8.55228 11.5523 9 11 9H5C4.44772 9 4 8.55228 4 8Z" fill="#374B50"/>
<path d="M4 13C4 12.4477 4.44772 12 5 12H11C11.5523 12 12 12.4477 12 13C12 13.5523 11.5523 14 11 14H5C4.44772 14 4 13.5523 4 13Z" fill="#374B50"/>
</svg>
