<svg width="16" height="16" viewBox="0 0 16 16" fill="none" xmlns="http://www.w3.org/2000/svg">
<path fill-rule="evenodd" clip-rule="evenodd" d="M0.75 2C0.75 1.30964 1.30964 0.75 2 0.75H6.08696C6.77731 0.75 7.33696 1.30964 7.33696 2V6.08696C7.33696 6.77731 6.77731 7.33696 6.08696 7.33696H2C1.30964 7.33696 0.75 6.77731 0.75 6.08696V2ZM2 1.25C1.58579 1.25 1.25 1.58579 1.25 2V6.08696C1.25 6.50117 1.58579 6.83696 2 6.83696H6.08696C6.50117 6.83696 6.83696 6.50117 6.83696 6.08696V2C6.83696 1.58579 6.50117 1.25 6.08696 1.25H2Z" fill="#374B50"/>
<path fill-rule="evenodd" clip-rule="evenodd" d="M4.04336 8.5542C3.90012 8.5542 3.76554 8.62276 3.68132 8.73862L1.75416 11.3889C1.63984 11.5455 1.63955 11.7584 1.75387 11.915L3.68129 14.5657C3.76551 14.6815 3.90012 14.7501 4.04336 14.7501C4.18659 14.7501 4.32118 14.6816 4.40539 14.5657L6.33255 11.9154C6.44687 11.7588 6.44716 11.5459 6.33284 11.3893L4.40542 8.73866C4.32121 8.6228 4.18659 8.5542 4.04336 8.5542ZM3.2769 8.44461C3.4552 8.19933 3.74012 8.0542 4.04336 8.0542C4.34659 8.0542 4.63151 8.19933 4.80981 8.44461C4.80982 8.44462 4.8098 8.4446 4.80981 8.44461L6.73666 11.0945C6.73671 11.0945 6.73661 11.0944 6.73666 11.0945C6.97902 11.4266 6.97917 11.8775 6.73681 12.2096C6.73676 12.2097 6.73686 12.2096 6.73681 12.2096L4.80984 14.8597C4.63154 15.105 4.34661 15.2501 4.04336 15.2501C3.74012 15.2501 3.4552 15.105 3.2769 14.8597C3.27689 14.8597 3.27691 14.8597 3.2769 14.8597L1.35005 12.2098C1.35 12.2098 1.35011 12.2099 1.35005 12.2098C1.10771 11.8777 1.10754 11.4268 1.34989 11.0947C1.34995 11.0946 1.34984 11.0948 1.34989 11.0947L3.2769 8.44461C3.27691 8.4446 3.27689 8.44462 3.2769 8.44461Z" fill="#374B50"/>
<path fill-rule="evenodd" clip-rule="evenodd" d="M8.66309 4.04348C8.66309 2.22454 10.1376 0.75 11.9566 0.75C13.7755 0.75 15.25 2.22454 15.25 4.04348C15.25 5.86242 13.7755 7.33696 11.9566 7.33696C10.1376 7.33696 8.66309 5.86242 8.66309 4.04348ZM11.9566 1.25C10.4138 1.25 9.16309 2.50068 9.16309 4.04348C9.16309 5.58627 10.4138 6.83696 11.9566 6.83696C13.4994 6.83696 14.75 5.58627 14.75 4.04348C14.75 2.50068 13.4994 1.25 11.9566 1.25Z" fill="#374B50"/>
<path fill-rule="evenodd" clip-rule="evenodd" d="M10.304 9.06404C10.4585 8.80254 10.7396 8.64211 11.0434 8.64211C11.347 8.64211 11.6281 8.80251 11.7826 9.06396L14.6745 13.9542C14.8315 14.2196 14.8341 14.5487 14.6815 14.8165C14.5288 15.0843 14.2443 15.2498 13.9361 15.25H8.15327C7.84501 15.2498 7.56033 15.0843 7.4077 14.8165C7.25506 14.5487 7.2577 14.2196 7.4146 13.9542L10.304 9.06404C10.304 9.06403 10.304 9.06405 10.304 9.06404ZM11.0434 9.14211C10.9165 9.14211 10.7991 9.20913 10.7345 9.31837L7.84503 14.2086C7.77949 14.3195 7.77834 14.457 7.8421 14.5689C7.90586 14.6808 8.0247 14.7499 8.15346 14.75H13.9357C14.0645 14.7499 14.1833 14.6808 14.2471 14.5689C14.3108 14.457 14.3097 14.3196 14.2442 14.2087C14.2442 14.2087 14.2442 14.2087 14.2442 14.2087L11.3523 9.31847C11.2877 9.20923 11.1702 9.14211 11.0434 9.14211Z" fill="#374B50"/>
</svg>
