<svg width="16" height="16" viewBox="0 0 16 16" fill="none" xmlns="http://www.w3.org/2000/svg">
<path d="M8 0C6.88557 0 5.84507 0.210151 4.87846 0.630458C3.90049 1.03941 3.05047 1.60738 2.32836 2.3344C1.60625 3.06142 1.03483 3.9077 0.614073 4.87327C0.204689 5.8502 0 6.88959 0 7.99148C0 9.10473 0.204689 10.1441 0.614073 11.1097C1.03483 12.0866 1.60625 12.9357 2.32836 13.6571C3.05047 14.3784 3.90049 14.9492 4.87846 15.3695C5.84507 15.7898 6.88557 16 8 16C9.11443 16 10.1549 15.7898 11.1215 15.3695C12.0995 14.9492 12.9495 14.3784 13.6716 13.6571C14.3937 12.9357 14.9652 12.0866 15.3859 11.1097C15.7953 10.1441 16 9.10473 16 7.99148C16 6.88959 15.7953 5.8502 15.3859 4.87327C14.9652 3.9077 14.3937 3.06142 13.6716 2.3344C12.9495 1.60738 12.0995 1.03941 11.1215 0.630458C10.1549 0.210151 9.11443 0 8 0ZM8 14.5346C7.09026 14.5346 6.23739 14.3642 5.44136 14.0234C4.64534 13.6826 3.95167 13.2169 3.36034 12.6262C2.76901 12.0355 2.30277 11.3426 1.96162 10.5474C1.62047 9.75221 1.44989 8.90025 1.44989 7.99148C1.44989 7.08271 1.62047 6.23075 1.96162 5.43557C2.30277 4.64039 2.76901 3.94746 3.36034 3.35676C3.95167 2.76606 4.64534 2.30032 5.44136 1.95953C6.23739 1.61874 7.09026 1.44835 8 1.44835C8.90974 1.44835 9.76261 1.61874 10.5586 1.95953C11.3547 2.30032 12.0483 2.76606 12.6397 3.35676C13.231 3.94746 13.6972 4.64039 14.0384 5.43557C14.3795 6.23075 14.5501 7.08271 14.5501 7.99148C14.5501 8.90025 14.3795 9.75221 14.0384 10.5474C13.6972 11.3426 13.231 12.0355 12.6397 12.6262C12.0483 13.2169 11.3547 13.6826 10.5586 14.0234C9.76261 14.3642 8.90974 14.5346 8 14.5346Z" fill="#374B50"/>
<mask id="path-2-inside-1" fill="white">
<path fill-rule="evenodd" clip-rule="evenodd" d="M8.53179 4.80468C8.2389 4.51178 7.76403 4.51178 7.47113 4.80468C7.17824 5.09757 7.17824 5.57244 7.47113 5.86534L8.85748 7.25168H5.33496C4.92075 7.25168 4.58496 7.58746 4.58496 8.00168C4.58496 8.41589 4.92075 8.75168 5.33496 8.75168H8.85747L7.47113 10.138C7.17824 10.4309 7.17824 10.9058 7.47113 11.1987C7.76403 11.4916 8.2389 11.4916 8.53179 11.1987L11.1891 8.54137C11.3304 8.40497 11.4183 8.21359 11.4183 8.00168C11.4183 7.78992 11.3305 7.59865 11.1894 7.46227L8.53179 4.80468Z"/>
</mask>
<path fill-rule="evenodd" clip-rule="evenodd" d="M8.53179 4.80468C8.2389 4.51178 7.76403 4.51178 7.47113 4.80468C7.17824 5.09757 7.17824 5.57244 7.47113 5.86534L8.85748 7.25168H5.33496C4.92075 7.25168 4.58496 7.58746 4.58496 8.00168C4.58496 8.41589 4.92075 8.75168 5.33496 8.75168H8.85747L7.47113 10.138C7.17824 10.4309 7.17824 10.9058 7.47113 11.1987C7.76403 11.4916 8.2389 11.4916 8.53179 11.1987L11.1891 8.54137C11.3304 8.40497 11.4183 8.21359 11.4183 8.00168C11.4183 7.78992 11.3305 7.59865 11.1894 7.46227L8.53179 4.80468Z" fill="#374B50"/>
<path d="M7.47113 4.80468L8.53179 5.86534L8.5318 5.86534L7.47113 4.80468ZM8.53179 4.80468L7.47113 5.86534L7.47113 5.86534L8.53179 4.80468ZM7.47113 5.86534L8.53179 4.80468L8.53179 4.80468L7.47113 5.86534ZM8.85748 7.25168V8.75168C9.46417 8.75168 10.0111 8.38622 10.2433 7.8257C10.4755 7.26519 10.3471 6.62001 9.91814 6.19102L8.85748 7.25168ZM8.85747 8.75168L9.91813 9.81234C10.3471 9.38334 10.4755 8.73817 10.2433 8.17765C10.0111 7.61714 9.46416 7.25168 8.85747 7.25168V8.75168ZM7.47113 10.138L8.53179 11.1987L8.53179 11.1987L7.47113 10.138ZM7.47113 11.1987L6.41047 12.2593L6.41047 12.2593L7.47113 11.1987ZM8.53179 11.1987L7.47113 10.138L7.47113 10.138L8.53179 11.1987ZM11.1891 8.54137L10.1474 7.46211C10.141 7.46825 10.1347 7.47445 10.1284 7.4807L11.1891 8.54137ZM11.1894 7.46227L10.1287 8.52293C10.1348 8.529 10.1409 8.53501 10.1471 8.54097L11.1894 7.46227ZM8.5318 5.86534C8.2389 6.15823 7.76403 6.15823 7.47113 5.86534L9.59245 3.74402C8.71378 2.86534 7.28915 2.86534 6.41047 3.74402L8.5318 5.86534ZM8.53179 4.80468C8.82469 5.09757 8.82469 5.57244 8.53179 5.86534L6.41047 3.74402C5.53179 4.6227 5.53179 6.04732 6.41048 6.926L8.53179 4.80468ZM9.91814 6.19102L8.53179 4.80468L6.41048 6.926L7.79682 8.31234L9.91814 6.19102ZM5.33496 8.75168H8.85748V5.75168H5.33496V8.75168ZM6.08496 8.00168C6.08496 8.41589 5.74917 8.75168 5.33496 8.75168V5.75168C4.09232 5.75168 3.08496 6.75904 3.08496 8.00168H6.08496ZM5.33496 7.25168C5.74917 7.25168 6.08496 7.58746 6.08496 8.00168H3.08496C3.08496 9.24432 4.09232 10.2517 5.33496 10.2517V7.25168ZM8.85747 7.25168H5.33496V10.2517H8.85747V7.25168ZM8.53179 11.1987L9.91813 9.81234L7.79681 7.69102L6.41048 9.07735L8.53179 11.1987ZM8.5318 10.138C8.82469 10.4309 8.82469 10.9058 8.53179 11.1987L6.41048 9.07735C5.53179 9.95603 5.5318 11.3807 6.41047 12.2593L8.5318 10.138ZM7.47113 10.138C7.76403 9.84512 8.2389 9.84512 8.53179 10.138L6.41047 12.2593C7.28915 13.138 8.71377 13.138 9.59246 12.2593L7.47113 10.138ZM10.1284 7.4807L7.47113 10.138L9.59245 12.2593L12.2498 9.60203L10.1284 7.4807ZM9.91829 8.00168C9.91829 7.79001 10.0079 7.59668 10.1474 7.46211L12.2308 9.62062C12.6529 9.21326 12.9183 8.63717 12.9183 8.00168H9.91829ZM10.1471 8.54097C10.0078 8.40641 9.91829 8.2132 9.91829 8.00168H12.9183C12.9183 7.36663 12.6532 6.79089 12.2317 6.38358L10.1471 8.54097ZM7.47113 5.86534L10.1287 8.52293L12.2501 6.40161L9.59245 3.74402L7.47113 5.86534Z" fill="#374B50" mask="url(#path-2-inside-1)"/>
</svg>
