<svg width="16" height="14" viewBox="0 0 16 14" fill="none" xmlns="http://www.w3.org/2000/svg">
<path d="M13.8166 0H2.18337C1.55792 0 1.03767 0.210375 0.622601 0.63113C0.207532 1.05189 0 1.56929 0 2.18337V10.9168C0 11.5423 0.207532 12.0625 0.622601 12.4776C1.03767 12.8927 1.55792 13.1002 2.18337 13.1002H13.8166C14.4421 13.1002 14.9623 12.8927 15.3774 12.4776C15.7925 12.0625 16 11.5423 16 10.9168V2.18337C16 1.56929 15.7925 1.05189 15.3774 0.63113C14.9623 0.210375 14.4421 0 13.8166 0ZM2.18337 1.46695H13.8166C13.9645 1.46695 14.0924 1.50107 14.2004 1.5693C14.3085 1.63753 14.4023 1.74556 14.4819 1.89339L8 6.41365L1.51812 1.89339C1.59773 1.74556 1.69154 1.63753 1.79957 1.5693C1.90761 1.50107 2.03554 1.46695 2.18337 1.46695ZM13.8166 11.6503H2.18337C1.95593 11.6503 1.77683 11.5849 1.64606 11.4542C1.51528 11.3234 1.44989 11.1443 1.44989 10.9168V3.56503L7.5565 7.86354C7.63611 7.89766 7.71286 7.93177 7.78678 7.96589C7.8607 8 7.93177 8.01706 8 8.01706C8.06823 8.01706 8.1393 8 8.21322 7.96589C8.28714 7.93177 8.36389 7.89766 8.4435 7.86354L14.5501 3.56503V10.9168C14.5501 11.1443 14.4847 11.3234 14.3539 11.4542C14.2232 11.5849 14.0441 11.6503 13.8166 11.6503Z" fill="#121F22" fill-opacity="0.2"/>
<path d="M13.8166 0H2.18337C1.55792 0 1.03767 0.210375 0.622601 0.63113C0.207532 1.05189 0 1.56929 0 2.18337V10.9168C0 11.5423 0.207532 12.0625 0.622601 12.4776C1.03767 12.8927 1.55792 13.1002 2.18337 13.1002H13.8166C14.4421 13.1002 14.9623 12.8927 15.3774 12.4776C15.7925 12.0625 16 11.5423 16 10.9168V2.18337C16 1.56929 15.7925 1.05189 15.3774 0.63113C14.9623 0.210375 14.4421 0 13.8166 0ZM2.18337 1.46695H13.8166C13.9645 1.46695 14.0924 1.50107 14.2004 1.5693C14.3085 1.63753 14.4023 1.74556 14.4819 1.89339L8 6.41365L1.51812 1.89339C1.59773 1.74556 1.69154 1.63753 1.79957 1.5693C1.90761 1.50107 2.03554 1.46695 2.18337 1.46695ZM13.8166 11.6503H2.18337C1.95593 11.6503 1.77683 11.5849 1.64606 11.4542C1.51528 11.3234 1.44989 11.1443 1.44989 10.9168V3.56503L7.5565 7.86354C7.63611 7.89766 7.71286 7.93177 7.78678 7.96589C7.8607 8 7.93177 8.01706 8 8.01706C8.06823 8.01706 8.1393 8 8.21322 7.96589C8.28714 7.93177 8.36389 7.89766 8.4435 7.86354L14.5501 3.56503V10.9168C14.5501 11.1443 14.4847 11.3234 14.3539 11.4542C14.2232 11.5849 14.0441 11.6503 13.8166 11.6503Z" fill="#31B8DA" fill-opacity="0.1"/>
</svg>
