<svg viewBox="0 0 16 16" fill="none" xmlns="http://www.w3.org/2000/svg">
<path fill-rule="evenodd" clip-rule="evenodd" d="M8.48865 6.73031C8.36084 6.73031 8.24817 6.68521 8.15051 6.59502C8.05273 6.49732 8.00391 6.38459 8.00391 6.25682C8.00391 6.12905 8.05273 6.01632 8.15051 5.91861L13.1108 0.958252H9.93164C9.78882 0.958252 9.67236 0.915031 9.58215 0.828606C9.49207 0.742172 9.4469 0.627556 9.4469 0.484756C9.4469 0.334442 9.49207 0.216072 9.58215 0.129646C9.67236 0.0432129 9.78882 0 9.93164 0H14.2607C14.2833 0 14.3152 0.00187683 14.3566 0.00563049C14.3978 0.00939178 14.4298 0.0225449 14.4524 0.0450897C14.4854 0.0615997 14.5184 0.084137 14.5514 0.112724C14.5635 0.123192 14.5756 0.134468 14.5876 0.146553C14.6327 0.19165 14.6666 0.240501 14.6891 0.293106C14.7192 0.315659 14.7361 0.345718 14.7399 0.383301C14.7437 0.420876 14.7455 0.454697 14.7455 0.484756V4.8138C14.7455 4.9566 14.7004 5.07122 14.6102 5.15765C14.52 5.24408 14.4036 5.28729 14.2607 5.28729C14.1179 5.28729 14.0015 5.24408 13.9113 5.15765C13.821 5.07122 13.776 4.9566 13.776 4.8138V1.63466L8.8269 6.59502C8.72913 6.68521 8.61646 6.73031 8.48865 6.73031ZM6.25684 9.26971C6.38452 9.26971 6.49731 9.3148 6.59497 9.40499C6.69275 9.5027 6.74158 9.61543 6.74158 9.7432C6.74158 9.87096 6.69275 9.9837 6.59497 10.0814L1.63464 15.0418H4.81384C4.95654 15.0418 5.07312 15.085 5.16333 15.1714C5.25342 15.2578 5.29858 15.3725 5.29858 15.5153C5.29858 15.6656 5.25342 15.7839 5.16333 15.8704C5.07312 15.9568 4.95654 16 4.81384 16H0.484741C0.462158 16 0.430298 15.9981 0.388916 15.9944C0.347534 15.9906 0.315674 15.9775 0.293091 15.9549C0.248047 15.9324 0.202881 15.8986 0.157837 15.8535C0.112671 15.8084 0.0788574 15.7595 0.0563965 15.7069C0.0262451 15.6844 0.00939941 15.6543 0.00561523 15.6167C0.00183105 15.5791 0 15.5453 0 15.5153V11.1862C0 11.0434 0.0450439 10.9288 0.135254 10.8424C0.225464 10.7559 0.341919 10.7127 0.484741 10.7127C0.627563 10.7127 0.744019 10.7559 0.834229 10.8424C0.924438 10.9288 0.969482 11.0434 0.969482 11.1862V14.3654L5.91858 9.40499C6.01636 9.3148 6.12903 9.26971 6.25684 9.26971Z" fill="#36474B"/>
</svg>
