<svg viewBox="0 0 16 16" fill="none" xmlns="http://www.w3.org/2000/svg">
<path d="M12.1967 7.99179C11.9891 7.99179 11.8197 8.05744 11.6885 8.18875C11.5574 8.32005 11.4918 8.48964 11.4918 8.69754V12.8992C11.4918 13.1071 11.429 13.2767 11.3033 13.408C11.1776 13.5393 11.0109 13.6049 10.8033 13.6049H3.09836C2.89071 13.6049 2.72404 13.5393 2.59836 13.408C2.47268 13.2767 2.40984 13.1071 2.40984 12.8992V5.20164C2.40984 4.9828 2.47268 4.81047 2.59836 4.68464C2.72404 4.55881 2.89071 4.4959 3.09836 4.4959H7.29508C7.51366 4.4959 7.68579 4.43298 7.81148 4.30715C7.93716 4.18132 8 4.00899 8 3.79015C8 3.58226 7.93716 3.4154 7.81148 3.28957C7.68579 3.16374 7.51366 3.10082 7.29508 3.10082H3.09836C2.50819 3.10082 2.01093 3.30051 1.60656 3.69988C1.20218 4.09926 1 4.59984 1 5.20164V12.8992C1 13.49 1.20218 13.9879 1.60656 14.3927C2.01093 14.7976 2.50819 15 3.09836 15H10.8033C11.3934 15 11.8907 14.7976 12.2951 14.3927C12.6995 13.9879 12.9016 13.49 12.9016 12.8992V8.69754C12.9016 8.48964 12.8361 8.32005 12.7049 8.18875C12.5738 8.05744 12.4044 7.99179 12.1967 7.99179ZM14.918 1.41032C14.8852 1.34467 14.8361 1.27902 14.7705 1.21336C14.7049 1.14771 14.6393 1.09848 14.5738 1.06565C14.541 1.03283 14.4945 1.01368 14.4344 1.00821C14.3743 1.00274 14.3279 1 14.2951 1H10.0984C9.89071 1 9.72131 1.06291 9.59016 1.18875C9.45902 1.31458 9.39344 1.48144 9.39344 1.68933C9.39344 1.90817 9.45902 2.0805 9.59016 2.20633C9.72131 2.33216 9.89071 2.39508 10.0984 2.39508H12.623L6.11475 8.9109C5.97268 9.05315 5.90164 9.21727 5.90164 9.40328C5.90164 9.58929 5.97268 9.75342 6.11475 9.89566C6.18033 9.96131 6.25137 10.0106 6.32787 10.0434C6.40437 10.0762 6.49727 10.0926 6.60656 10.0926C6.70492 10.0926 6.79235 10.0762 6.86885 10.0434C6.94536 10.0106 7.02186 9.96131 7.09836 9.89566L13.5902 3.37984V5.89097C13.5902 6.10981 13.6557 6.28214 13.7869 6.40797C13.918 6.5338 14.0874 6.59672 14.2951 6.59672C14.5027 6.59672 14.6721 6.5338 14.8033 6.40797C14.9344 6.28214 15 6.10981 15 5.89097V1.68933C15 1.65651 14.9973 1.61 14.9918 1.54982C14.9863 1.48964 14.9617 1.44314 14.918 1.41032Z" fill="#36474B"/>
</svg>
