<svg width="16" height="16" viewBox="0 0 16 16" fill="none" xmlns="http://www.w3.org/2000/svg">
<path fill-rule="evenodd" clip-rule="evenodd" d="M6.77157 1.67157C7.52172 0.921427 8.53913 0.5 9.6 0.5H11.7C11.9761 0.5 12.2 0.723858 12.2 1V3.8C12.2 4.07614 11.9761 4.3 11.7 4.3H9.6C9.54696 4.3 9.49609 4.32107 9.45858 4.35858C9.42107 4.39609 9.4 4.44696 9.4 4.5V6.1H11.7C11.854 6.1 11.9993 6.17094 12.0941 6.29229C12.1889 6.41365 12.2224 6.5719 12.1851 6.72127L11.4851 9.52127C11.4294 9.74385 11.2294 9.9 11 9.9H9.4V15C9.4 15.2761 9.17614 15.5 8.9 15.5H6.1C5.82386 15.5 5.6 15.2761 5.6 15V9.9H4C3.72386 9.9 3.5 9.67614 3.5 9.4V6.6C3.5 6.32386 3.72386 6.1 4 6.1H5.6V4.5C5.6 3.43913 6.02143 2.42172 6.77157 1.67157ZM9.6 1.5C8.80435 1.5 8.04129 1.81607 7.47868 2.37868C6.91607 2.94129 6.6 3.70435 6.6 4.5V6.6C6.6 6.87614 6.37614 7.1 6.1 7.1H4.5V8.9H6.1C6.37614 8.9 6.6 9.12386 6.6 9.4V14.5H8.4V9.4C8.4 9.12386 8.62386 8.9 8.9 8.9H10.6096L11.0596 7.1H8.9C8.62386 7.1 8.4 6.87614 8.4 6.6V4.5C8.4 4.18174 8.52643 3.87652 8.75147 3.65147C8.97652 3.42643 9.28174 3.3 9.6 3.3H11.2V1.5H9.6Z" fill="#374B50"/>
</svg>
