<svg width="16" height="16" fill="none" xmlns="http://www.w3.org/2000/svg"><path fill-rule="evenodd" clip-rule="evenodd" d="M8 2.083a5.917 5.917 0 1 0 0 11.834A5.917 5.917 0 0 0 8 2.083zM.583 8a7.417 7.417 0 1 1 14.834 0A7.417 7.417 0 0 1 .583 8z" fill="#374B50"/><path fill-rule="evenodd" clip-rule="evenodd" d="M.583 8a.75.75 0 0 1 .75-.75h13.334a.75.75 0 0 1 0 1.5H1.333A.75.75 0 0 1 .583 8z" fill="#374B50"/><path fill-rule="evenodd" clip-rule="evenodd" d="M6.084 8A9.45 9.45 0 0 0 8 13.496 9.45 9.45 0 0 0 9.917 8 9.45 9.45 0 0 0 8 2.504 9.45 9.45 0 0 0 6.084 8zM8 1.333L7.446.828a10.95 10.95 0 0 0-2.862 7.188 10.95 10.95 0 0 0 2.862 7.156.75.75 0 0 0 1.108 0 10.95 10.95 0 0 0 2.863-7.188A10.95 10.95 0 0 0 8.554.828L8 1.333z" fill="#374B50"/></svg>