<svg viewBox="0 0 16 16" fill="none" xmlns="http://www.w3.org/2000/svg">
<path d="M13.7835 3.98661C13.9531 4.35417 13.9955 4.56622 13.9107 4.62277C13.8542 4.67932 13.7623 4.69345 13.635 4.66518C13.5078 4.6369 13.4159 4.55208 13.3594 4.41071C13.3311 4.32589 13.317 4.24107 13.317 4.15625L13.2746 4.02902H13.1473C12.9777 4.08557 12.8929 4.02902 12.8929 3.85938C12.9211 3.80283 12.9918 3.74628 13.1049 3.68973C13.1049 3.66146 13.0908 3.63318 13.0625 3.60491C13.0342 3.43527 13.0766 3.36458 13.1897 3.39286C13.4159 3.44941 13.6138 3.64732 13.7835 3.98661ZM2.7567 2.79911C4.62278 0.933027 6.87052 0 9.5 0C12.1295 0 14.3702 0.925958 16.2221 2.7779C18.074 4.62985 19 6.87052 19 9.5C19 12.1295 18.074 14.3702 16.2221 16.2221C14.3702 18.074 12.1295 19 9.5 19C6.87052 19 4.62985 18.074 2.7779 16.2221C0.925958 14.3702 0 12.1295 0 9.5C0 6.87052 0.91889 4.63691 2.7567 2.79911ZM5.97991 16.8371L6.3192 17.0067C6.48884 17.0632 6.63021 17.1057 6.7433 17.1339C7.28051 17.3318 7.88839 17.4732 8.56697 17.558C9.83929 17.6994 11.0126 17.5863 12.0871 17.2188C12.8505 16.9643 13.4583 16.6816 13.9107 16.3705C13.9955 16.314 14.0804 16.1443 14.1652 15.8616C14.25 15.5789 14.3065 15.4092 14.3348 15.3527C14.4196 15.183 14.4691 14.865 14.4833 14.3984C14.4974 13.9319 14.6176 13.5856 14.8438 13.3594C14.9851 13.1897 15.0699 13.0342 15.0982 12.8929C15.1265 12.7515 15.1194 12.5889 15.077 12.4051C15.0346 12.2214 15.0134 12.0588 15.0134 11.9174C15.0134 11.8326 15.0558 11.6488 15.1406 11.3661C15.2254 11.0833 15.2396 10.8571 15.183 10.6875C15.183 10.631 15.1265 10.6239 15.0134 10.6663C14.9003 10.7087 14.8296 10.7016 14.8013 10.6451C14.7448 10.5603 14.6388 10.5108 14.4833 10.4967C14.3278 10.4825 14.1581 10.4896 13.9743 10.5179C13.7906 10.5461 13.6704 10.5603 13.6138 10.5603C13.2746 10.5037 12.808 10.1786 12.2143 9.58482C12.1295 9.5 12.1436 9.13244 12.2567 8.48214C12.285 8.39732 12.3132 8.19941 12.3415 7.88839C12.3698 7.57738 12.4334 7.34412 12.5324 7.18862C12.6313 7.03311 12.808 6.92708 13.0625 6.87054C13.1473 6.84226 13.2251 6.76451 13.2958 6.63728C13.3664 6.51004 13.4301 6.43229 13.4866 6.40402C13.5714 6.37574 13.6775 6.34747 13.8047 6.3192C13.9319 6.29092 14.0379 6.26265 14.1228 6.23438C14.2641 6.2061 14.455 6.21317 14.6953 6.25558C14.9356 6.29799 15.1124 6.3192 15.2254 6.3192C15.4234 6.3192 15.7344 6.4747 16.1585 6.78571C16.2433 6.87054 16.3352 6.92001 16.4342 6.93415C16.5331 6.94829 16.6462 6.95536 16.7734 6.95536C16.9007 6.95536 17.0067 6.96949 17.0915 6.99777C17.2046 6.96949 17.1763 6.8564 17.0067 6.65848C16.9219 6.60193 16.8088 6.57366 16.6674 6.57366C16.4129 6.51711 16.1302 6.31213 15.8192 5.95871C15.5082 5.60528 15.282 5.38616 15.1406 5.30134C14.9427 5.18824 14.7872 5.18824 14.6741 5.30134L14.7165 5.81027C14.7165 5.83854 14.5327 5.90923 14.1652 6.02232C13.9107 6.07887 13.6704 5.9375 13.4442 5.59821C13.3028 5.34375 13.3311 5.17411 13.529 5.08929H13.6563C13.7128 5.06101 13.7693 5.03981 13.8259 5.02567C13.8824 5.01153 13.9531 4.99033 14.0379 4.96205C14.1228 4.93378 14.1935 4.90551 14.25 4.87723C14.3065 4.84896 14.3631 4.81362 14.4196 4.77121C14.4762 4.72879 14.5186 4.67932 14.5469 4.62277C14.5751 4.56622 14.5751 4.50967 14.5469 4.45312C14.5186 4.39658 14.5045 4.29762 14.5045 4.15625C14.4762 3.98661 14.4196 3.88765 14.3348 3.85938C14.2217 3.8311 14.1157 3.77455 14.0167 3.68973C13.9178 3.60491 13.8118 3.54836 13.6987 3.52009C13.5573 3.49182 13.4866 3.2939 13.4866 2.92634C13.4866 2.72842 13.5573 2.62946 13.6987 2.62946C13.7552 2.62946 13.8118 2.62946 13.8683 2.62946C13.1615 2.17708 12.3557 1.8378 11.4509 1.61161C11.3378 1.95089 11.2247 2.12054 11.1116 2.12054C10.9137 2.17708 10.7865 2.21949 10.7299 2.24777C10.6734 2.30432 10.6027 2.3962 10.5179 2.52344C10.433 2.65067 10.3624 2.74256 10.3058 2.79911C10.2493 2.85566 10.1856 2.90513 10.115 2.94754C10.0443 2.98996 9.97359 2.97582 9.9029 2.90513C9.83222 2.83445 9.75447 2.71429 9.66964 2.54464C9.6131 2.375 9.62016 2.16295 9.69085 1.90848C9.76153 1.65402 9.78274 1.47024 9.75447 1.35714H9.5H9.37277C9.57069 1.75298 9.45759 2.02158 9.03348 2.16295C8.92039 2.16295 8.80022 2.1276 8.67299 2.05692C8.54576 1.98623 8.4256 1.96503 8.3125 1.9933C8.25595 1.9933 8.1782 1.9721 8.07924 1.92969C7.98028 1.88728 7.90253 1.88021 7.84598 1.90848C7.47842 2.07813 7.28051 2.24777 7.25223 2.41741C7.19568 2.67188 7.23809 2.82031 7.37946 2.86272C7.52083 2.90513 7.67634 2.84152 7.84598 2.67188C8.24182 2.27604 8.59524 2.19122 8.90625 2.41741C9.04762 2.53051 9.1183 2.72842 9.1183 3.01116C9.1183 3.12426 9.11124 3.22321 9.0971 3.30804C9.08296 3.39286 9.04762 3.48475 8.99107 3.58371C8.93452 3.68266 8.8497 3.71801 8.73661 3.68973C8.70833 3.68973 8.65885 3.66853 8.58817 3.62612C8.51749 3.58371 8.46801 3.55543 8.43973 3.54129C8.41146 3.52716 8.35491 3.53423 8.27009 3.5625C8.21354 3.61905 7.80358 3.74628 7.04018 3.9442C6.87053 3.97247 6.66555 4.03609 6.42522 4.13505C6.18489 4.234 6.03646 4.29762 5.97991 4.32589C5.6689 4.43899 5.49926 4.60863 5.47098 4.83482C5.47098 5.23066 5.42857 5.44271 5.34375 5.47098C5.2872 5.49926 5.22359 5.43564 5.1529 5.28013C5.08222 5.12463 4.98326 4.96912 4.85603 4.81362C4.72879 4.65811 4.58036 4.59449 4.41071 4.62277C4.12797 4.65104 3.85938 4.78534 3.60491 5.02567C3.35045 5.266 3.26562 5.52753 3.35045 5.81027C3.37872 5.86682 3.48475 5.91629 3.66853 5.95871C3.85231 6.00112 3.9654 6.04353 4.00781 6.08594C4.05022 6.12835 3.97247 6.23437 3.77455 6.40402C3.74628 6.46057 3.73921 6.53125 3.75335 6.61607C3.76749 6.70089 3.78869 6.82106 3.81696 6.97656C3.84524 7.13207 3.85938 7.22396 3.85938 7.25223C3.88765 7.45015 4.00074 7.60565 4.19866 7.71875C4.39658 7.83185 4.58036 7.81771 4.75 7.67634C4.89137 7.53497 5.08928 7.5067 5.34375 7.59152C6.44643 8.18527 7.08259 8.56696 7.25223 8.73661C7.30878 8.79316 7.41481 8.99107 7.57031 9.33036C7.72582 9.66965 7.86012 9.86756 7.97321 9.92411C8.00149 9.95238 8.16406 10.0231 8.46094 10.1362C8.75781 10.2493 8.9628 10.3765 9.07589 10.5179C9.18899 10.6875 9.19606 10.8642 9.0971 11.048C8.99814 11.2318 8.87798 11.3802 8.73661 11.4933C8.68006 11.5216 8.56697 11.7195 8.39732 12.0871C8.22768 12.4546 8.11458 12.6667 8.05804 12.7232C8.00149 12.808 7.7753 12.907 7.37946 13.0201C7.35119 13.0201 7.30878 13.0554 7.25223 13.1261C7.19568 13.1968 7.14621 13.2675 7.1038 13.3382C7.06138 13.4089 7.02604 13.4583 6.99777 13.4866C6.94122 13.5432 6.84226 13.6704 6.70089 13.8683C6.55952 14.0662 6.41816 14.2076 6.27679 14.2924C5.62648 14.7448 5.37202 15.3668 5.51339 16.1585C5.59822 16.4978 5.75372 16.724 5.97991 16.8371ZM4.24107 15.692L4.32589 15.7768C4.52381 15.9464 4.84896 16.1726 5.30134 16.4554C4.59449 15.7485 4.29762 14.6458 4.41071 13.1473L4.53795 12.1295C4.56622 12.0729 4.54502 11.9952 4.47433 11.8962C4.40365 11.7972 4.3683 11.7195 4.3683 11.6629C4.3683 11.465 4.31176 11.3378 4.19866 11.2813C4.14211 11.2247 4.08557 11.1682 4.02902 11.1116C3.77455 10.8571 3.60491 10.6168 3.52009 10.3906C3.2939 9.90997 3.43527 9.30209 3.9442 8.56697C4.08557 8.34077 4.05729 8.07218 3.85938 7.76116C3.66146 7.45015 3.54836 7.26637 3.52009 7.20982C3.52009 7.125 3.47061 7.04018 3.37165 6.95536C3.27269 6.87054 3.23735 6.78572 3.26563 6.70089C3.2939 6.55952 3.23735 6.4747 3.09598 6.44643C3.01116 6.38988 2.94048 6.34747 2.88393 6.3192C2.68601 6.2061 2.60119 6.01525 2.62946 5.74665C2.65774 5.47805 2.6436 5.30134 2.58705 5.21652C1.68229 6.71504 1.29353 8.34077 1.42076 10.0938C1.54799 11.8467 2.16294 13.3876 3.26563 14.7165L3.30804 14.7589V14.8013H3.35045C3.52009 15.0275 3.64732 15.183 3.73214 15.2679C3.78869 15.3244 3.86644 15.3951 3.9654 15.4799C4.06436 15.5647 4.12798 15.6213 4.15625 15.6496L4.24107 15.692Z" fill="#B9C8CF"/>
</svg>
