<svg width="16" height="16" viewBox="0 0 16 16" fill="none" xmlns="http://www.w3.org/2000/svg">
<path fill-rule="evenodd" clip-rule="evenodd" d="M14.9591 2.03917H15.9441V6.78489H14.6457V3.94753H13.7559V3.2312C13.7559 3.2312 14.6513 2.7611 14.9591 2.03917ZM15.6755 6.51067V2.3078H15.127C14.8304 2.84505 14.2876 3.22001 14.0245 3.3823V3.67331H14.92V6.51067H15.6755Z" fill="#374B50"/>
<path d="M13.8734 2.55404C13.672 2.80588 13.3362 2.94019 13.3362 2.94019L13.3474 3.90276H12.2113C10.8234 3.90276 9.69295 5.06681 9.69295 6.49947C9.69295 7.93214 10.8234 9.09619 12.2113 9.09619C13.3418 9.09619 14.3044 8.32389 14.6177 7.25498H15.9497C15.6027 9.0682 14.0581 10.4337 12.2001 10.4337C10.0847 10.4337 8.37781 8.67086 8.37781 6.49388C8.37781 4.31689 10.0903 2.55404 12.2001 2.55404H13.8734Z" fill="#374B50"/>
<path d="M7.68385 2.95138V10.4281C7.68385 12.5603 6.45266 13.8307 4.382 13.8363H1.91401L3.10603 12.4988H4.382C5.75311 12.4988 6.38549 11.8384 6.38549 10.4337V9.44876C5.71393 10.0588 4.8353 10.4337 3.86713 10.4337C1.75731 10.4337 0.050415 8.67086 0.050415 6.49388C0.050415 4.31689 1.75731 2.55404 3.86713 2.55964H7.33688L6.14486 3.89717H3.86713C2.47924 3.89717 1.34877 5.06121 1.34877 6.49388C1.34877 7.92655 2.47924 9.09059 3.86713 9.09059C5.25503 9.09059 6.38549 7.92655 6.38549 6.49388L6.3799 4.41203L7.68385 2.95138Z" fill="#374B50"/>
</svg>
