<svg viewBox="0 0 16 16" fill="none" xmlns="http://www.w3.org/2000/svg">
<path d="M6.40749 0H0.805621C0.568305 0 0.374708 0.0718181 0.224824 0.215457C0.0749407 0.359095 0 0.54957 0 0.786885V6.38876C0 6.62607 0.0749407 6.81967 0.224824 6.96956C0.374708 7.11944 0.568305 7.19438 0.805621 7.19438H6.40749C6.64481 7.19438 6.83528 7.11944 6.97892 6.96956C7.12256 6.81967 7.19438 6.62607 7.19438 6.38876V0.786885C7.19438 0.54957 7.12256 0.359095 6.97892 0.215457C6.83528 0.0718181 6.64481 0 6.40749 0ZM5.60187 5.58314H1.61124V1.59251H5.60187V5.58314ZM15.1944 0H9.59251C9.35519 0 9.16472 0.0718181 9.02108 0.215457C8.87744 0.359095 8.80562 0.54957 8.80562 0.786885V6.38876C8.80562 6.62607 8.87744 6.81967 9.02108 6.96956C9.16472 7.11944 9.35519 7.19438 9.59251 7.19438H15.1944C15.4317 7.19438 15.6253 7.11944 15.7752 6.96956C15.9251 6.81967 16 6.62607 16 6.38876V0.786885C16 0.54957 15.9251 0.359095 15.7752 0.215457C15.6253 0.0718181 15.4317 0 15.1944 0ZM14.3888 5.58314H10.3981V1.59251H14.3888V5.58314ZM15.1944 8.78689H9.59251C9.35519 8.78689 9.16472 8.8587 9.02108 9.00234C8.87744 9.14598 8.80562 9.3427 8.80562 9.59251V15.1756C8.80562 15.4255 8.87744 15.6222 9.02108 15.7658C9.16472 15.9094 9.35519 15.9813 9.59251 15.9813H15.1944C15.4317 15.9813 15.6253 15.9094 15.7752 15.7658C15.9251 15.6222 16 15.4255 16 15.1756V9.59251C16 9.3427 15.9251 9.14598 15.7752 9.00234C15.6253 8.8587 15.4317 8.78689 15.1944 8.78689ZM14.3888 14.3888H10.3981V10.3794H14.3888V14.3888ZM6.40749 8.78689H0.805621C0.568305 8.78689 0.374708 8.8587 0.224824 9.00234C0.0749407 9.14598 0 9.3427 0 9.59251V15.1756C0 15.4255 0.0749407 15.6222 0.224824 15.7658C0.374708 15.9094 0.568305 15.9813 0.805621 15.9813H6.40749C6.64481 15.9813 6.83528 15.9094 6.97892 15.7658C7.12256 15.6222 7.19438 15.4255 7.19438 15.1756V9.59251C7.19438 9.3427 7.12256 9.14598 6.97892 9.00234C6.83528 8.8587 6.64481 8.78689 6.40749 8.78689ZM5.60187 14.3888H1.61124V10.3794H5.60187V14.3888Z" fill="#36474B"/>
</svg>
