<svg width="16" height="16" viewBox="0 0 16 16" version="1.1" xmlns="http://www.w3.org/2000/svg" xmlns:xlink="http://www.w3.org/1999/xlink" xml:space="preserve" xmlns:serif="http://www.serif.com/" style="fill-rule:evenodd;clip-rule:evenodd;stroke-linejoin:round;stroke-miterlimit:1.41421;">
<g><path d="M1.127,12.313l0,-8.59l1.137,0l0,3.527l4.465,0l0,-3.527l1.136,0l0,8.589l-1.136,0l0,-4.048l-4.465,0l0,4.048l-1.137,0Z" style="fill-rule:nonzero;"/><path d="M14.873,11.299l0,1.014l-5.678,0c-0.008,-0.254 0.034,-0.499 0.123,-0.733c0.145,-0.387 0.376,-0.767 0.695,-1.142c0.318,-0.375 0.778,-0.809 1.38,-1.301c0.933,-0.766 1.564,-1.372 1.892,-1.82c0.328,-0.447 0.492,-0.87 0.492,-1.268c0,-0.418 -0.149,-0.771 -0.448,-1.058c-0.299,-0.287 -0.688,-0.43 -1.169,-0.43c-0.508,0 -0.914,0.152 -1.219,0.457c-0.304,0.304 -0.459,0.726 -0.462,1.265l-1.084,-0.111c0.074,-0.809 0.353,-1.425 0.837,-1.849c0.485,-0.424 1.135,-0.635 1.952,-0.635c0.824,0 1.476,0.228 1.957,0.685c0.48,0.457 0.72,1.023 0.72,1.699c0,0.344 -0.07,0.682 -0.211,1.014c-0.14,0.332 -0.374,0.682 -0.7,1.049c-0.326,0.367 -0.868,0.871 -1.626,1.511c-0.633,0.532 -1.039,0.892 -1.219,1.082c-0.179,0.189 -0.328,0.379 -0.445,0.571l4.213,0Z" style="fill-rule:nonzero;"/></g>
</svg>