<svg width="16" height="16" viewBox="0 0 16 16" version="1.1" xmlns="http://www.w3.org/2000/svg" xmlns:xlink="http://www.w3.org/1999/xlink" xml:space="preserve" xmlns:serif="http://www.serif.com/" style="fill-rule:evenodd;clip-rule:evenodd;stroke-linejoin:round;stroke-miterlimit:1.41421;"><g><path d="M1.127,12.313l0,-8.59l1.137,0l0,3.527l4.465,0l0,-3.527l1.136,0l0,8.589l-1.136,0l0,-4.048l-4.465,0l0,4.048l-1.137,0Z" style="fill-rule:nonzero;"/><path d="M9.336,10.045l1.055,-0.141c0.121,0.598 0.327,1.029 0.618,1.292c0.291,0.264 0.645,0.396 1.063,0.396c0.496,0 0.915,-0.172 1.257,-0.516c0.342,-0.344 0.513,-0.769 0.513,-1.277c0,-0.485 -0.158,-0.884 -0.475,-1.198c-0.316,-0.315 -0.719,-0.472 -1.207,-0.472c-0.199,0 -0.447,0.039 -0.744,0.117l0.117,-0.926c0.071,0.008 0.127,0.012 0.17,0.012c0.449,0 0.854,-0.117 1.213,-0.352c0.359,-0.234 0.539,-0.595 0.539,-1.084c0,-0.386 -0.131,-0.707 -0.393,-0.96c-0.261,-0.254 -0.599,-0.381 -1.013,-0.381c-0.41,0 -0.752,0.129 -1.026,0.386c-0.273,0.258 -0.449,0.645 -0.527,1.161l-1.055,-0.188c0.129,-0.707 0.422,-1.255 0.879,-1.643c0.457,-0.389 1.026,-0.583 1.705,-0.583c0.469,0 0.901,0.1 1.295,0.301c0.395,0.201 0.697,0.476 0.906,0.824c0.209,0.347 0.313,0.716 0.313,1.107c0,0.371 -0.1,0.709 -0.299,1.014c-0.199,0.304 -0.494,0.546 -0.885,0.726c0.508,0.117 0.903,0.361 1.184,0.73c0.281,0.369 0.422,0.831 0.422,1.385c0,0.75 -0.274,1.386 -0.82,1.908c-0.547,0.521 -1.239,0.782 -2.075,0.782c-0.754,0 -1.379,-0.225 -1.878,-0.674c-0.498,-0.449 -0.782,-1.031 -0.852,-1.746Z" style="fill-rule:nonzero;"/></g></svg>