<svg viewBox="0 0 17 17" fill="none" xmlns="http://www.w3.org/2000/svg">
<path d="M8.28201 0.109863C7.16876 0.109863 6.12937 0.320014 5.1638 0.740321C4.18687 1.14927 3.33774 1.71724 2.61641 2.44426C1.89507 3.17128 1.32425 4.01756 0.903946 4.98313C0.494998 5.96006 0.290527 6.99946 0.290527 8.10134C0.290527 9.21459 0.494998 10.254 0.903946 11.2196C1.32425 12.1965 1.89507 13.0456 2.61641 13.7669C3.33774 14.4883 4.18687 15.0591 5.1638 15.4794C6.12937 15.8997 7.16876 16.1099 8.28201 16.1099C9.39525 16.1099 10.4346 15.8997 11.4002 15.4794C12.3771 15.0591 13.2263 14.4883 13.9476 13.7669C14.6689 13.0456 15.2398 12.1965 15.6601 11.2196C16.069 10.254 16.2735 9.21459 16.2735 8.10134C16.2735 6.99946 16.069 5.96006 15.6601 4.98313C15.2398 4.01756 14.6689 3.17128 13.9476 2.44426C13.2263 1.71724 12.3771 1.14927 11.4002 0.740321C10.4346 0.320014 9.39525 0.109863 8.28201 0.109863ZM8.28201 14.6445C7.37323 14.6445 6.52127 14.4741 5.7261 14.1333C4.93092 13.7925 4.23799 13.3268 3.64729 12.7361C3.05659 12.1454 2.59085 11.4524 2.25006 10.6573C1.90927 9.86208 1.73888 9.01012 1.73888 8.10134C1.73888 7.19257 1.90927 6.34061 2.25006 5.54543C2.59085 4.75026 3.05659 4.05733 3.64729 3.46663C4.23799 2.87592 4.93092 2.41018 5.7261 2.06939C6.52127 1.7286 7.37323 1.55821 8.28201 1.55821C9.19078 1.55821 10.0427 1.7286 10.8379 2.06939C11.6331 2.41018 12.326 2.87592 12.9167 3.46663C13.5074 4.05733 13.9732 4.75026 14.314 5.54543C14.6547 6.34061 14.8251 7.19257 14.8251 8.10134C14.8251 9.01012 14.6547 9.86208 14.314 10.6573C13.9732 11.4524 13.5074 12.1454 12.9167 12.7361C12.326 13.3268 11.6331 13.7925 10.8379 14.1333C10.0427 14.4741 9.19078 14.6445 8.28201 14.6445ZM8.28201 7.38569C8.06617 7.38569 7.8901 7.45101 7.75379 7.58164C7.61747 7.71228 7.54931 7.88551 7.54931 8.10134L7.54931 11.0151C7.54931 11.2309 7.61747 11.407 7.75379 11.5433C7.8901 11.6796 8.06617 11.7478 8.28201 11.7478C8.49784 11.7478 8.67391 11.6796 8.81023 11.5433C8.94654 11.407 9.0147 11.2309 9.0147 11.0151L9.0147 8.10134C9.0147 7.88551 8.94654 7.71228 8.81023 7.58164C8.67391 7.45101 8.49784 7.38569 8.28201 7.38569ZM7.77083 4.69346C7.70267 4.76162 7.64871 4.83546 7.60895 4.91498C7.56919 4.99449 7.54931 5.09105 7.54931 5.20464C7.54931 5.30688 7.56919 5.39776 7.60895 5.47728C7.64871 5.55679 7.70267 5.63631 7.77083 5.71583C7.85034 5.78399 7.92702 5.8351 8.00086 5.86918C8.0747 5.90326 8.16841 5.9203 8.28201 5.9203C8.3956 5.9203 8.48932 5.90326 8.56316 5.86918C8.637 5.8351 8.71367 5.78399 8.79319 5.71583C8.86135 5.63631 8.91531 5.55679 8.95506 5.47728C8.99482 5.39776 9.0147 5.30688 9.0147 5.20464C9.0147 5.09105 8.99482 4.99449 8.95506 4.91498C8.91531 4.83546 8.86135 4.76162 8.79319 4.69346C8.64551 4.54579 8.47512 4.47195 8.28201 4.47195C8.08889 4.47195 7.9185 4.54579 7.77083 4.69346Z" fill="#36474B"/>
</svg>
