<svg width="16" height="16" viewBox="0 0 16 16" fill="none" xmlns="http://www.w3.org/2000/svg">
<path fill-rule="evenodd" clip-rule="evenodd" d="M8.33317 14.5C8.13426 14.5 7.94349 14.421 7.80284 14.2803L3.21951 9.697C2.92662 9.4041 2.92662 8.92923 3.21951 8.63634C3.5124 8.34344 3.98727 8.34344 4.28017 8.63634L8.33317 12.6893L12.3862 8.63634C12.6791 8.34344 13.1539 8.34344 13.4468 8.63634C13.7397 8.92923 13.7397 9.4041 13.4468 9.697L8.8635 14.2803C8.72285 14.421 8.53208 14.5 8.33317 14.5Z" fill="#111111"/>
<path fill-rule="evenodd" clip-rule="evenodd" d="M8.86399 7.86364C8.5711 8.15654 8.09622 8.15654 7.80333 7.86364L3.22 3.28031C2.9271 2.98742 2.9271 2.51254 3.22 2.21965C3.51289 1.92676 3.98776 1.92676 4.28066 2.21965L8.33366 6.27265L12.3867 2.21965C12.6796 1.92676 13.1544 1.92676 13.4473 2.21965C13.7402 2.51254 13.7402 2.98742 13.4473 3.28031L8.86399 7.86364Z" fill="#111111"/>
</svg>
