<svg clip-rule="evenodd" fill-rule="evenodd" stroke-linejoin="round" stroke-miterlimit="1.41421" viewBox="0 0 16 16" xmlns="http://www.w3.org/2000/svg"><g fill-rule="nonzero"><path d="m12.05 2.909c.504.049.608.939 0 .998-1.742.056-3.488.056-5.23 0-.488-.047-.656-.935 0-.998 1.742-.056 3.488-.056 5.23 0z"/><path d="m9.18 12.093c.488.047.656.935 0 .998-1.742.056-3.488.056-5.23 0-.502-.048-.589-.941 0-.998 1.742-.056 3.488-.056 5.23 0z"/><path d="m9.753 2.909c.311.032.522.33.45.634-1.021 3.121-2.304 6.15-3.457 9.225-.203.479-1.084.261-.949-.311 1.021-3.121 2.304-6.15 3.457-9.225.083-.197.175-.329.499-.323z"/></g></svg>