<svg width="16" height="16" viewBox="0 0 16 16" version="1.1" xmlns="http://www.w3.org/2000/svg" xmlns:xlink="http://www.w3.org/1999/xlink" xml:space="preserve" xmlns:serif="http://www.serif.com/" style="fill-rule:evenodd;clip-rule:evenodd;stroke-linejoin:round;stroke-miterlimit:1.41421;">
    <path d="M11.319,0.926c2.958,0.057 5.191,4.08 2.77,6.649c-1.621,1.621 -3.342,3.46 -5.484,3.047c-1.493,-0.288 -2.938,-1.556 -2.402,-2.282c0.418,-0.567 1.126,0.273 1.808,0.678c0.982,0.583 2.331,0.425 3.162,-0.376c1.777,-1.756 4.143,-4.202 1.551,-5.96c-0.963,-0.653 -2.336,-0.557 -3.226,0.242c-0.892,0.841 -2.282,1.965 -2.279,0.689c0.001,-0.169 0.072,-0.331 0.193,-0.461l1.131,-1.124c0.746,-0.704 1.733,-1.108 2.776,-1.102Z" style="fill-rule:nonzero;"/>
    <path d="M6.784,5.456c1.198,0.027 2.355,0.613 3.081,1.569c0,0 -0.045,1.983 -1.14,0.666c-0.93,-1.084 -2.76,-1.211 -3.825,-0.184c-1.776,1.755 -4.143,4.201 -1.551,5.959c0.983,0.666 2.394,0.543 3.271,-0.284l1.111,-1.111c0.5,-0.466 1.531,0.273 0.925,0.924l-1.125,1.125c-2.122,2 -6.515,0.734 -6.646,-2.67c-0.074,-1.906 1.594,-3.426 3.137,-4.913c0.741,-0.697 1.747,-1.088 2.762,-1.081Z" style="fill-rule:nonzero;"/>
</svg>
