<svg width="16" height="16" viewBox="0 0 16 16" fill="none" xmlns="http://www.w3.org/2000/svg">
<path fill-rule="evenodd" clip-rule="evenodd" d="M10.7997 6.19922C9.8184 6.19922 8.87726 6.58905 8.18335 7.28296C7.48944 7.97687 7.09961 8.91801 7.09961 9.89935V14.2995H8.89969V9.89935C8.89969 9.39542 9.09988 8.91214 9.4562 8.55581C9.81253 8.19949 10.2958 7.9993 10.7997 7.9993C11.3037 7.9993 11.7869 8.19949 12.1433 8.55581C12.4996 8.91214 12.6998 9.39542 12.6998 9.89935V14.2995H14.4999V9.89935C14.4999 8.91801 14.11 7.97687 13.4161 7.28296C12.7222 6.58905 11.7811 6.19922 10.7997 6.19922ZM10.7997 5.19922C9.55319 5.19922 8.35769 5.69441 7.47625 6.57585C6.5948 7.4573 6.09961 8.6528 6.09961 9.89935V14.7995C6.09961 15.0756 6.32347 15.2995 6.59961 15.2995H9.39969C9.67584 15.2995 9.89969 15.0756 9.89969 14.7995V9.89935C9.89969 9.66064 9.99452 9.43171 10.1633 9.26292C10.3321 9.09413 10.561 8.9993 10.7997 8.9993C11.0384 8.9993 11.2674 9.09413 11.4362 9.26292C11.605 9.43171 11.6998 9.66064 11.6998 9.89935V14.7995C11.6998 15.0756 11.9236 15.2995 12.1998 15.2995H14.9999C15.276 15.2995 15.4999 15.0756 15.4999 14.7995V9.89935C15.4999 8.6528 15.0047 7.4573 14.1232 6.57585C13.2418 5.69441 12.0463 5.19922 10.7997 5.19922Z" fill="#374B50"/>
<path fill-rule="evenodd" clip-rule="evenodd" d="M0.5 6.40039C0.5 6.12425 0.723858 5.90039 1 5.90039H3.80009C4.07623 5.90039 4.30009 6.12425 4.30009 6.40039V14.8006C4.30009 15.0768 4.07623 15.3006 3.80009 15.3006H1C0.723858 15.3006 0.5 15.0768 0.5 14.8006V6.40039ZM1.5 6.90039V14.3006H3.30009V6.90039H1.5Z" fill="#374B50"/>
<path fill-rule="evenodd" clip-rule="evenodd" d="M2.40004 2C1.90296 2 1.5 2.40296 1.5 2.90004C1.5 3.39712 1.90296 3.80009 2.40004 3.80009C2.89712 3.80009 3.30009 3.39712 3.30009 2.90004C3.30009 2.40296 2.89712 2 2.40004 2ZM0.5 2.90004C0.5 1.85068 1.35068 1 2.40004 1C3.44941 1 4.30009 1.85068 4.30009 2.90004C4.30009 3.94941 3.44941 4.80009 2.40004 4.80009C1.35068 4.80009 0.5 3.94941 0.5 2.90004Z" fill="#374B50"/>
</svg>
