<svg xmlns="http://www.w3.org/2000/svg" fill="none" viewBox="0 0 16 16">
  <path d="M10.7999 5.69922C11.9138 5.69922 12.9821 6.14173 13.7698 6.92941C14.5575 7.71708 15 8.7854 15 9.89935V14.7995H12.1999V9.89935C12.1999 9.52803 12.0524 9.17193 11.7898 8.90937C11.5273 8.64681 11.1712 8.4993 10.7999 8.4993C10.4285 8.4993 10.0724 8.64681 9.80988 8.90937C9.54732 9.17193 9.39982 9.52803 9.39982 9.89935V14.7995H6.59973V9.89935C6.59973 8.7854 7.04224 7.71708 7.82992 6.92941C8.6176 6.14173 9.68592 5.69922 10.7999 5.69922V5.69922Z"/>
  <path d="M1 6.40039H3.80009V14.8006H1V6.40039Z"/>
  <path d="M2.40004 4.30009C3.17327 4.30009 3.80009 3.67326 3.80009 2.90004C3.80009 2.12682 3.17327 1.5 2.40004 1.5C1.62682 1.5 1 2.12682 1 2.90004C1 3.67326 1.62682 4.30009 2.40004 4.30009Z"/>
</svg>
