<svg width="16" height="16" viewBox="0 0 16 16" fill="none" xmlns="http://www.w3.org/2000/svg">
<path fill-rule="evenodd" clip-rule="evenodd" d="M2.66634 3.16666C2.20915 3.16666 1.83301 3.5428 1.83301 3.99999V12C1.83301 12.4572 2.20915 12.8333 2.66634 12.8333H13.333C13.7902 12.8333 14.1663 12.4572 14.1663 12V3.99999C14.1663 3.5428 13.7902 3.16666 13.333 3.16666H2.66634ZM0.833008 3.99999C0.833008 2.99051 1.65687 2.16666 2.66634 2.16666H13.333C14.3425 2.16666 15.1663 2.99051 15.1663 3.99999V12C15.1663 13.0095 14.3425 13.8333 13.333 13.8333H2.66634C1.65687 13.8333 0.833008 13.0095 0.833008 12V3.99999Z" fill="#374B50"/>
<path fill-rule="evenodd" clip-rule="evenodd" d="M0.923435 3.71327C1.08179 3.48704 1.39356 3.43202 1.61978 3.59038L7.99972 8.05634L14.3797 3.59038C14.6059 3.43202 14.9176 3.48704 15.076 3.71327C15.2344 3.93949 15.1793 4.25126 14.9531 4.40961L8.28645 9.07628C8.11429 9.19679 7.88515 9.19679 7.71299 9.07628L1.04632 4.40961C0.820095 4.25126 0.765078 3.93949 0.923435 3.71327Z" fill="#374B50"/>
</svg>
