<svg width="16" height="16" viewBox="0 0 16 16" fill="none" xmlns="http://www.w3.org/2000/svg">
<path d="M13.4139 12.2606C13.4139 12.4494 13.2861 12.5856 13.1028 12.5856C12.9139 12.5856 12.7917 12.4411 12.7917 12.2606C12.7917 12.08 12.9139 11.9356 13.1028 11.9356C13.2861 11.9356 13.4139 12.08 13.4139 12.2606ZM4.78056 11.9356C4.58333 11.9356 4.46944 12.08 4.46944 12.2606C4.46944 12.4411 4.58333 12.5856 4.78056 12.5856C4.96111 12.5856 5.08333 12.4494 5.08333 12.2606C5.08056 12.08 4.96111 11.9356 4.78056 11.9356ZM8.04444 11.9272C7.89444 11.9272 7.80278 12.0244 7.78056 12.1689H8.31111C8.28611 12.0106 8.18889 11.9272 8.04444 11.9272ZM11.0389 11.9356C10.85 11.9356 10.7361 12.08 10.7361 12.2606C10.7361 12.4411 10.85 12.5856 11.0389 12.5856C11.2278 12.5856 11.35 12.4494 11.35 12.2606C11.35 12.08 11.2278 11.9356 11.0389 11.9356ZM13.9806 12.6606C13.9806 12.6689 13.9889 12.6744 13.9889 12.6911C13.9889 12.6994 13.9806 12.705 13.9806 12.7217C13.9722 12.73 13.9722 12.7356 13.9667 12.7439C13.9583 12.7522 13.9528 12.7578 13.9361 12.7578C13.9278 12.7661 13.9222 12.7661 13.9056 12.7661C13.8972 12.7661 13.8917 12.7661 13.875 12.7578C13.8667 12.7578 13.8611 12.7494 13.8528 12.7439C13.8444 12.7356 13.8389 12.73 13.8389 12.7217C13.8306 12.7078 13.8306 12.6994 13.8306 12.6911C13.8306 12.6772 13.8306 12.6689 13.8389 12.6606C13.8389 12.6467 13.8472 12.6383 13.8528 12.63C13.8611 12.6217 13.8667 12.6217 13.875 12.6161C13.8889 12.6078 13.8972 12.6078 13.9056 12.6078C13.9194 12.6078 13.9278 12.6078 13.9361 12.6161C13.95 12.6244 13.9583 12.6244 13.9667 12.63C13.975 12.6356 13.9722 12.6467 13.9806 12.6606ZM13.9194 12.6994C13.9333 12.6994 13.9333 12.6911 13.9417 12.6911C13.95 12.6828 13.95 12.6772 13.95 12.6689C13.95 12.6606 13.95 12.655 13.9417 12.6467C13.9333 12.6467 13.9278 12.6383 13.9111 12.6383H13.8667V12.7356H13.8889V12.6967H13.8972L13.9278 12.7356H13.95L13.9194 12.6994V12.6994ZM16 3.11333V12.8911C16 13.6272 15.4028 14.2244 14.6667 14.2244H1.33333C0.597222 14.2244 0 13.6272 0 12.8911V3.11333C0 2.37722 0.597222 1.78 1.33333 1.78H14.6667C15.4028 1.78 16 2.37722 16 3.11333ZM1.77778 6.99111C1.77778 9.11611 3.50278 10.8383 5.625 10.8383C6.38056 10.8383 7.12222 10.6106 7.75 10.1967C5.725 8.54944 5.73889 5.44111 7.75 3.79389C7.12222 3.37722 6.38056 3.15222 5.625 3.15222C3.50278 3.14944 1.77778 4.87444 1.77778 6.99111ZM8 10.0133C9.95833 8.48555 9.95 5.50778 8 3.97167C6.05 5.50778 6.04167 8.48833 8 10.0133ZM4.04722 12.1328C4.04722 11.8911 3.88889 11.7328 3.63889 11.7244C3.51111 11.7244 3.375 11.7633 3.28333 11.905C3.21667 11.7911 3.10278 11.7244 2.94444 11.7244C2.83889 11.7244 2.73333 11.7633 2.65 11.8744V11.7522H2.42222V12.7717H2.65C2.65 12.2467 2.58056 11.9328 2.9 11.9328C3.18333 11.9328 3.12778 12.2161 3.12778 12.7717H3.34722C3.34722 12.2633 3.27778 11.9328 3.59722 11.9328C3.88056 11.9328 3.825 12.2106 3.825 12.7717H4.05278V12.1328H4.04722ZM5.29444 11.7522H5.075V11.8744C5 11.7828 4.89444 11.7244 4.75 11.7244C4.46389 11.7244 4.24444 11.9522 4.24444 12.2606C4.24444 12.5717 4.46389 12.7967 4.75 12.7967C4.89444 12.7967 5 12.7439 5.075 12.6467V12.7744H5.29444V11.7522ZM6.41944 12.4633C6.41944 12.0467 5.78333 12.2356 5.78333 12.0411C5.78333 11.8828 6.11389 11.9078 6.29722 12.0106L6.38889 11.83C6.12778 11.6606 5.55 11.6633 5.55 12.0578C5.55 12.455 6.18611 12.2883 6.18611 12.4744C6.18611 12.6494 5.81111 12.6356 5.61111 12.4967L5.51389 12.6717C5.825 12.8828 6.41944 12.8383 6.41944 12.4633V12.4633ZM7.40278 12.7217L7.34167 12.5328C7.23611 12.5911 7.00278 12.655 7.00278 12.4189V11.9578H7.36667V11.7522H7.00278V11.4411H6.775V11.7522H6.56389V11.955H6.775V12.4189C6.775 12.9078 7.25556 12.8189 7.40278 12.7217V12.7217ZM7.77222 12.3494H8.53611C8.53611 11.8994 8.33056 11.7217 8.05278 11.7217C7.75833 11.7217 7.54722 11.9411 7.54722 12.2578C7.54722 12.8272 8.175 12.9217 8.48611 12.6522L8.38056 12.4856C8.16389 12.6633 7.83611 12.6467 7.77222 12.3494V12.3494ZM9.41389 11.7522C9.28611 11.6967 9.09167 11.7022 8.99167 11.8744V11.7522H8.76389V12.7717H8.99167V12.1967C8.99167 11.8744 9.25556 11.9161 9.34722 11.9633L9.41389 11.7522V11.7522ZM9.70833 12.2606C9.70833 11.9439 10.0306 11.8411 10.2833 12.0272L10.3889 11.8467C10.0667 11.5939 9.48056 11.7328 9.48056 12.2633C9.48056 12.8133 10.1028 12.9244 10.3889 12.68L10.2833 12.4994C10.0278 12.68 9.70833 12.5717 9.70833 12.2606ZM11.5611 11.7522H11.3333V11.8744C11.1028 11.5689 10.5028 11.7411 10.5028 12.2606C10.5028 12.7939 11.125 12.9467 11.3333 12.6467V12.7744H11.5611V11.7522V11.7522ZM12.4972 11.7522C12.4306 11.7189 12.1917 11.6717 12.075 11.8744V11.7522H11.8556V12.7717H12.075V12.1967C12.075 11.8911 12.325 11.9106 12.4306 11.9633L12.4972 11.7522V11.7522ZM13.6167 11.3383H13.3972V11.8744C13.1694 11.5717 12.5667 11.7328 12.5667 12.2606C12.5667 12.7994 13.1917 12.9439 13.3972 12.6467V12.7744H13.6167V11.3383ZM13.8278 9.25222V9.38H13.85V9.25222H13.9028V9.23H13.775V9.25222H13.8278V9.25222ZM14.0111 12.6911C14.0111 12.6772 14.0111 12.6606 14.0028 12.6467C13.9944 12.6383 13.9889 12.6244 13.9806 12.6161C13.9722 12.6078 13.9583 12.6022 13.95 12.5939C13.9361 12.5939 13.9194 12.5856 13.9056 12.5856C13.8972 12.5856 13.8833 12.5939 13.8667 12.5939C13.8528 12.6022 13.8444 12.6078 13.8361 12.6161C13.8222 12.6244 13.8139 12.6383 13.8139 12.6467C13.8056 12.6606 13.8056 12.6772 13.8056 12.6911C13.8056 12.6994 13.8056 12.7133 13.8139 12.73C13.8139 12.7383 13.8222 12.7522 13.8361 12.7606C13.8444 12.7689 13.85 12.7744 13.8667 12.7828C13.8806 12.7911 13.8972 12.7911 13.9056 12.7911C13.9194 12.7911 13.9361 12.7911 13.95 12.7828C13.9583 12.7744 13.9722 12.7689 13.9806 12.7606C13.9889 12.7522 13.9944 12.7383 14.0028 12.73C14.0111 12.7133 14.0111 12.6994 14.0111 12.6911ZM14.1 9.22722H14.0611L14.0167 9.32444L13.9722 9.22722H13.9333V9.37722H13.9556V9.26333L14 9.36055H14.0306L14.0694 9.26333V9.37722H14.1V9.22722V9.22722ZM14.2222 6.99111C14.2222 4.87444 12.4972 3.14944 10.375 3.14944C9.61944 3.14944 8.87778 3.37722 8.25 3.79111C10.2528 5.43833 10.2833 8.555 8.25 10.1939C8.87778 10.6106 9.625 10.8356 10.375 10.8356C12.4972 10.8383 14.2222 9.11611 14.2222 6.99111V6.99111Z" fill="#374B50"/>
</svg>
