<svg xmlns="http://www.w3.org/2000/svg" viewBox="0 0 16 16">
  <path d="M15.2 6.8H0.8C0.6 6.8 0.4 6.9 0.2 7 0.1 7.2 0 7.3 0 7.6 0 7.8 0.1 8 0.2 8.2 0.4 8.3 0.6 8.4 0.8 8.4H15.2C15.4 8.4 15.6 8.3 15.8 8.2 15.9 8 16 7.8 16 7.6 16 7.3 15.9 7.2 15.8 7 15.6 6.9 15.4 6.8 15.2 6.8ZM0.8 3.6H15.2C15.4 3.6 15.6 3.5 15.8 3.4 15.9 3.2 16 3 16 2.8 16 2.5 15.9 2.4 15.8 2.2 15.6 2.1 15.4 2 15.2 2H0.8C0.6 2 0.4 2.1 0.2 2.2 0.1 2.4 0 2.5 0 2.8 0 3 0.1 3.2 0.2 3.4 0.4 3.5 0.6 3.6 0.8 3.6ZM15.2 11.6H0.8C0.6 11.6 0.4 11.7 0.2 11.8 0.1 12 0 12.1 0 12.4 0 12.6 0.1 12.8 0.2 13 0.4 13.1 0.6 13.2 0.8 13.2H15.2C15.4 13.2 15.6 13.1 15.8 13 15.9 12.8 16 12.6 16 12.4 16 12.1 15.9 12 15.8 11.8 15.6 11.7 15.4 11.6 15.2 11.6Z"/>
</svg>