<svg width="16" height="16" viewBox="0 0 16 16" fill="none" xmlns="http://www.w3.org/2000/svg">
<path d="M13.261 7.23432C9.75367 7.23432 6.24633 7.23432 2.739 7.23432C2.51613 7.23432 2.33724 7.30167 2.20235 7.43637C2.06745 7.57107 2 7.74969 2 7.97224C2 8.2065 2.06745 8.39098 2.20235 8.52568C2.33724 8.66038 2.51613 8.72773 2.739 8.72773C6.24633 8.72773 9.75367 8.72773 13.261 8.72773C13.4839 8.72773 13.6628 8.66038 13.7977 8.52568C13.9326 8.39098 14 8.2065 14 7.97224C14 7.74969 13.9326 7.57107 13.7977 7.43637C13.6628 7.30167 13.4839 7.23432 13.261 7.23432Z" fill="#374B50"/>
</svg>
