<svg viewBox="0 0 16 16" xmlns="http://www.w3.org/2000/svg">
<path d="M8 0C6.88562 0 5.84509 0.210151 4.87842 0.630458C3.90051 1.03941 3.05042 1.60738 2.32837 2.3344C1.6062 3.06142 1.03479 3.9077 0.614014 4.87327C0.204712 5.8502 0 6.88959 0 7.99148C0 9.10473 0.204712 10.1441 0.614014 11.1097C1.03479 12.0866 1.6062 12.9357 2.32837 13.6571C3.05042 14.3784 3.90051 14.9492 4.87842 15.3695C5.84509 15.7898 6.88562 16 8 16C9.11438 16 10.1549 15.7898 11.1216 15.3695C12.0995 14.9492 12.9496 14.3784 13.6716 13.6571C14.3938 12.9357 14.9652 12.0866 15.386 11.1097C15.7953 10.1441 16 9.10473 16 7.99148C16 6.88959 15.7953 5.8502 15.386 4.87327C14.9652 3.9077 14.3938 3.06142 13.6716 2.3344C12.9496 1.60738 12.0995 1.03941 11.1216 0.630458C10.1549 0.210151 9.11438 0 8 0ZM8 6.89757L10.0396 4.84202C10.1924 4.70076 10.3778 4.625 10.5857 4.625C10.7936 4.625 10.9789 4.70093 11.1317 4.84219L11.139 4.84898C11.2904 5.00057 11.375 5.18836 11.375 5.40264C11.375 5.6169 11.2903 5.80453 11.1389 5.95611L9.10571 7.99372L11.1389 10.0313C11.2902 10.1829 11.375 10.3705 11.375 10.5848C11.375 10.7991 11.2902 10.9867 11.1389 11.1383C11.0566 11.2207 10.9606 11.2842 10.8508 11.323C10.7651 11.3533 10.6747 11.375 10.5857 11.375C10.4967 11.375 10.4062 11.3533 10.3206 11.323C10.2108 11.2842 10.1147 11.2207 10.0325 11.1383L8 9.10142L5.96753 11.1383C5.89551 11.2103 5.81543 11.273 5.7262 11.3142C5.62854 11.3593 5.52075 11.375 5.41431 11.375C5.30786 11.375 5.20007 11.3593 5.10242 11.3142C5.01318 11.273 4.93311 11.2104 4.86108 11.1383C4.70984 10.9867 4.625 10.7991 4.625 10.5848C4.625 10.3705 4.70984 10.1829 4.86108 10.0313L6.89429 7.99372L4.86108 5.95615C4.70984 5.80458 4.625 5.61689 4.625 5.40264C4.625 5.18836 4.70984 5.00071 4.86108 4.84912L4.86816 4.84205C5.021 4.70078 5.20642 4.625 5.41431 4.625C5.62219 4.625 5.8075 4.70093 5.96033 4.84219L5.96814 4.8495L8 6.89757Z" />
</svg>
