<svg width="16" height="16" viewBox="0 0 16 16" version="1.1" xmlns="http://www.w3.org/2000/svg" xmlns:xlink="http://www.w3.org/1999/xlink" xml:space="preserve" xmlns:serif="http://www.serif.com/" style="fill-rule:evenodd;clip-rule:evenodd;stroke-linejoin:round;stroke-miterlimit:1.41421;">
<path d="M4.466,12.867c0,0.36 -0.123,0.645 -0.369,0.852c-0.246,0.207 -0.551,0.311 -0.916,0.311c-0.478,0 -0.866,-0.149 -1.164,-0.446l0.386,-0.596c0.221,0.203 0.46,0.305 0.717,0.305c0.131,0 0.244,-0.033 0.341,-0.098c0.097,-0.066 0.146,-0.161 0.146,-0.288c0,-0.288 -0.237,-0.415 -0.71,-0.378l-0.176,-0.379c0.036,-0.045 0.109,-0.143 0.22,-0.295c0.11,-0.151 0.206,-0.272 0.287,-0.365c0.081,-0.092 0.165,-0.179 0.25,-0.26l0,-0.007c-0.072,0 -0.181,0.002 -0.328,0.007c-0.146,0.004 -0.256,0.007 -0.328,0.007l0,0.358l-0.717,0l0,-1.028l2.253,0l0,0.595l-0.643,0.778c0.23,0.054 0.413,0.165 0.548,0.331c0.135,0.167 0.203,0.366 0.203,0.596Zm0.013,-4.241l0,1.075l-2.448,0c-0.027,-0.162 -0.041,-0.284 -0.041,-0.365c0,-0.23 0.053,-0.44 0.159,-0.629c0.106,-0.19 0.233,-0.343 0.382,-0.46c0.149,-0.117 0.298,-0.224 0.447,-0.321c0.149,-0.097 0.276,-0.195 0.382,-0.295c0.106,-0.099 0.159,-0.2 0.159,-0.304c0,-0.113 -0.033,-0.2 -0.098,-0.26c-0.066,-0.061 -0.155,-0.092 -0.267,-0.092c-0.208,0 -0.39,0.131 -0.548,0.393l-0.575,-0.4c0.108,-0.229 0.269,-0.409 0.483,-0.537c0.215,-0.129 0.452,-0.193 0.714,-0.193c0.329,0 0.606,0.094 0.832,0.281c0.225,0.187 0.338,0.44 0.338,0.761c0,0.225 -0.076,0.431 -0.23,0.619c-0.153,0.187 -0.322,0.332 -0.507,0.436c-0.185,0.104 -0.355,0.217 -0.511,0.341c-0.155,0.124 -0.235,0.243 -0.24,0.356l0.859,0l0,-0.406l0.71,0Zm9.531,2.157l0,1.299c0,0.059 -0.022,0.109 -0.064,0.152c-0.043,0.043 -0.094,0.065 -0.153,0.065l-8.225,0c-0.058,0 -0.109,-0.022 -0.152,-0.065c-0.043,-0.043 -0.064,-0.093 -0.064,-0.152l0,-1.299c0,-0.063 0.02,-0.115 0.061,-0.155c0.04,-0.041 0.092,-0.061 0.155,-0.061l8.225,0c0.059,0 0.11,0.021 0.153,0.064c0.042,0.043 0.064,0.094 0.064,0.152Zm-9.524,-6.08l0,0.669l-2.266,0l0,-0.669l0.724,0c0,-0.185 0.001,-0.459 0.003,-0.822c0.003,-0.363 0.004,-0.637 0.004,-0.822l0,-0.081l-0.014,0c-0.036,0.076 -0.149,0.198 -0.338,0.365l-0.48,-0.514l0.92,-0.859l0.717,0l0,2.733l0.73,0Zm9.524,2.617l0,1.299c0,0.059 -0.022,0.109 -0.064,0.152c-0.043,0.043 -0.094,0.064 -0.153,0.064l-8.225,0c-0.058,0 -0.109,-0.021 -0.152,-0.064c-0.043,-0.043 -0.064,-0.093 -0.064,-0.152l0,-1.299c0,-0.063 0.02,-0.115 0.061,-0.155c0.04,-0.041 0.092,-0.061 0.155,-0.061l8.225,0c0.059,0 0.11,0.021 0.153,0.064c0.042,0.043 0.064,0.094 0.064,0.152Zm0,-3.463l0,1.299c0,0.058 -0.022,0.109 -0.064,0.152c-0.043,0.043 -0.094,0.064 -0.153,0.064l-8.225,0c-0.058,0 -0.109,-0.021 -0.152,-0.064c-0.043,-0.043 -0.064,-0.094 -0.064,-0.152l0,-1.299c0,-0.059 0.021,-0.109 0.064,-0.152c0.043,-0.043 0.094,-0.064 0.152,-0.064l8.225,0c0.059,0 0.11,0.021 0.153,0.064c0.042,0.043 0.064,0.093 0.064,0.152Z" style="fill-rule:nonzero;"/>
</svg>