<svg width="16" height="16" viewBox="0 0 16 16" fill="none" xmlns="http://www.w3.org/2000/svg">
<path fill-rule="evenodd" clip-rule="evenodd" d="M8 0C6.88562 0 5.84509 0.210151 4.87842 0.630458C3.90051 1.03941 3.05042 1.60738 2.32837 2.3344C1.6062 3.06142 1.03479 3.9077 0.614014 4.87327C0.204712 5.8502 0 6.88959 0 7.99148C0 9.10473 0.204712 10.1441 0.614014 11.1097C1.03479 12.0866 1.6062 12.9357 2.32837 13.6571C3.05042 14.3784 3.90051 14.9492 4.87842 15.3695C5.84509 15.7898 6.88562 16 8 16C9.11438 16 10.1549 15.7898 11.1216 15.3695C12.0995 14.9492 12.9496 14.3784 13.6716 13.6571C14.3938 12.9357 14.9652 12.0866 15.386 11.1097C15.7953 10.1441 16 9.10473 16 7.99148C16 6.88959 15.7953 5.8502 15.386 4.87327C14.9652 3.9077 14.3938 3.06142 13.6716 2.3344C12.9496 1.60738 12.0995 1.03941 11.1216 0.630458C10.1549 0.210151 9.11438 0 8 0ZM11.7257 5.125C11.4889 5.125 11.2781 5.21099 11.103 5.37251L6.76636 9.7234L4.90503 7.84787L4.89697 7.84046C4.72192 7.67894 4.51111 7.59295 4.27429 7.59295C4.0376 7.59295 3.82654 7.67879 3.65161 7.84031L3.64453 7.84739C3.47095 8.02093 3.375 8.23401 3.375 8.47719C3.375 8.72024 3.47119 8.93351 3.64453 9.107L6.1427 11.6203L6.15027 11.6268C6.23352 11.6982 6.32068 11.7577 6.41211 11.7999C6.52075 11.85 6.64258 11.8682 6.76599 11.8682C6.8894 11.8682 7.01135 11.85 7.12 11.7999C7.2113 11.7577 7.29858 11.6982 7.38171 11.6268L7.38916 11.6204L12.3557 6.63879C12.5291 6.46529 12.625 6.2523 12.625 6.00925C12.625 5.76606 12.5292 5.55284 12.3556 5.3793L12.3483 5.37251C12.1732 5.21099 11.9624 5.125 11.7257 5.125Z" fill="#374B50"/>
</svg>