<svg width="16" height="16" viewBox="0 0 16 16" fill="none" xmlns="http://www.w3.org/2000/svg">
<path d="M14.0985 9.42184C13.7787 9.38758 13.4561 9.33333 13.1306 9.2591C12.8051 9.18487 12.4939 9.09636 12.197 8.99358C11.7973 8.84511 11.3919 8.81942 10.9807 8.91649C10.5696 9.01356 10.1984 9.21056 9.86724 9.50749L9.35332 10.0214C8.69093 9.57601 8.07424 9.07638 7.50321 8.52248C6.93219 7.96859 6.4297 7.34333 5.99572 6.64668L6.50964 6.13276C6.79515 5.84725 6.98644 5.48751 7.08351 5.05353C7.18059 4.61955 7.1606 4.20271 7.02355 3.803C6.90935 3.50607 6.81513 3.19772 6.7409 2.87794C6.66667 2.55817 6.61242 2.23269 6.57816 1.9015C6.50964 1.35332 6.2641 0.899359 5.84154 0.539615C5.41898 0.17987 4.93362 0 4.38544 0H2.19272C2.15846 0 2.12134 0 2.08137 0C2.0414 0 2.00428 0 1.97002 0C1.68451 0.0342615 1.41613 0.122769 1.16488 0.265525C0.913632 0.40828 0.696646 0.58815 0.513919 0.805139C0.331191 1.02213 0.199858 1.27052 0.119914 1.55032C0.0399711 1.83012 0 2.11849 0 2.41542C0.0571024 2.99786 0.148465 3.5803 0.27409 4.16274C0.411136 4.74518 0.579585 5.3162 0.779443 5.8758C0.979301 6.43541 1.21056 6.98358 1.47323 7.52034C1.7359 8.05711 2.02141 8.57102 2.32976 9.0621C2.6267 9.51892 2.94647 9.9586 3.28908 10.3812C3.63169 10.8151 3.99714 11.2263 4.38544 11.6146C4.77374 12.0029 5.18487 12.3683 5.61884 12.7109C6.0414 13.0535 6.48108 13.3733 6.9379 13.6702C7.42898 14.0014 7.94289 14.2984 8.47966 14.561C9.01642 14.8237 9.56745 15.0521 10.1328 15.2463C10.6981 15.4404 11.2662 15.6003 11.8373 15.7259C12.4197 15.863 13.0078 15.9543 13.6017 16C13.636 16 13.6702 16 13.7045 16C13.7388 16 13.773 16 13.8073 16C14.1042 16 14.3897 15.9458 14.6638 15.8373C14.9379 15.7288 15.1663 15.566 15.349 15.349C15.5318 15.132 15.6859 14.8951 15.8116 14.6381C15.9372 14.3812 16 14.1042 16 13.8073V11.6146C16 11.0664 15.8201 10.5839 15.4604 10.167C15.1006 9.75018 14.6467 9.50179 14.0985 9.42184ZM14.5439 11.6146V13.8073C14.5439 13.9215 14.5268 14.0186 14.4925 14.0985C14.4582 14.1784 14.4011 14.2527 14.3212 14.3212C14.2527 14.4011 14.1756 14.4582 14.0899 14.4925C14.0043 14.5268 13.8872 14.5439 13.7388 14.5439C13.2134 14.4868 12.6881 14.4011 12.1627 14.2869C11.6488 14.1727 11.1406 14.0243 10.6381 13.8415C10.1356 13.6588 9.63883 13.4532 9.14775 13.2248C8.66809 12.985 8.19986 12.7166 7.74304 12.4197C7.32048 12.1685 6.92077 11.8887 6.5439 11.5803C6.1556 11.2719 5.7873 10.9408 5.43897 10.5867C5.09065 10.2327 4.76231 9.86153 4.45396 9.47323C4.14561 9.08494 3.85439 8.67952 3.5803 8.25696C3.28337 7.80014 3.0207 7.33191 2.79229 6.85225C2.55246 6.37259 2.34404 5.88152 2.16702 5.37901C1.99001 4.87651 1.83869 4.3626 1.71306 3.83726C1.59886 3.32334 1.51321 2.798 1.4561 2.26124C1.4561 2.15846 1.47323 2.0671 1.50749 1.98715C1.54176 1.90721 1.57602 1.82727 1.61028 1.74732C1.6788 1.6788 1.76445 1.61313 1.86724 1.55032C1.97002 1.48751 2.07851 1.4561 2.19272 1.4561H4.38544C4.56817 1.4561 4.7252 1.52177 4.85653 1.6531C4.98787 1.78444 5.07637 1.94147 5.12206 2.1242C5.15632 2.48965 5.22484 2.86367 5.32762 3.24625C5.43041 3.62884 5.55603 3.98572 5.7045 4.31692C5.73876 4.46538 5.74161 4.60814 5.71306 4.74518C5.68451 4.88223 5.63026 5.00785 5.55032 5.12206L4.60814 5.99572C4.49393 6.0985 4.42256 6.23269 4.394 6.39829C4.36545 6.56388 4.38544 6.72091 4.45396 6.86938C4.72805 7.36046 5.0364 7.82869 5.37901 8.27409C5.71021 8.71949 6.0728 9.13918 6.46681 9.53319C6.86082 9.9272 7.28051 10.2955 7.72591 10.6381C8.17131 10.9693 8.63954 11.2719 9.13062 11.546C9.27909 11.626 9.43612 11.6574 9.60171 11.6403C9.76731 11.6231 9.9015 11.546 10.0043 11.409L10.9636 10.4497C11.0778 10.3469 11.2034 10.2784 11.3405 10.2441C11.4775 10.2098 11.6203 10.2327 11.7687 10.3126C12.1342 10.4497 12.4996 10.561 12.8651 10.6467C13.2306 10.7323 13.596 10.8151 13.9615 10.8951C14.1099 10.9293 14.2441 11.0121 14.364 11.1435C14.4839 11.2748 14.5439 11.4318 14.5439 11.6146Z" fill="#121F22" fill-opacity="0.2"/>
<path d="M14.0985 9.42184C13.7787 9.38758 13.4561 9.33333 13.1306 9.2591C12.8051 9.18487 12.4939 9.09636 12.197 8.99358C11.7973 8.84511 11.3919 8.81942 10.9807 8.91649C10.5696 9.01356 10.1984 9.21056 9.86724 9.50749L9.35332 10.0214C8.69093 9.57601 8.07424 9.07638 7.50321 8.52248C6.93219 7.96859 6.4297 7.34333 5.99572 6.64668L6.50964 6.13276C6.79515 5.84725 6.98644 5.48751 7.08351 5.05353C7.18059 4.61955 7.1606 4.20271 7.02355 3.803C6.90935 3.50607 6.81513 3.19772 6.7409 2.87794C6.66667 2.55817 6.61242 2.23269 6.57816 1.9015C6.50964 1.35332 6.2641 0.899359 5.84154 0.539615C5.41898 0.17987 4.93362 0 4.38544 0H2.19272C2.15846 0 2.12134 0 2.08137 0C2.0414 0 2.00428 0 1.97002 0C1.68451 0.0342615 1.41613 0.122769 1.16488 0.265525C0.913632 0.40828 0.696646 0.58815 0.513919 0.805139C0.331191 1.02213 0.199858 1.27052 0.119914 1.55032C0.0399711 1.83012 0 2.11849 0 2.41542C0.0571024 2.99786 0.148465 3.5803 0.27409 4.16274C0.411136 4.74518 0.579585 5.3162 0.779443 5.8758C0.979301 6.43541 1.21056 6.98358 1.47323 7.52034C1.7359 8.05711 2.02141 8.57102 2.32976 9.0621C2.6267 9.51892 2.94647 9.9586 3.28908 10.3812C3.63169 10.8151 3.99714 11.2263 4.38544 11.6146C4.77374 12.0029 5.18487 12.3683 5.61884 12.7109C6.0414 13.0535 6.48108 13.3733 6.9379 13.6702C7.42898 14.0014 7.94289 14.2984 8.47966 14.561C9.01642 14.8237 9.56745 15.0521 10.1328 15.2463C10.6981 15.4404 11.2662 15.6003 11.8373 15.7259C12.4197 15.863 13.0078 15.9543 13.6017 16C13.636 16 13.6702 16 13.7045 16C13.7388 16 13.773 16 13.8073 16C14.1042 16 14.3897 15.9458 14.6638 15.8373C14.9379 15.7288 15.1663 15.566 15.349 15.349C15.5318 15.132 15.6859 14.8951 15.8116 14.6381C15.9372 14.3812 16 14.1042 16 13.8073V11.6146C16 11.0664 15.8201 10.5839 15.4604 10.167C15.1006 9.75018 14.6467 9.50179 14.0985 9.42184ZM14.5439 11.6146V13.8073C14.5439 13.9215 14.5268 14.0186 14.4925 14.0985C14.4582 14.1784 14.4011 14.2527 14.3212 14.3212C14.2527 14.4011 14.1756 14.4582 14.0899 14.4925C14.0043 14.5268 13.8872 14.5439 13.7388 14.5439C13.2134 14.4868 12.6881 14.4011 12.1627 14.2869C11.6488 14.1727 11.1406 14.0243 10.6381 13.8415C10.1356 13.6588 9.63883 13.4532 9.14775 13.2248C8.66809 12.985 8.19986 12.7166 7.74304 12.4197C7.32048 12.1685 6.92077 11.8887 6.5439 11.5803C6.1556 11.2719 5.7873 10.9408 5.43897 10.5867C5.09065 10.2327 4.76231 9.86153 4.45396 9.47323C4.14561 9.08494 3.85439 8.67952 3.5803 8.25696C3.28337 7.80014 3.0207 7.33191 2.79229 6.85225C2.55246 6.37259 2.34404 5.88152 2.16702 5.37901C1.99001 4.87651 1.83869 4.3626 1.71306 3.83726C1.59886 3.32334 1.51321 2.798 1.4561 2.26124C1.4561 2.15846 1.47323 2.0671 1.50749 1.98715C1.54176 1.90721 1.57602 1.82727 1.61028 1.74732C1.6788 1.6788 1.76445 1.61313 1.86724 1.55032C1.97002 1.48751 2.07851 1.4561 2.19272 1.4561H4.38544C4.56817 1.4561 4.7252 1.52177 4.85653 1.6531C4.98787 1.78444 5.07637 1.94147 5.12206 2.1242C5.15632 2.48965 5.22484 2.86367 5.32762 3.24625C5.43041 3.62884 5.55603 3.98572 5.7045 4.31692C5.73876 4.46538 5.74161 4.60814 5.71306 4.74518C5.68451 4.88223 5.63026 5.00785 5.55032 5.12206L4.60814 5.99572C4.49393 6.0985 4.42256 6.23269 4.394 6.39829C4.36545 6.56388 4.38544 6.72091 4.45396 6.86938C4.72805 7.36046 5.0364 7.82869 5.37901 8.27409C5.71021 8.71949 6.0728 9.13918 6.46681 9.53319C6.86082 9.9272 7.28051 10.2955 7.72591 10.6381C8.17131 10.9693 8.63954 11.2719 9.13062 11.546C9.27909 11.626 9.43612 11.6574 9.60171 11.6403C9.76731 11.6231 9.9015 11.546 10.0043 11.409L10.9636 10.4497C11.0778 10.3469 11.2034 10.2784 11.3405 10.2441C11.4775 10.2098 11.6203 10.2327 11.7687 10.3126C12.1342 10.4497 12.4996 10.561 12.8651 10.6467C13.2306 10.7323 13.596 10.8151 13.9615 10.8951C14.1099 10.9293 14.2441 11.0121 14.364 11.1435C14.4839 11.2748 14.5439 11.4318 14.5439 11.6146Z" fill="#31B8DA" fill-opacity="0.1"/>
</svg>
