<svg width="16" height="16" viewBox="0 0 16 16" fill="none" xmlns="http://www.w3.org/2000/svg">
  <path fill-rule="evenodd" clip-rule="evenodd" d="M8 16C12.4183 16 16 12.4183 16 8C16 3.58172 12.4183 0 8 0C3.58167 0 0 3.58172 0 8C0 12.4183 3.58167 16 8 16ZM11.3312 7.41217L6.96912 4.51547C6.86682 4.43595 6.74756 4.39619 6.61133 4.39619C6.47498 4.39619 6.35571 4.43595 6.25342 4.51547C6.10571 4.54955 5.995 4.6177 5.92114 4.71994C5.84729 4.82218 5.81042 4.94713 5.81042 5.09481V10.9052C5.81042 11.0529 5.84448 11.1807 5.91272 11.2886C5.98083 11.3965 6.06604 11.4846 6.16821 11.5527C6.2478 11.5982 6.3103 11.6237 6.35571 11.6294C6.40112 11.6351 6.46362 11.6379 6.54309 11.6379C6.61133 11.6379 6.68225 11.6209 6.7561 11.5868C6.82996 11.5527 6.901 11.5187 6.96912 11.4846L11.3312 8.57085C11.4448 8.50269 11.5215 8.41749 11.5613 8.31525C11.601 8.21302 11.6208 8.1051 11.6208 7.99151C11.6208 7.88927 11.5924 7.78703 11.5356 7.6848C11.4789 7.58256 11.4108 7.49168 11.3312 7.41217Z" fill="#374B50"/>
</svg>
