<svg viewBox="0 0 16 16" fill="none" xmlns="http://www.w3.org/2000/svg">
<path d="M13.261 7.25329H8.7566V2.75549C8.7566 2.52123 8.68622 2.33675 8.54545 2.20205C8.40469 2.06735 8.22287 2 8 2C7.77712 2 7.59531 2.06735 7.45455 2.20205C7.31378 2.33675 7.2434 2.52123 7.2434 2.75549V7.25329H2.739C2.51613 7.25329 2.33724 7.32064 2.20235 7.45534C2.06745 7.59004 2 7.76867 2 7.99122C2 8.22548 2.06745 8.40996 2.20235 8.54466C2.33724 8.67936 2.51613 8.74671 2.739 8.74671H7.2434V13.2445C7.2434 13.4671 7.31378 13.6486 7.45455 13.7892C7.59531 13.9297 7.77712 14 8 14C8.22287 14 8.40469 13.9297 8.54545 13.7892C8.68622 13.6486 8.7566 13.4671 8.7566 13.2445V8.74671H13.261C13.4839 8.74671 13.6628 8.67936 13.7977 8.54466C13.9326 8.40996 14 8.22548 14 7.99122C14 7.76867 13.9326 7.59004 13.7977 7.45534C13.6628 7.32064 13.4839 7.25329 13.261 7.25329Z" fill="#36474B"/>
</svg>
