<svg width="16" height="16" viewBox="0 0 16 16" fill="none" xmlns="http://www.w3.org/2000/svg">
<path fill-rule="evenodd" clip-rule="evenodd" d="M4.08356 1.75L4.08359 14.25H11.9168V1.75L4.08356 1.75ZM13.4168 14.25V0.999999C13.4168 0.585786 13.081 0.25 12.6668 0.25L3.33356 0.250001C2.91934 0.250002 2.58356 0.585789 2.58356 0.999999L2.58359 14.25H2C1.58579 14.25 1.25 14.5858 1.25 15C1.25 15.4142 1.58579 15.75 2 15.75H3.33355C3.33351 15.75 3.33358 15.75 3.33355 15.75H14C14.4142 15.75 14.75 15.4142 14.75 15C14.75 14.5858 14.4142 14.25 14 14.25H13.4168Z" fill="#374B50"/>
<path fill-rule="evenodd" clip-rule="evenodd" d="M5.25 3.25H10.75V12.75H5.25V3.25ZM6.75 4.75V11.25H9.25V4.75H6.75Z" fill="#374B50"/>
</svg>
