<svg viewBox="0 0 16 16" fill="none" xmlns="http://www.w3.org/2000/svg">
<path d="M15.2089 11.3333V13.237H13.2911V11.3333H15.2089ZM15.2089 7.57031V9.42969H13.2911V7.57031H15.2089ZM17.1268 15.0964V5.66667H9.5V7.57031H11.4178V9.42969H9.5V11.3333H11.4178V13.237H9.5V15.0964H17.1268ZM7.58216 3.76302V1.90365H5.70892V3.76302H7.58216ZM7.58216 7.57031V5.66667H5.70892V7.57031H7.58216ZM7.58216 11.3333V9.42969H5.70892V11.3333H7.58216ZM7.58216 15.0964V13.237H5.70892V15.0964H7.58216ZM3.79108 3.76302V1.90365H1.87324V3.76302H3.79108ZM3.79108 7.57031V5.66667H1.87324V7.57031H3.79108ZM3.79108 11.3333V9.42969H1.87324V11.3333H3.79108ZM3.79108 15.0964V13.237H1.87324V15.0964H3.79108ZM9.5 3.76302H19V17H0V0H9.5V3.76302Z" fill="#B9C8CF"/>
</svg>
