<svg width="16" height="16" viewBox="0 0 16 16" fill="none" xmlns="http://www.w3.org/2000/svg">
<path fill-rule="evenodd" clip-rule="evenodd" d="M8.00033 1.25C8.19924 1.25 8.39 1.32902 8.53066 1.46967L13.114 6.053C13.4069 6.3459 13.4069 6.82077 13.114 7.11366C12.8211 7.40656 12.3462 7.40656 12.0533 7.11366L8.00033 3.06066L3.94732 7.11366C3.65443 7.40656 3.17956 7.40656 2.88666 7.11366C2.59377 6.82077 2.59377 6.3459 2.88666 6.053L7.47 1.46967C7.61065 1.32902 7.80141 1.25 8.00033 1.25Z" fill="#111111"/>
<path fill-rule="evenodd" clip-rule="evenodd" d="M7.46951 7.88634C7.7624 7.59345 8.23727 7.59345 8.53017 7.88634L13.1135 12.4697C13.4064 12.7626 13.4064 13.2374 13.1135 13.5303C12.8206 13.8232 12.3457 13.8232 12.0528 13.5303L7.99984 9.47733L3.94683 13.5303C3.65394 13.8232 3.17907 13.8232 2.88617 13.5303C2.59328 13.2374 2.59328 12.7626 2.88617 12.4697L7.46951 7.88634Z" fill="#111111"/>
</svg>
