<svg width="16" height="16" viewBox="0 0 16 16" fill="none" xmlns="http://www.w3.org/2000/svg">
<path fill-rule="evenodd" clip-rule="evenodd" d="M6.66683 5.25C6.06852 5.25 5.5835 5.73502 5.5835 6.33333L5.5835 8.66704C5.58299 9.00692 5.74203 9.32734 6.01304 9.53246C6.28404 9.73758 6.63561 9.80362 6.96258 9.71083C7.09541 9.67314 7.23364 9.75026 7.27133 9.88308C7.30903 10.0159 7.23191 10.1541 7.09908 10.1918C6.6212 10.3275 6.10737 10.2309 5.71128 9.93114C5.31525 9.63139 5.08282 9.16317 5.0835 8.66649C5.0835 8.66643 5.0835 8.66656 5.0835 8.66649V6.33333C5.0835 5.45888 5.79238 4.75 6.66683 4.75C7.54128 4.75 8.25016 5.45888 8.25016 6.33333V8.37533C8.25016 8.5134 8.13823 8.62533 8.00016 8.62533C7.86209 8.62533 7.75016 8.5134 7.75016 8.37533V6.33333C7.75016 5.73502 7.26514 5.25 6.66683 5.25Z" fill="#374B50"/>
<path fill-rule="evenodd" clip-rule="evenodd" d="M9.33333 5.25C8.73503 5.25 8.25 5.73502 8.25 6.33333V8.33333C8.25 8.4714 8.13807 8.58333 8 8.58333C7.86193 8.58333 7.75 8.4714 7.75 8.33333V6.33333C7.75 5.45888 8.45888 4.75 9.33333 4.75C10.2078 4.75 10.9167 5.45888 10.9167 6.33333V8.33333C10.9167 8.4714 10.8047 8.58333 10.6667 8.58333C10.5286 8.58333 10.4167 8.4714 10.4167 8.33333V6.33333C10.4167 5.73502 9.93164 5.25 9.33333 5.25Z" fill="#374B50"/>
<path fill-rule="evenodd" clip-rule="evenodd" d="M10.4167 1.66683C10.4167 0.792379 11.1256 0.0834961 12.0001 0.0834961C12.8745 0.0834961 13.5834 0.792379 13.5834 1.66683V10.7855C13.5834 10.9236 13.4715 11.0355 13.3334 11.0355C13.1953 11.0355 13.0834 10.9236 13.0834 10.7855V1.66683C13.0834 1.06852 12.5984 0.583496 12.0001 0.583496C11.4018 0.583496 10.9167 1.06852 10.9167 1.66683V6.3335C10.9167 6.47157 10.8048 6.5835 10.6667 6.5835C10.5287 6.5835 10.4167 6.47157 10.4167 6.3335V1.66683Z" fill="#374B50"/>
<path fill-rule="evenodd" clip-rule="evenodd" d="M4.00008 1.91699C3.40177 1.91699 2.91675 2.40202 2.91675 3.00033V10.3337C2.91675 13.1411 5.19263 15.417 8.00008 15.417C9.53898 15.417 10.8098 14.7527 11.6985 13.8356C12.5905 12.9151 13.082 11.7566 13.0834 10.7899C13.0583 10.0916 12.7032 9.44659 12.1263 9.05201L12.121 9.04832C11.7032 8.7465 11.2009 8.58393 10.6854 8.58366C10.6854 8.58366 10.6855 8.58366 10.6854 8.58366H8.33341C7.73511 8.58366 7.25008 9.06869 7.25008 9.66699C7.25008 10.2653 7.73511 10.7503 8.33341 10.7503H10.6667C10.8048 10.7503 10.9167 10.8623 10.9167 11.0003C10.9167 11.1384 10.8048 11.2503 10.6667 11.2503C9.33206 11.2503 8.25008 12.3323 8.25008 13.667C8.25008 13.8051 8.13815 13.917 8.00008 13.917C7.86201 13.917 7.75008 13.8051 7.75008 13.667C7.75008 12.6614 8.25896 11.7747 9.03323 11.2503H8.33341C7.45896 11.2503 6.75008 10.5414 6.75008 9.66699C6.75008 8.79254 7.45896 8.08366 8.33341 8.08366H10.6854C11.3049 8.08395 11.9087 8.27898 12.4112 8.64113C13.119 9.12648 13.5541 9.91933 13.5833 10.7772C13.5834 10.78 13.5834 10.7828 13.5834 10.7857C13.5834 11.9068 13.0233 13.187 12.0575 14.1836C11.0871 15.185 9.69118 15.917 8.00008 15.917C4.91649 15.917 2.41675 13.4173 2.41675 10.3337V3.00033C2.41675 2.12587 3.12563 1.41699 4.00008 1.41699C4.87453 1.41699 5.58341 2.12587 5.58341 3.00033V6.33366C5.58341 6.47173 5.47149 6.58366 5.33341 6.58366C5.19534 6.58366 5.08341 6.47173 5.08341 6.33366V3.00033C5.08341 2.40202 4.59839 1.91699 4.00008 1.91699Z" fill="#374B50"/>
</svg>
