<svg width="17" height="16" viewBox="0 0 17 16" fill="none" xmlns="http://www.w3.org/2000/svg">
<path d="M15.7749 14.6307L12.1735 11.0293C12.6112 10.4791 12.9613 9.8351 13.2239 9.0973C13.4865 8.35951 13.6178 7.59047 13.6178 6.79015C13.6178 5.85228 13.4365 4.9707 13.0739 4.14537C12.7237 3.32004 12.2392 2.60102 11.6202 1.98828C11.0012 1.37553 10.279 0.887849 9.45369 0.525205C8.62837 0.175067 7.74678 0 6.80891 0C5.87104 0 4.98945 0.175067 4.16413 0.525205C3.3388 0.887849 2.61665 1.37553 1.99766 1.98828C1.37866 2.60102 0.894101 3.32004 0.543962 4.14537C0.181319 4.9707 0 5.85228 0 6.79015C0 7.74053 0.181319 8.62837 0.543962 9.45369C0.894101 10.279 1.37866 10.998 1.99766 11.6108C2.61665 12.2235 3.3388 12.7112 4.16413 13.0739C4.98945 13.424 5.87104 13.5991 6.80891 13.5991C7.60923 13.5991 8.36576 13.4678 9.07855 13.2052C9.79133 12.9426 10.4478 12.5924 11.0481 12.1547L14.6495 15.7562C14.737 15.8437 14.8339 15.9062 14.9402 15.9437C15.0465 15.9812 15.1372 16 15.2122 16C15.2872 16 15.3779 15.9812 15.4842 15.9437C15.5905 15.9062 15.6874 15.8437 15.7749 15.7562C15.9375 15.5936 16.0188 15.406 16.0188 15.1934C16.0188 14.9809 15.9375 14.7933 15.7749 14.6307ZM1.61313 6.79015C1.61313 6.07737 1.74443 5.40211 2.00703 4.76436C2.28214 4.13911 2.65416 3.5889 3.12309 3.11372C3.59203 2.63853 4.14537 2.26964 4.78312 2.00703C5.40837 1.73193 6.08362 1.59437 6.80891 1.59437C7.5342 1.59437 8.20945 1.73193 8.8347 2.00703C9.47245 2.26964 10.0258 2.63853 10.4947 3.11372C10.9637 3.5889 11.3357 4.13911 11.6108 4.76436C11.8734 5.40211 12.0047 6.07737 12.0047 6.79015C12.0047 7.51544 11.8734 8.1907 11.6108 8.81594C11.3482 9.44119 10.973 9.99765 10.4853 10.4853C10.0102 10.9605 9.45995 11.3326 8.8347 11.6014C8.20945 11.8703 7.5342 12.0047 6.80891 12.0047C6.08362 12.0047 5.40837 11.8671 4.78312 11.592C4.14537 11.3169 3.59203 10.9449 3.12309 10.476C2.65416 10.007 2.28214 9.4537 2.00703 8.81594C1.74443 8.1907 1.61313 7.51544 1.61313 6.79015Z" fill="#36474B"/>
</svg>
