<svg width="16" height="16" viewBox="0 0 16 16" fill="none" xmlns="http://www.w3.org/2000/svg">
  <path d="M7.96113 5.31778C7.2355 5.31778 6.61095 5.57693 6.08746 6.09524C5.56398 6.61354 5.30224 7.2355 5.30224 7.96113C5.30224 8.69712 5.56398 9.32426 6.08746 9.84257C6.61095 10.3609 7.2355 10.62 7.96113 10.62C8.68675 10.62 9.3113 10.3609 9.83479 9.84257C10.3583 9.32426 10.62 8.69712 10.62 7.96113C10.62 7.2355 10.3583 6.61354 9.83479 6.09524C9.3113 5.57693 8.68675 5.31778 7.96113 5.31778ZM7.96113 9.29835C7.59831 9.29835 7.28733 9.16877 7.02818 8.90962C6.76903 8.65047 6.63946 8.33431 6.63946 7.96113C6.63946 7.59831 6.76903 7.28733 7.02818 7.02818C7.28733 6.76903 7.59831 6.63946 7.96113 6.63946C8.32394 6.63946 8.63492 6.76903 8.89407 7.02818C9.15322 7.28733 9.2828 7.59831 9.2828 7.96113C9.2828 8.33431 9.15322 8.65047 8.89407 8.90962C8.63492 9.16877 8.32394 9.29835 7.96113 9.29835ZM13.4655 10.2157C13.4966 10.1535 13.5484 10.0939 13.621 10.0369C13.6936 9.97992 13.7972 9.95141 13.932 9.95141C14.4917 9.95141 14.9634 9.76223 15.3469 9.38387C15.7305 9.0055 15.9223 8.53126 15.9223 7.96113C15.9223 7.40136 15.7305 6.92971 15.3469 6.54616C14.9634 6.16262 14.4917 5.97085 13.932 5.97085H13.792C13.7298 5.97085 13.6676 5.9553 13.6054 5.9242C13.5432 5.8931 13.4966 5.84645 13.4655 5.78426L13.4033 5.64431C13.3722 5.58212 13.3618 5.50178 13.3722 5.4033C13.3826 5.30483 13.4344 5.20894 13.5277 5.11565C13.9009 4.75283 14.103 4.33042 14.1341 3.8484C14.1652 3.36637 14.0305 2.92323 13.7298 2.51895V2.33236L13.4655 2.19242C13.2996 2.02656 13.1027 1.89699 12.8746 1.80369C12.6466 1.7104 12.403 1.66375 12.1438 1.66375C11.8743 1.66375 11.6126 1.71299 11.3586 1.81147C11.1046 1.90995 10.8792 2.05766 10.6822 2.25462C10.62 2.32718 10.5423 2.36605 10.449 2.37123C10.3557 2.37642 10.2779 2.36346 10.2157 2.33236C10.1535 2.36346 10.0939 2.34014 10.0369 2.26239C9.97992 2.18465 9.95141 2.09394 9.95141 1.99028C9.95141 1.43051 9.75964 0.958862 9.37609 0.575316C8.99255 0.19177 8.5209 0 7.96113 0C7.40136 0 6.92971 0.19177 6.54616 0.575316C6.16262 0.958862 5.97085 1.43051 5.97085 1.99028V2.13022C5.97085 2.19242 5.9553 2.25462 5.9242 2.31681C5.8931 2.37901 5.84127 2.42566 5.76871 2.45675L5.64431 2.51895C5.57175 2.56041 5.48882 2.5656 5.39553 2.5345C5.30223 2.5034 5.20894 2.45675 5.11565 2.39456C4.71137 2.00065 4.23713 1.80369 3.69291 1.80369C3.14869 1.80369 2.68999 2.00065 2.31681 2.39456C1.9229 2.78847 1.72854 3.26271 1.73372 3.8173C1.73891 4.37188 1.95918 4.84613 2.39456 5.24004C2.45675 5.3126 2.49044 5.39553 2.49563 5.48882C2.50081 5.58212 2.48785 5.6806 2.45675 5.78426C2.42566 5.84645 2.36605 5.90606 2.27794 5.96307C2.18983 6.02008 2.09394 6.04859 1.99028 6.04859C1.43051 6.04859 0.958862 6.23777 0.575316 6.61613C0.19177 6.99449 0 7.46874 0 8.03887C0 8.59864 0.19177 9.07029 0.575316 9.45384C0.958862 9.83738 1.43051 10.0292 1.99028 10.0292H2.13022C2.22352 10.0292 2.30385 10.0551 2.37123 10.1069C2.43861 10.1587 2.48785 10.2209 2.51895 10.2935C2.55005 10.3557 2.56041 10.4334 2.55005 10.5267C2.53968 10.62 2.48785 10.7185 2.39456 10.8222C2.18724 11.0191 2.03434 11.2342 1.93586 11.4674C1.83738 11.7007 1.78814 11.9469 1.78814 12.206C1.78814 12.4444 1.83479 12.6777 1.92809 12.9057C2.02138 13.1338 2.15095 13.3463 2.31681 13.5432L2.39456 13.6054L2.58115 13.8076C2.98542 14.1082 3.43116 14.2404 3.91837 14.2041C4.40557 14.1678 4.84613 13.9683 5.24004 13.6054C5.30224 13.5432 5.38257 13.5096 5.48105 13.5044C5.57953 13.4992 5.67541 13.5121 5.76871 13.5432C5.87237 13.5743 5.94234 13.6262 5.97862 13.6987C6.0149 13.7713 6.03304 13.875 6.03304 14.0097C6.03304 14.5695 6.22481 15.0411 6.60836 15.4247C6.9919 15.8082 7.46355 16 8.02332 16C8.59346 16 9.0677 15.8082 9.44606 15.4247C9.82443 15.0411 10.0136 14.5695 10.0136 14.0097V13.8698C10.0136 13.7661 10.0421 13.6832 10.0991 13.621C10.1561 13.5588 10.2157 13.507 10.2779 13.4655C10.3505 13.4344 10.4334 13.424 10.5267 13.4344C10.62 13.4448 10.7133 13.5018 10.8066 13.6054C11.2109 13.9994 11.6851 14.1963 12.2293 14.1963C12.7736 14.1963 13.2323 13.9994 13.6054 13.6054C13.9994 13.2115 14.1937 12.7373 14.1885 12.1827C14.1833 11.6281 13.9631 11.1539 13.5277 10.76C13.4966 10.6563 13.4707 10.5578 13.45 10.4645C13.4292 10.3712 13.4344 10.2883 13.4655 10.2157ZM12.6725 11.6774C12.7347 11.7499 12.7839 11.8225 12.8202 11.895C12.8565 11.9676 12.8746 12.0505 12.8746 12.1438C12.8746 12.2475 12.8565 12.3356 12.8202 12.4082C12.7839 12.4807 12.7347 12.5481 12.6725 12.6103C12.6103 12.6725 12.5429 12.7217 12.4704 12.758C12.3978 12.7943 12.3097 12.8124 12.206 12.8124C12.1024 12.8124 12.0143 12.7917 11.9417 12.7502C11.8691 12.7088 11.781 12.6414 11.6774 12.5481C11.4078 12.2786 11.102 12.1127 10.76 12.0505C10.4179 11.9883 10.081 12.0402 9.74927 12.206C9.41756 12.3408 9.15841 12.5585 8.97182 12.8591C8.78523 13.1597 8.69193 13.4759 8.69193 13.8076V13.932C8.69193 14.1393 8.62974 14.3026 8.50534 14.4218C8.38095 14.541 8.22028 14.6006 8.02332 14.6006C7.82637 14.6006 7.66829 14.541 7.54908 14.4218C7.42987 14.3026 7.37026 14.1393 7.37026 13.932V13.8698C7.37026 13.507 7.26401 13.183 7.05151 12.898C6.839 12.6129 6.5669 12.4082 6.23518 12.2838C6.13152 12.2112 6.01749 12.1697 5.8931 12.1594C5.76871 12.149 5.63913 12.1438 5.50437 12.1438C5.27632 12.1438 5.05086 12.1905 4.82799 12.2838C4.60512 12.3771 4.41076 12.5066 4.2449 12.6725C4.11014 12.8073 3.96502 12.8772 3.80952 12.8824C3.65403 12.8876 3.51409 12.8435 3.3897 12.7502L3.24976 12.4704H3.18756C3.15646 12.4393 3.13832 12.3978 3.13314 12.346C3.12796 12.2941 3.12536 12.2475 3.12536 12.206C3.12536 12.1127 3.1435 12.0272 3.17979 11.9495C3.21607 11.8717 3.28604 11.781 3.3897 11.6774C3.64885 11.4182 3.80952 11.1176 3.87172 10.7755C3.93392 10.4334 3.88209 10.0965 3.71623 9.76482C3.58147 9.4331 3.36638 9.17136 3.07094 8.97959C2.77551 8.78782 2.46194 8.69193 2.13022 8.69193H1.99028C1.79333 8.69193 1.63265 8.63233 1.50826 8.51312C1.38387 8.39391 1.32167 8.23583 1.32167 8.03887C1.32167 7.83155 1.38387 7.66829 1.50826 7.54908C1.63265 7.42987 1.79333 7.37026 1.99028 7.37026H2.05248C2.41529 7.37026 2.73923 7.26401 3.0243 7.05151C3.30936 6.839 3.51927 6.5669 3.65403 6.23518C3.77843 5.90346 3.80952 5.56398 3.74733 5.21672C3.68513 4.86945 3.51928 4.54551 3.24976 4.2449C3.115 4.1205 3.04762 3.96761 3.04762 3.7862C3.04762 3.60479 3.115 3.4519 3.24976 3.3275C3.38452 3.19274 3.5426 3.12796 3.724 3.13314C3.90541 3.13832 4.07904 3.22384 4.2449 3.3897C4.47295 3.61775 4.75283 3.76547 5.08455 3.83285C5.41626 3.90023 5.73242 3.88727 6.03304 3.79397L6.23518 3.71623C6.5669 3.58147 6.82604 3.36638 7.01263 3.07094C7.19922 2.77551 7.29252 2.46194 7.29252 2.13022V1.99028C7.29252 1.79333 7.35471 1.63525 7.47911 1.51604C7.6035 1.39682 7.76417 1.33722 7.96113 1.33722C8.15808 1.33722 8.31876 1.39942 8.44315 1.52381C8.56754 1.6482 8.62974 1.82961 8.62974 2.06803C8.62974 2.43084 8.72303 2.75219 8.90962 3.03207C9.09621 3.31195 9.35536 3.51927 9.68707 3.65403C10.0188 3.78879 10.3583 3.82248 10.7055 3.7551C11.0528 3.68772 11.3767 3.51928 11.6774 3.24976C11.7396 3.18756 11.8069 3.14091 11.8795 3.10982C11.9521 3.07872 12.0402 3.06317 12.1438 3.06317C12.2371 3.06317 12.3201 3.07872 12.3926 3.10982C12.4652 3.14091 12.5377 3.18756 12.6103 3.24976C12.7347 3.38452 12.7943 3.5426 12.7891 3.724C12.7839 3.90541 12.6984 4.07904 12.5326 4.2449C12.3045 4.48332 12.1568 4.76838 12.0894 5.1001C12.022 5.43181 12.0402 5.74797 12.1438 6.04859L12.206 6.23518C12.3408 6.5669 12.5559 6.82864 12.8513 7.02041C13.1467 7.21218 13.4603 7.30807 13.792 7.30807H13.932C14.1289 7.30807 14.2896 7.36767 14.414 7.48688C14.5384 7.60609 14.6006 7.76417 14.6006 7.96113C14.6006 8.16845 14.5358 8.33171 14.4062 8.45092C14.2766 8.57013 14.0978 8.62974 13.8698 8.62974C13.507 8.62974 13.183 8.72303 12.898 8.90962C12.6129 9.09621 12.403 9.35536 12.2682 9.68707C12.1024 10.0188 12.0609 10.3583 12.1438 10.7055C12.2268 11.0528 12.403 11.3767 12.6725 11.6774Z" fill="#B2CDD5"/>
  <path d="M7.96113 5.31778C7.2355 5.31778 6.61095 5.57693 6.08746 6.09524C5.56398 6.61354 5.30224 7.2355 5.30224 7.96113C5.30224 8.69712 5.56398 9.32426 6.08746 9.84257C6.61095 10.3609 7.2355 10.62 7.96113 10.62C8.68675 10.62 9.3113 10.3609 9.83479 9.84257C10.3583 9.32426 10.62 8.69712 10.62 7.96113C10.62 7.2355 10.3583 6.61354 9.83479 6.09524C9.3113 5.57693 8.68675 5.31778 7.96113 5.31778ZM7.96113 9.29835C7.59831 9.29835 7.28733 9.16877 7.02818 8.90962C6.76903 8.65047 6.63946 8.33431 6.63946 7.96113C6.63946 7.59831 6.76903 7.28733 7.02818 7.02818C7.28733 6.76903 7.59831 6.63946 7.96113 6.63946C8.32394 6.63946 8.63492 6.76903 8.89407 7.02818C9.15322 7.28733 9.2828 7.59831 9.2828 7.96113C9.2828 8.33431 9.15322 8.65047 8.89407 8.90962C8.63492 9.16877 8.32394 9.29835 7.96113 9.29835ZM13.4655 10.2157C13.4966 10.1535 13.5484 10.0939 13.621 10.0369C13.6936 9.97992 13.7972 9.95141 13.932 9.95141C14.4917 9.95141 14.9634 9.76223 15.3469 9.38387C15.7305 9.0055 15.9223 8.53126 15.9223 7.96113C15.9223 7.40136 15.7305 6.92971 15.3469 6.54616C14.9634 6.16262 14.4917 5.97085 13.932 5.97085H13.792C13.7298 5.97085 13.6676 5.9553 13.6054 5.9242C13.5432 5.8931 13.4966 5.84645 13.4655 5.78426L13.4033 5.64431C13.3722 5.58212 13.3618 5.50178 13.3722 5.4033C13.3826 5.30483 13.4344 5.20894 13.5277 5.11565C13.9009 4.75283 14.103 4.33042 14.1341 3.8484C14.1652 3.36637 14.0305 2.92323 13.7298 2.51895V2.33236L13.4655 2.19242C13.2996 2.02656 13.1027 1.89699 12.8746 1.80369C12.6466 1.7104 12.403 1.66375 12.1438 1.66375C11.8743 1.66375 11.6126 1.71299 11.3586 1.81147C11.1046 1.90995 10.8792 2.05766 10.6822 2.25462C10.62 2.32718 10.5423 2.36605 10.449 2.37123C10.3557 2.37642 10.2779 2.36346 10.2157 2.33236C10.1535 2.36346 10.0939 2.34014 10.0369 2.26239C9.97992 2.18465 9.95141 2.09394 9.95141 1.99028C9.95141 1.43051 9.75964 0.958862 9.37609 0.575316C8.99255 0.19177 8.5209 0 7.96113 0C7.40136 0 6.92971 0.19177 6.54616 0.575316C6.16262 0.958862 5.97085 1.43051 5.97085 1.99028V2.13022C5.97085 2.19242 5.9553 2.25462 5.9242 2.31681C5.8931 2.37901 5.84127 2.42566 5.76871 2.45675L5.64431 2.51895C5.57175 2.56041 5.48882 2.5656 5.39553 2.5345C5.30223 2.5034 5.20894 2.45675 5.11565 2.39456C4.71137 2.00065 4.23713 1.80369 3.69291 1.80369C3.14869 1.80369 2.68999 2.00065 2.31681 2.39456C1.9229 2.78847 1.72854 3.26271 1.73372 3.8173C1.73891 4.37188 1.95918 4.84613 2.39456 5.24004C2.45675 5.3126 2.49044 5.39553 2.49563 5.48882C2.50081 5.58212 2.48785 5.6806 2.45675 5.78426C2.42566 5.84645 2.36605 5.90606 2.27794 5.96307C2.18983 6.02008 2.09394 6.04859 1.99028 6.04859C1.43051 6.04859 0.958862 6.23777 0.575316 6.61613C0.19177 6.99449 0 7.46874 0 8.03887C0 8.59864 0.19177 9.07029 0.575316 9.45384C0.958862 9.83738 1.43051 10.0292 1.99028 10.0292H2.13022C2.22352 10.0292 2.30385 10.0551 2.37123 10.1069C2.43861 10.1587 2.48785 10.2209 2.51895 10.2935C2.55005 10.3557 2.56041 10.4334 2.55005 10.5267C2.53968 10.62 2.48785 10.7185 2.39456 10.8222C2.18724 11.0191 2.03434 11.2342 1.93586 11.4674C1.83738 11.7007 1.78814 11.9469 1.78814 12.206C1.78814 12.4444 1.83479 12.6777 1.92809 12.9057C2.02138 13.1338 2.15095 13.3463 2.31681 13.5432L2.39456 13.6054L2.58115 13.8076C2.98542 14.1082 3.43116 14.2404 3.91837 14.2041C4.40557 14.1678 4.84613 13.9683 5.24004 13.6054C5.30224 13.5432 5.38257 13.5096 5.48105 13.5044C5.57953 13.4992 5.67541 13.5121 5.76871 13.5432C5.87237 13.5743 5.94234 13.6262 5.97862 13.6987C6.0149 13.7713 6.03304 13.875 6.03304 14.0097C6.03304 14.5695 6.22481 15.0411 6.60836 15.4247C6.9919 15.8082 7.46355 16 8.02332 16C8.59346 16 9.0677 15.8082 9.44606 15.4247C9.82443 15.0411 10.0136 14.5695 10.0136 14.0097V13.8698C10.0136 13.7661 10.0421 13.6832 10.0991 13.621C10.1561 13.5588 10.2157 13.507 10.2779 13.4655C10.3505 13.4344 10.4334 13.424 10.5267 13.4344C10.62 13.4448 10.7133 13.5018 10.8066 13.6054C11.2109 13.9994 11.6851 14.1963 12.2293 14.1963C12.7736 14.1963 13.2323 13.9994 13.6054 13.6054C13.9994 13.2115 14.1937 12.7373 14.1885 12.1827C14.1833 11.6281 13.9631 11.1539 13.5277 10.76C13.4966 10.6563 13.4707 10.5578 13.45 10.4645C13.4292 10.3712 13.4344 10.2883 13.4655 10.2157ZM12.6725 11.6774C12.7347 11.7499 12.7839 11.8225 12.8202 11.895C12.8565 11.9676 12.8746 12.0505 12.8746 12.1438C12.8746 12.2475 12.8565 12.3356 12.8202 12.4082C12.7839 12.4807 12.7347 12.5481 12.6725 12.6103C12.6103 12.6725 12.5429 12.7217 12.4704 12.758C12.3978 12.7943 12.3097 12.8124 12.206 12.8124C12.1024 12.8124 12.0143 12.7917 11.9417 12.7502C11.8691 12.7088 11.781 12.6414 11.6774 12.5481C11.4078 12.2786 11.102 12.1127 10.76 12.0505C10.4179 11.9883 10.081 12.0402 9.74927 12.206C9.41756 12.3408 9.15841 12.5585 8.97182 12.8591C8.78523 13.1597 8.69193 13.4759 8.69193 13.8076V13.932C8.69193 14.1393 8.62974 14.3026 8.50534 14.4218C8.38095 14.541 8.22028 14.6006 8.02332 14.6006C7.82637 14.6006 7.66829 14.541 7.54908 14.4218C7.42987 14.3026 7.37026 14.1393 7.37026 13.932V13.8698C7.37026 13.507 7.26401 13.183 7.05151 12.898C6.839 12.6129 6.5669 12.4082 6.23518 12.2838C6.13152 12.2112 6.01749 12.1697 5.8931 12.1594C5.76871 12.149 5.63913 12.1438 5.50437 12.1438C5.27632 12.1438 5.05086 12.1905 4.82799 12.2838C4.60512 12.3771 4.41076 12.5066 4.2449 12.6725C4.11014 12.8073 3.96502 12.8772 3.80952 12.8824C3.65403 12.8876 3.51409 12.8435 3.3897 12.7502L3.24976 12.4704H3.18756C3.15646 12.4393 3.13832 12.3978 3.13314 12.346C3.12796 12.2941 3.12536 12.2475 3.12536 12.206C3.12536 12.1127 3.1435 12.0272 3.17979 11.9495C3.21607 11.8717 3.28604 11.781 3.3897 11.6774C3.64885 11.4182 3.80952 11.1176 3.87172 10.7755C3.93392 10.4334 3.88209 10.0965 3.71623 9.76482C3.58147 9.4331 3.36638 9.17136 3.07094 8.97959C2.77551 8.78782 2.46194 8.69193 2.13022 8.69193H1.99028C1.79333 8.69193 1.63265 8.63233 1.50826 8.51312C1.38387 8.39391 1.32167 8.23583 1.32167 8.03887C1.32167 7.83155 1.38387 7.66829 1.50826 7.54908C1.63265 7.42987 1.79333 7.37026 1.99028 7.37026H2.05248C2.41529 7.37026 2.73923 7.26401 3.0243 7.05151C3.30936 6.839 3.51927 6.5669 3.65403 6.23518C3.77843 5.90346 3.80952 5.56398 3.74733 5.21672C3.68513 4.86945 3.51928 4.54551 3.24976 4.2449C3.115 4.1205 3.04762 3.96761 3.04762 3.7862C3.04762 3.60479 3.115 3.4519 3.24976 3.3275C3.38452 3.19274 3.5426 3.12796 3.724 3.13314C3.90541 3.13832 4.07904 3.22384 4.2449 3.3897C4.47295 3.61775 4.75283 3.76547 5.08455 3.83285C5.41626 3.90023 5.73242 3.88727 6.03304 3.79397L6.23518 3.71623C6.5669 3.58147 6.82604 3.36638 7.01263 3.07094C7.19922 2.77551 7.29252 2.46194 7.29252 2.13022V1.99028C7.29252 1.79333 7.35471 1.63525 7.47911 1.51604C7.6035 1.39682 7.76417 1.33722 7.96113 1.33722C8.15808 1.33722 8.31876 1.39942 8.44315 1.52381C8.56754 1.6482 8.62974 1.82961 8.62974 2.06803C8.62974 2.43084 8.72303 2.75219 8.90962 3.03207C9.09621 3.31195 9.35536 3.51927 9.68707 3.65403C10.0188 3.78879 10.3583 3.82248 10.7055 3.7551C11.0528 3.68772 11.3767 3.51928 11.6774 3.24976C11.7396 3.18756 11.8069 3.14091 11.8795 3.10982C11.9521 3.07872 12.0402 3.06317 12.1438 3.06317C12.2371 3.06317 12.3201 3.07872 12.3926 3.10982C12.4652 3.14091 12.5377 3.18756 12.6103 3.24976C12.7347 3.38452 12.7943 3.5426 12.7891 3.724C12.7839 3.90541 12.6984 4.07904 12.5326 4.2449C12.3045 4.48332 12.1568 4.76838 12.0894 5.1001C12.022 5.43181 12.0402 5.74797 12.1438 6.04859L12.206 6.23518C12.3408 6.5669 12.5559 6.82864 12.8513 7.02041C13.1467 7.21218 13.4603 7.30807 13.792 7.30807H13.932C14.1289 7.30807 14.2896 7.36767 14.414 7.48688C14.5384 7.60609 14.6006 7.76417 14.6006 7.96113C14.6006 8.16845 14.5358 8.33171 14.4062 8.45092C14.2766 8.57013 14.0978 8.62974 13.8698 8.62974C13.507 8.62974 13.183 8.72303 12.898 8.90962C12.6129 9.09621 12.403 9.35536 12.2682 9.68707C12.1024 10.0188 12.0609 10.3583 12.1438 10.7055C12.2268 11.0528 12.403 11.3767 12.6725 11.6774Z" fill="#31B8DA" fill-opacity="0.05"/>
</svg>
