<svg viewBox="0 0 16 16" xmlns="http://www.w3.org/2000/svg">
<path opacity="0.5" d="M14.6051 6.13082L10.0928 5.50273L7.99798 1.33009L5.90787 5.42604L1.33471 6.14006L4.65989 9.38085L3.85746 14.0418L8 11.8597L12.1554 14.0486L11.3401 9.31292L14.6051 6.13082ZM15.3864 5.22994C15.5336 5.27522 15.6581 5.33748 15.76 5.41673C15.8619 5.49597 15.9298 5.60351 15.9638 5.73935C16.0091 5.85255 16.0119 5.97142 15.9723 6.09594C15.9326 6.22046 15.8619 6.32234 15.76 6.40159L12.4149 9.66181L13.213 14.2974C13.2469 14.4446 13.2356 14.5833 13.179 14.7135C13.1224 14.8436 13.0375 14.9427 12.9243 15.0106C12.8564 15.0559 12.7856 15.0927 12.712 15.121C12.6385 15.1493 12.5677 15.1634 12.4998 15.1634H12.1262L8 12.99L3.87378 15.1634C3.72662 15.2314 3.58228 15.254 3.44078 15.2314C3.29928 15.2087 3.17759 15.1634 3.0757 15.0955C2.9625 15.0163 2.8776 14.9116 2.821 14.7814C2.7644 14.6512 2.75308 14.5125 2.78704 14.3654L3.58511 9.72973L0.239989 6.46951C0.138106 6.40158 0.0673556 6.2997 0.0277348 6.16386C-0.0118863 6.02802 -0.00905621 5.88652 0.0362248 5.73935C0.104147 5.60351 0.191877 5.48465 0.29942 5.38277C0.406963 5.28088 0.534314 5.22994 0.681477 5.22994L5.24919 4.51677L7.35475 0.390548C7.45663 0.130181 7.67171 0 8 0C8.32829 0 8.54337 0.130181 8.64525 0.390548L10.7508 4.58469L15.3864 5.22994ZM3.51385 14.4801L3.50323 14.4848ZM3.55097 14.464L3.51385 14.4801Z"/>
<path d="M7.35475 0.390548C7.45663 0.130181 7.67171 0 8 0V12.99L3.87378 15.1634C3.72662 15.2314 3.58228 15.254 3.44078 15.2314C3.29928 15.2087 3.17759 15.1634 3.0757 15.0955C2.9625 15.0163 2.8776 14.9116 2.821 14.7814C2.7644 14.6512 2.75308 14.5125 2.78704 14.3654L3.58511 9.72973L0.239989 6.46951C0.138106 6.40158 0.0673556 6.2997 0.0277348 6.16386C-0.0118863 6.02802 -0.00905622 5.88652 0.0362248 5.73935C0.104147 5.60351 0.191877 5.48465 0.29942 5.38277C0.406963 5.28088 0.534314 5.22994 0.681477 5.22994L5.24919 4.51677L7.35475 0.390548Z"/>
</svg>
