<svg width="16" height="16" viewBox="0 0 16 16" version="1.1" xmlns="http://www.w3.org/2000/svg" xmlns:xlink="http://www.w3.org/1999/xlink" xml:space="preserve" xmlns:serif="http://www.serif.com/" style="fill-rule:evenodd;clip-rule:evenodd;stroke-linejoin:round;stroke-miterlimit:1.41421;"><path d="M4.887,10.012c0.036,0.651 0.19,1.179 0.461,1.586c0.516,0.76 1.424,1.14 2.726,1.14c0.584,0 1.115,-0.083 1.594,-0.25c0.927,-0.323 1.391,-0.901 1.391,-1.734c0,-0.625 -0.195,-1.07 -0.586,-1.336c-0.396,-0.26 -1.016,-0.487 -1.859,-0.68l-1.555,-0.351c-1.016,-0.229 -1.735,-0.482 -2.156,-0.758c-0.73,-0.479 -1.094,-1.195 -1.094,-2.149c0,-1.031 0.357,-1.877 1.07,-2.539c0.714,-0.661 1.724,-0.992 3.031,-0.992c1.204,0 2.226,0.291 3.067,0.871c0.841,0.581 1.262,1.509 1.262,2.785l-1.461,0c-0.079,-0.614 -0.245,-1.085 -0.5,-1.414c-0.474,-0.599 -1.279,-0.898 -2.414,-0.898c-0.917,0 -1.576,0.193 -1.977,0.578c-0.401,0.386 -0.602,0.833 -0.602,1.344c0,0.562 0.235,0.974 0.704,1.234c0.307,0.167 1.002,0.375 2.085,0.625l1.61,0.367c0.776,0.177 1.375,0.42 1.797,0.727c0.729,0.536 1.093,1.315 1.093,2.336c0,1.271 -0.462,2.18 -1.386,2.726c-0.925,0.547 -1.999,0.821 -3.223,0.821c-1.427,0 -2.544,-0.365 -3.351,-1.094c-0.808,-0.724 -1.204,-1.706 -1.188,-2.945l1.461,0Z" style="fill-rule:nonzero;"/><rect x="1.977" y="7.569" width="12.045" height="0.861"/></svg>