<svg width="16" height="16" viewBox="0 0 16 16" fill="none" xmlns="http://www.w3.org/2000/svg">
<path d="M14.6137 6.57824C14.3962 6.57824 14.2249 6.64348 14.0999 6.77396C13.9749 6.90443 13.9123 7.07297 13.9123 7.27956V7.89934C13.9123 8.7692 13.7492 9.58469 13.423 10.3458C13.0968 11.107 12.651 11.7702 12.0856 12.3356C11.5202 12.901 10.857 13.3468 10.0958 13.673C9.33469 13.9992 8.5192 14.1623 7.64934 14.1623C6.77947 14.1623 5.96399 13.9992 5.20285 13.673C4.44172 13.3468 3.77846 12.901 3.21305 12.3356C2.64764 11.7702 2.20184 11.107 1.87564 10.3458C1.54944 9.58469 1.38634 8.7692 1.38634 7.89934C1.38634 7.02947 1.54944 6.21399 1.87564 5.45285C2.20184 4.69172 2.64764 4.02846 3.21305 3.46305C3.77846 2.89764 4.44172 2.45184 5.20285 2.12564C5.96399 1.79944 6.77947 1.63634 7.64934 1.63634C8.10602 1.63634 8.54366 1.68527 8.96228 1.78313C9.38091 1.88099 9.80224 2.0169 10.2263 2.19088C10.4003 2.26699 10.577 2.27243 10.7564 2.20719C10.9358 2.14195 11.0581 2.02234 11.1233 1.84837C11.1995 1.6744 11.2049 1.49771 11.1397 1.3183C11.0744 1.13889 10.9548 1.01657 10.7808 0.951325C10.2915 0.733859 9.78594 0.562607 9.26402 0.437564C8.7421 0.312521 8.20388 0.25 7.64934 0.25C6.58375 0.25 5.58886 0.451153 4.66463 0.853466C3.72952 1.24491 2.91676 1.78856 2.2263 2.48445C1.53584 3.18035 0.989469 3.9904 0.587156 4.91463C0.195717 5.84973 0 6.84463 0 7.89934C0 8.96492 0.195717 9.95982 0.587156 10.884C0.989469 11.8192 1.53584 12.6319 2.2263 13.3224C2.91676 14.0128 3.72952 14.5592 4.66463 14.9615C5.58886 15.3638 6.58375 15.565 7.64934 15.565C8.71492 15.565 9.70982 15.3638 10.634 14.9615C11.5692 14.5592 12.3819 14.0128 13.0724 13.3224C13.7628 12.6319 14.3092 11.8192 14.7115 10.884C15.103 9.95982 15.2987 8.96492 15.2987 7.89934V7.27956C15.2987 7.07297 15.2362 6.90443 15.1111 6.77396C14.9861 6.64348 14.8203 6.57824 14.6137 6.57824ZM15.788 1.14704C15.6466 1.01656 15.4835 0.951325 15.2987 0.951325C15.1138 0.951325 14.9507 1.01656 14.8094 1.14704L7.64934 8.32339L6.05097 6.72503C5.90962 6.58367 5.74652 6.513 5.56167 6.513C5.37683 6.513 5.21373 6.58367 5.07238 6.72503C4.93102 6.86638 4.86035 7.02948 4.86035 7.21432C4.86035 7.39917 4.93102 7.56227 5.07238 7.70362L7.16004 9.79128C7.23615 9.85652 7.32042 9.90545 7.41284 9.93807C7.50527 9.97069 7.5841 9.987 7.64934 9.987C7.71458 9.987 7.79341 9.97069 7.88583 9.93807C7.97825 9.90545 8.06252 9.85652 8.13863 9.79128L15.788 2.12564C15.9293 1.98428 16 1.82119 16 1.63634C16 1.45149 15.9293 1.2884 15.788 1.14704Z" fill="#374B50"/>
</svg>
