<svg width="16" height="16" viewBox="0 0 16 16" fill="none" xmlns="http://www.w3.org/2000/svg">
<g clip-path="url(#clip0)">
<path fill-rule="evenodd" clip-rule="evenodd" d="M12 7.66683L12 8.3335L15.6667 8.3335C15.8508 8.3335 16 8.18426 16 8.00016C16 7.81607 15.8508 7.66683 15.6667 7.66683L12 7.66683Z" fill="#374B50"/>
<path fill-rule="evenodd" clip-rule="evenodd" d="M4 8.33317L4 7.6665L0.333333 7.6665C0.149238 7.6665 -1.32256e-07 7.81574 -1.4835e-07 7.99984C-1.64444e-07 8.18393 0.149238 8.33317 0.333333 8.33317L4 8.33317Z" fill="#374B50"/>
<path fill-rule="evenodd" clip-rule="evenodd" d="M8 5C7.58211 5 7.19191 5.07881 6.82941 5.23642C6.46269 5.38978 6.14391 5.60277 5.87314 5.8754C5.60233 6.14803 5.38805 6.46539 5.23026 6.82748C5.07677 7.19382 5 7.5836 5 7.99681C5 8.41427 5.07677 8.80405 5.23026 9.16613C5.38805 9.53248 5.60233 9.8509 5.87314 10.1214C6.14391 10.3919 6.46269 10.606 6.82941 10.7636C7.19191 10.9212 7.58211 11 8 11C8.41789 11 8.80809 10.9212 9.17059 10.7636C9.53731 10.606 9.85609 10.3919 10.1269 10.1214C10.3977 9.8509 10.612 9.53248 10.7697 9.16613C10.9232 8.80405 11 8.41427 11 7.99681C11 7.5836 10.9232 7.19382 10.7697 6.82748C10.612 6.46539 10.3977 6.14803 10.1269 5.8754C9.85609 5.60277 9.53731 5.38978 9.17059 5.23642C8.80809 5.07881 8.41789 5 8 5ZM9.39714 6.92188C9.30833 6.92188 9.22928 6.95412 9.16364 7.01469L7.53738 8.64628L6.83939 7.94295L6.83636 7.94017C6.77072 7.8796 6.69167 7.84736 6.60286 7.84736C6.5141 7.84736 6.43495 7.87955 6.36935 7.94012L6.3667 7.94277C6.30161 8.00785 6.26562 8.08775 6.26562 8.17895C6.26562 8.27009 6.3017 8.35007 6.3667 8.41513L7.30351 9.35762L7.30635 9.36006C7.33757 9.38681 7.37025 9.40915 7.40454 9.42497C7.44528 9.44376 7.49097 9.45058 7.53725 9.45058C7.58353 9.45058 7.62926 9.44376 7.67 9.42497C7.70424 9.40915 7.73697 9.38681 7.76814 9.36006L7.77094 9.35767L9.63339 7.48954C9.69839 7.42448 9.73438 7.34461 9.73438 7.25347C9.73438 7.16227 9.69844 7.08232 9.63335 7.01724L9.6306 7.01469C9.56496 6.95412 9.4859 6.92188 9.39714 6.92188Z" fill="#374B50"/>
</g>
<defs>
<clipPath id="clip0">
<rect width="16" height="16" fill="white"/>
</clipPath>
</defs>
</svg>
