<svg width="16" height="16" viewBox="0 0 16 16" fill="none" xmlns="http://www.w3.org/2000/svg">
<path fill-rule="evenodd" clip-rule="evenodd" d="M8 3C7.30351 3 6.65318 3.13134 6.04901 3.39404C5.43782 3.64963 4.90651 4.00461 4.45523 4.459C4.00388 4.91339 3.64674 5.44231 3.38376 6.04579C3.22212 6.43161 3.11153 6.83301 3.05201 7.25H1C0.585786 7.25 0.25 7.58579 0.25 8C0.25 8.41421 0.585786 8.75 1 8.75H3.05282C3.11253 9.16611 3.22285 9.56396 3.38376 9.94356C3.64674 10.5541 4.00388 11.0848 4.45523 11.5357C4.90651 11.9865 5.43782 12.3433 6.04901 12.606C6.65318 12.8687 7.30351 13 8 13C8.69649 13 9.34682 12.8687 9.95099 12.606C10.5622 12.3433 11.0935 11.9865 11.5448 11.5357C11.9961 11.0848 12.3533 10.5541 12.6162 9.94356C12.7772 9.56396 12.8875 9.16611 12.9472 8.75H15C15.4142 8.75 15.75 8.41421 15.75 8C15.75 7.58579 15.4142 7.25 15 7.25H12.948C12.8885 6.83301 12.7779 6.43161 12.6162 6.04579C12.3533 5.44231 11.9961 4.91339 11.5448 4.459C11.0935 4.00461 10.5622 3.64963 9.95099 3.39404C9.34682 3.13134 8.69649 3 8 3ZM10.3286 6.20312C10.1806 6.20312 10.0488 6.25687 9.93939 6.35782L7.22897 9.07713L6.06564 7.90492L6.06061 7.90029C5.9512 7.79933 5.81944 7.74559 5.67143 7.74559C5.5235 7.74559 5.39159 7.79924 5.28226 7.9002L5.27783 7.90462C5.16934 8.01308 5.10938 8.14626 5.10938 8.29825C5.10938 8.45015 5.16949 8.58345 5.27783 8.69188L6.83919 10.2627L6.84392 10.2668C6.89595 10.3113 6.95042 10.3486 7.00757 10.3749C7.07547 10.4063 7.15161 10.4176 7.22874 10.4176C7.30588 10.4176 7.3821 10.4063 7.45 10.3749C7.50706 10.3486 7.56161 10.3113 7.61357 10.2668L7.61823 10.2628L10.7223 7.14924C10.8307 7.04081 10.8906 6.90769 10.8906 6.75578C10.8906 6.60379 10.8307 6.47053 10.7222 6.36206L10.7177 6.35782C10.6083 6.25687 10.4765 6.20312 10.3286 6.20312Z" fill="#374B50"/>
</svg>
