<svg viewBox="0 0 16 16" fill="none" xmlns="http://www.w3.org/2000/svg">
<path d="M0.704918 6.12188H5.66668C5.87433 6.12188 6.04372 6.05904 6.17487 5.93336C6.30602 5.80767 6.37159 5.63554 6.37159 5.41696C6.37159 5.20931 6.30602 5.04265 6.17487 4.91696C6.04372 4.79128 5.87433 4.72844 5.66668 4.72844H0.704918C0.497267 4.72844 0.327869 4.79128 0.196721 4.91696C0.0655732 5.04265 0 5.20931 0 5.41696C0 5.63554 0.0655732 5.80767 0.196721 5.93336C0.327869 6.05904 0.497267 6.12188 0.704918 6.12188ZM3.92188 10.0182H0.704918C0.497267 10.0182 0.327869 10.081 0.196721 10.2067C0.0655732 10.3324 0 10.5045 0 10.7231C0 10.9307 0.0655732 11.0974 0.196721 11.2231C0.327869 11.3488 0.497267 11.4116 0.704918 11.4116H3.92188C4.12953 11.4116 4.29892 11.3488 4.43007 11.2231C4.56122 11.0974 4.62679 10.9307 4.62679 10.7231C4.62679 10.5045 4.56122 10.3324 4.43007 10.2067C4.29892 10.081 4.12953 10.0182 3.92188 10.0182ZM10.4918 12.835H0.704918C0.497267 12.835 0.327869 12.8978 0.196721 13.0235C0.0655732 13.1492 0 13.3159 0 13.5235C0 13.7421 0.0655732 13.9142 0.196721 14.0399C0.327869 14.1656 0.497267 14.2284 0.704918 14.2284H10.4918C10.7104 14.2284 10.8825 14.1656 11.0082 14.0399C11.1339 13.9142 11.1967 13.7421 11.1967 13.5235C11.1967 13.3159 11.1339 13.1492 11.0082 13.0235C10.8825 12.8978 10.7104 12.835 10.4918 12.835Z" fill="#36474B"/>
<path d="M0.704918 7.44155H3.92188C4.12953 7.44155 4.29892 7.50439 4.43007 7.63008C4.56122 7.75576 4.62679 7.92789 4.62679 8.14647C4.62679 8.35412 4.56122 8.52079 4.43007 8.64647C4.29892 8.77216 4.12953 8.835 3.92188 8.835H0.704918C0.497267 8.835 0.327869 8.77216 0.196721 8.64647C0.0655732 8.52079 0 8.35412 0 8.14647C0 7.92789 0.0655732 7.75576 0.196721 7.63008C0.327869 7.50439 0.497267 7.44155 0.704918 7.44155Z" fill="#36474B"/>
<path d="M15.5 4.72843L12.9478 2.19382C12.8184 2.06461 12.6692 2 12.5 2C12.3308 2 12.1816 2.06461 12.0522 2.19382L6.37906 7.7737C6.31935 7.84328 6.27458 7.91285 6.24473 7.98243C6.21488 8.05201 6.19995 8.13153 6.19995 8.22098V10.7705C6.19995 10.9594 6.25716 11.1134 6.37159 11.2327C6.48602 11.352 6.63776 11.4116 6.82682 11.4116H9.37906C9.47856 11.4116 9.56065 11.3942 9.62532 11.3594C9.69 11.3246 9.75716 11.2774 9.82682 11.2178L15.5 5.623C15.6194 5.49379 15.6791 5.34469 15.6791 5.17572C15.6791 5.00674 15.6194 4.85765 15.5 4.72843ZM9.12532 10.1294H7.46861V8.47445L12.5 3.52077L14.1567 5.17572L9.12532 10.1294Z" fill="#36474B"/>
</svg>
