<svg viewBox="0 0 16 16" fill="none" xmlns="http://www.w3.org/2000/svg">
<path d="M15.8796 2.1242C15.8111 1.49607 15.5484 0.985013 15.0916 0.591006C14.6348 0.197 14.098 0 13.4813 0C13.4813 0 13.4756 0 13.4642 0C13.4528 0 13.4299 0 13.3957 0H3.23723C2.68904 0 2.2151 0.177015 1.81538 0.531049C1.41567 0.885084 1.15871 1.31906 1.04451 1.83298L0.0166679 8.41113C-0.051855 8.99358 0.0908987 9.53319 0.444933 10.03C0.798968 10.5268 1.2672 10.8151 1.84964 10.8951C1.92959 10.8951 1.9924 10.8951 2.03808 10.8951C2.08376 10.8951 2.14086 10.8951 2.20939 10.8951H5.65264V13.0878C5.65264 13.8872 5.93815 14.5724 6.50917 15.1435C7.0802 15.7145 7.77113 16 8.58198 16C8.71902 16 8.85321 15.9657 8.98455 15.8972C9.11588 15.8287 9.19868 15.7202 9.23294 15.5717L11.9396 9.42184H13.3957C14.0238 9.42184 14.5663 9.22484 15.0231 8.83084C15.4799 8.43683 15.7426 7.93148 15.8111 7.31477C15.8111 7.31477 15.8111 7.3005 15.8111 7.27195C15.8111 7.2434 15.8111 7.22912 15.8111 7.22912V2.19272C15.8454 2.19272 15.8653 2.1813 15.8711 2.15846C15.8768 2.13562 15.8796 2.1242 15.8796 2.1242ZM10.7747 8.6167L8.13658 14.5439C7.83965 14.4297 7.59411 14.2527 7.39997 14.0128C7.20582 13.773 7.10875 13.4875 7.10875 13.1563V10.227C7.10875 10.01 7.04308 9.83583 6.91174 9.7045C6.78041 9.57316 6.60625 9.50749 6.38926 9.50749H2.20939C2.20939 9.50749 2.19511 9.50749 2.16656 9.50749C2.13801 9.50749 2.1066 9.50749 2.07234 9.50749C1.88962 9.46181 1.7383 9.36189 1.61838 9.20771C1.49847 9.05353 1.45564 8.88508 1.4899 8.70236L2.51774 2.1242C2.552 1.94147 2.6348 1.78444 2.76613 1.6531C2.89747 1.52177 3.0545 1.4561 3.23723 1.4561H10.7747V8.6167ZM14.4235 7.22912C14.3893 7.45753 14.2779 7.64882 14.0895 7.803C13.901 7.95717 13.6983 8.03426 13.4813 8.03426H12.2308V1.4561H13.4813C13.6983 1.42184 13.901 1.48465 14.0895 1.64454C14.2779 1.80443 14.3893 2.00999 14.4235 2.26124V7.22912Z" fill="#36474B"/>
</svg>
