<svg width="16" height="16" viewBox="0 0 16 16" fill="none" xmlns="http://www.w3.org/2000/svg">
<path fill-rule="evenodd" clip-rule="evenodd" d="M7 8.33317L7 7.6665L15.6667 7.6665C15.8508 7.6665 16 7.81574 16 7.99984C16 8.18393 15.8508 8.33317 15.6667 8.33317L7 8.33317Z" fill="#374B50"/>
<path fill-rule="evenodd" clip-rule="evenodd" d="M3 5C2.58211 5 2.19191 5.07881 1.82941 5.23642C1.46269 5.38978 1.14391 5.60277 0.873138 5.8754C0.602325 6.14803 0.388046 6.46539 0.230255 6.82748C0.076767 7.19383 0 7.5836 0 7.99681C0 8.41427 0.076767 8.80405 0.230255 9.16613C0.388046 9.53248 0.602325 9.8509 0.873138 10.1214C1.14391 10.3919 1.46269 10.606 1.82941 10.7636C2.19191 10.9212 2.58211 11 3 11C3.41789 11 3.80809 10.9212 4.17059 10.7636C4.53731 10.606 4.85609 10.3919 5.12686 10.1214C5.39767 9.8509 5.61195 9.53248 5.76974 9.16613C5.92323 8.80405 6 8.41427 6 7.99681C6 7.5836 5.92323 7.19383 5.76974 6.82748C5.61195 6.46539 5.39767 6.14803 5.12686 5.8754C4.85609 5.60277 4.53731 5.38978 4.17059 5.23642C3.80809 5.07881 3.41789 5 3 5ZM3 7.58659L3.76483 6.81576C3.82214 6.76278 3.89168 6.73438 3.96964 6.73438C4.04759 6.73438 4.11708 6.76285 4.17439 6.81582L4.17714 6.81837C4.2339 6.87521 4.26562 6.94564 4.26562 7.02599C4.26562 7.10634 4.23386 7.1767 4.17709 7.23354L3.41464 7.99764L4.17709 8.76173C4.23381 8.81857 4.26562 8.88895 4.26562 8.9693C4.26562 9.04965 4.23381 9.12002 4.17709 9.17687C4.14624 9.20777 4.11021 9.23159 4.06906 9.24613C4.03693 9.2575 4.00301 9.26562 3.96964 9.26562C3.93626 9.26562 3.90234 9.2575 3.87021 9.24613C3.82906 9.23159 3.79303 9.20777 3.76218 9.17687L3 8.41303L2.23782 9.17685C2.21082 9.20388 2.18079 9.22737 2.14732 9.24284C2.1107 9.25975 2.07028 9.26562 2.03036 9.26562C1.99045 9.26562 1.95003 9.25975 1.91341 9.24284C1.87994 9.22737 1.84991 9.2039 1.82291 9.17687C1.76619 9.12002 1.73438 9.04965 1.73438 8.9693C1.73438 8.88895 1.76619 8.81858 1.82291 8.76173L2.58536 7.99764L1.82291 7.23356C1.76619 7.17672 1.73438 7.10634 1.73438 7.02599C1.73438 6.94564 1.76619 6.87527 1.82291 6.81842L1.82556 6.81577C1.88287 6.76279 1.95241 6.73438 2.03036 6.73438C2.10832 6.73438 2.17781 6.76285 2.23512 6.81582L2.23805 6.81856L3 7.58659Z" fill="#374B50"/>
</svg>
