<svg width="16" height="16" viewBox="0 0 16 16" fill="none" xmlns="http://www.w3.org/2000/svg">
<g clip-path="url(#clip0)">
<path fill-rule="evenodd" clip-rule="evenodd" d="M9 7.66683L9 8.3335L0.333336 8.33349C0.149241 8.33349 2.80714e-06 8.18426 2.83871e-06 8.00016C2.2345e-06 7.81607 0.149241 7.66683 0.333336 7.66683L9 7.66683Z" fill="#374B50"/>
<path fill-rule="evenodd" clip-rule="evenodd" d="M13 11C13.4179 11 13.8081 10.9212 14.1706 10.7636C14.5373 10.6102 14.8561 10.3972 15.1269 10.1246C15.3977 9.85197 15.612 9.53461 15.7697 9.17252C15.9232 8.80618 16 8.4164 16 8.0032C16 7.58573 15.9232 7.19596 15.7697 6.83387C15.612 6.46752 15.3977 6.1491 15.1269 5.8786C14.8561 5.60809 14.5373 5.39404 14.1706 5.23642C13.8081 5.07881 13.4179 5 13 5C12.5821 5 12.1919 5.07881 11.8294 5.23642C11.4627 5.39404 11.1439 5.60809 10.8731 5.8786C10.6023 6.1491 10.388 6.46752 10.2303 6.83387C10.0768 7.19596 10 7.58573 10 8.0032C10 8.4164 10.0768 8.80617 10.2303 9.17252C10.388 9.53461 10.6023 9.85197 10.8731 10.1246C11.1439 10.3972 11.4627 10.6102 11.8294 10.7636C12.1919 10.9212 12.5821 11 13 11ZM13 8.41341L12.2352 9.18424C12.1779 9.23722 12.1083 9.26563 12.0304 9.26563C11.9524 9.26563 11.8829 9.23715 11.8256 9.18418L11.8229 9.18163C11.7661 9.12479 11.7344 9.05436 11.7344 8.97401C11.7344 8.89366 11.7661 8.8233 11.8229 8.76646L12.5854 8.00236L11.8229 7.23827C11.7662 7.18143 11.7344 7.11105 11.7344 7.0307C11.7344 6.95035 11.7662 6.87998 11.8229 6.82313C11.8538 6.79223 11.8898 6.76841 11.9309 6.75387C11.9631 6.7425 11.997 6.73438 12.0304 6.73438C12.0637 6.73438 12.0977 6.7425 12.1298 6.75387C12.1709 6.76841 12.207 6.79223 12.2378 6.82313L13 7.58697L13.7622 6.82315C13.7892 6.79612 13.8192 6.77264 13.8527 6.75716C13.8893 6.74025 13.9297 6.73438 13.9696 6.73438C14.0096 6.73438 14.05 6.74025 14.0866 6.75716C14.1201 6.77264 14.1501 6.7961 14.1771 6.82313C14.2338 6.87998 14.2656 6.95035 14.2656 7.0307C14.2656 7.11105 14.2338 7.18142 14.1771 7.23827L13.4146 8.00236L14.1771 8.76644C14.2338 8.82328 14.2656 8.89366 14.2656 8.97401C14.2656 9.05436 14.2338 9.12473 14.1771 9.18158L14.1744 9.18423C14.1171 9.23721 14.0476 9.26563 13.9696 9.26563C13.8917 9.26563 13.8222 9.23715 13.7649 9.18418L13.7619 9.18144L13 8.41341Z" fill="#374B50"/>
</g>
<defs>
<clipPath id="clip0">
<rect width="16" height="16" fill="white" transform="translate(16 16) rotate(-180)"/>
</clipPath>
</defs>
</svg>
