<svg width="16" height="16" viewBox="0 0 16 16" fill="none" xmlns="http://www.w3.org/2000/svg">
<path fill-rule="evenodd" clip-rule="evenodd" d="M3.04901 3.39404C3.65318 3.13134 4.30351 3 5 3C5.69649 3 6.34682 3.13134 6.95099 3.39404C7.56218 3.64963 8.09349 4.00461 8.54477 4.459C8.99613 4.91339 9.35326 5.44231 9.61624 6.04579C9.77788 6.43161 9.88847 6.83301 9.94799 7.25H15C15.4142 7.25 15.75 7.58579 15.75 8C15.75 8.41421 15.4142 8.75 15 8.75H9.94718C9.88747 9.16611 9.77715 9.56396 9.61624 9.94356C9.35326 10.5541 8.99612 11.0848 8.54477 11.5357C8.09349 11.9865 7.56218 12.3433 6.95099 12.606C6.34682 12.8687 5.69649 13 5 13C4.30351 13 3.65318 12.8687 3.04901 12.606C2.43782 12.3433 1.90651 11.9865 1.45523 11.5357C1.00387 11.0848 0.646743 10.5541 0.383757 9.94356C0.127944 9.34008 0 8.69045 0 7.99467C0 7.306 0.127944 6.65637 0.383758 6.04579C0.646743 5.44231 1.00388 4.91338 1.45523 4.459C1.90651 4.00461 2.43782 3.64963 3.04901 3.39404ZM6.27472 6.02627L5 7.31098L3.73009 6.03094L3.7252 6.02637C3.62968 5.93808 3.51387 5.89062 3.38394 5.89062C3.25401 5.89062 3.13812 5.93799 3.0426 6.02628L3.03818 6.0307C2.94365 6.12544 2.89062 6.24273 2.89062 6.37665C2.89062 6.51056 2.94365 6.62786 3.03818 6.72259L4.30893 7.99607L3.03818 9.26955C2.94365 9.36429 2.89062 9.48158 2.89062 9.6155C2.89062 9.74942 2.94365 9.86671 3.03818 9.96144C3.08319 10.0065 3.13324 10.0456 3.18901 10.0714C3.25004 10.0996 3.31741 10.1094 3.38394 10.1094C3.45047 10.1094 3.51784 10.0996 3.57887 10.0714C3.63464 10.0456 3.68469 10.0065 3.7297 9.96142L5 8.68839L6.27029 9.96145C6.32172 10.013 6.38176 10.0527 6.45035 10.0769C6.50391 10.0958 6.56044 10.1094 6.61606 10.1094C6.67168 10.1094 6.72821 10.0958 6.78177 10.0769C6.85036 10.0527 6.9104 10.013 6.96182 9.96145C7.05635 9.86671 7.10937 9.74942 7.10937 9.6155C7.10937 9.48159 7.05635 9.36429 6.96182 9.26955L5.69107 7.99607L6.96182 6.72257C7.05643 6.62784 7.10938 6.51056 7.10938 6.37665C7.10938 6.24273 7.0565 6.12535 6.9619 6.03062L6.95732 6.02637C6.8618 5.93808 6.74599 5.89063 6.61606 5.89063C6.48613 5.89063 6.37024 5.93797 6.27472 6.02627Z" fill="#374B50"/>
</svg>
