<svg width="16" height="16" viewBox="0 0 16 16" fill="none" xmlns="http://www.w3.org/2000/svg">
<path fill-rule="evenodd" clip-rule="evenodd" d="M12.701 12.606C12.0968 12.8687 11.4465 13 10.75 13C10.0535 13 9.40318 12.8687 8.79901 12.606C8.18782 12.3504 7.65651 11.9954 7.20523 11.541C6.75387 11.0866 6.39674 10.5577 6.13376 9.95421C5.97212 9.56839 5.86153 9.16699 5.80201 8.75L0.75 8.75C0.335786 8.75 -3.62117e-08 8.41421 0 8C3.62117e-08 7.58579 0.335786 7.25 0.75 7.25L5.80282 7.25C5.86253 6.83389 5.97285 6.43604 6.13376 6.05644C6.39674 5.44586 6.75388 4.91516 7.20523 4.46432C7.65651 4.01349 8.18782 3.65673 8.79901 3.39404C9.40318 3.13134 10.0535 3 10.75 3C11.4465 3 12.0968 3.13134 12.701 3.39404C13.3122 3.65673 13.8435 4.01349 14.2948 4.46433C14.7461 4.91516 15.1033 5.44586 15.3662 6.05645C15.6221 6.65993 15.75 7.30955 15.75 8.00533C15.75 8.69401 15.6221 9.34363 15.3662 9.95421C15.1033 10.5577 14.7461 11.0866 14.2948 11.541C13.8435 11.9954 13.3122 12.3504 12.701 12.606ZM9.47528 9.97374L10.75 8.68902L12.0199 9.96906L12.0248 9.97363C12.1203 10.0619 12.2361 10.1094 12.3661 10.1094C12.496 10.1094 12.6119 10.062 12.7074 9.97372L12.7118 9.9693C12.8064 9.87456 12.8594 9.75728 12.8594 9.62335C12.8594 9.48944 12.8064 9.37214 12.7118 9.27741L11.4411 8.00393L12.7118 6.73045C12.8064 6.63571 12.8594 6.51842 12.8594 6.3845C12.8594 6.25058 12.8064 6.1333 12.7118 6.03856C12.6668 5.99351 12.6168 5.95439 12.561 5.9286C12.5 5.90041 12.4326 5.89063 12.3661 5.89063C12.2995 5.89063 12.2322 5.90041 12.1711 5.9286C12.1154 5.95439 12.0653 5.99353 12.0203 6.03858L10.75 7.31161L9.47971 6.03856C9.42828 5.98705 9.36824 5.94735 9.29965 5.92312C9.24609 5.90417 9.18956 5.89062 9.13394 5.89062C9.07832 5.89062 9.02179 5.90417 8.96823 5.92312C8.89964 5.94735 8.8396 5.98705 8.78818 6.03856C8.69365 6.13329 8.64063 6.25058 8.64063 6.3845C8.64063 6.51841 8.69365 6.63571 8.78818 6.73045L10.0589 8.00393L8.78818 9.27743C8.69357 9.37217 8.64063 9.48944 8.64062 9.62335C8.64062 9.75727 8.6935 9.87465 8.7881 9.96939L8.79268 9.97363C8.8882 10.0619 9.00401 10.1094 9.13394 10.1094C9.26387 10.1094 9.37976 10.062 9.47528 9.97374Z" fill="#374B50"/>
</svg>
