<svg xmlns="http://www.w3.org/2000/svg" viewBox="0 0 16 16">
  <path d="M15.72 1.63a.7.7 0 0 0-.37-.1.7.7 0 0 0-.37.1 5.51 5.51 0 0 1-1.52.8c-.34-.3-.71-.52-1.13-.67-.4-.17-.82-.25-1.24-.26a3.8 3.8 0 0 0-2.42.87 3.51 3.51 0 0 0-1.34 2.8 6.4 6.4 0 0 1-2.7-.82 6.1 6.1 0 0 1-2.09-1.92.54.54 0 0 0-.24-.2.9.9 0 0 0-.35-.07.5.5 0 0 0-.34.13.6.6 0 0 0-.2.28c-.03.03-.16.4-.38 1.1a7.57 7.57 0 0 0-.1 3.81 5.95 5.95 0 0 0 1.49 2.76c.4.45.91.86 1.52 1.25-.5.23-1.02.4-1.58.5a9.1 9.1 0 0 1-1.67.15.77.77 0 0 0-.42.13.54.54 0 0 0-.25.34.67.67 0 0 0 .04.42.6.6 0 0 0 .28.31 11.1 11.1 0 0 0 3.87 1.31 9.52 9.52 0 0 0 5.99-1.17 8.29 8.29 0 0 0 3.3-3.39c.37-.71.66-1.48.86-2.31.2-.84.3-1.7.3-2.62v-.17-.16a5.62 5.62 0 0 0 1.32-2.53.6.6 0 0 0-.03-.38.67.67 0 0 0-.23-.29zm-2.26 2.53a.62.62 0 0 0-.16.28c-.03.11-.05.22-.05.33.03.06.05.12.06.2v.19c0 .8-.08 1.56-.24 2.27a8.1 8.1 0 0 1-1.94 3.65c-.46.5-1 .92-1.6 1.27a7.87 7.87 0 0 1-4.62 1.04 9.06 9.06 0 0 1-1.64-.25 8.68 8.68 0 0 0 2.4-1.12.61.61 0 0 0 .26-.26c.05-.1.07-.22.07-.35a.5.5 0 0 0-.12-.34.59.59 0 0 0-.28-.2 5.5 5.5 0 0 1-3.25-3.34 4.91 4.91 0 0 1-.26-1.8c.02-.58.08-1.08.19-1.5A7.7 7.7 0 0 0 8 6.5c.17 0 .32-.06.46-.2s.21-.3.21-.46v-.67c0-.34.06-.66.2-.97.12-.31.32-.59.6-.83a2.17 2.17 0 0 1 1.68-.57c.65.05 1.18.3 1.57.78.1.1.22.17.34.2.12.03.23.03.33 0a.83.83 0 0 1 .23-.07.83.83 0 0 0 .23-.07c-.07.1-.13.2-.2.27l-.2.26z"/>
</svg>