<svg xmlns="http://www.w3.org/2000/svg" fill="none" viewBox="0 0 16 16">
  <path fill="#374B50" d="M15 2.5064C14.3906 2.93625 13.7159 3.26501 13.0018 3.48004C12.6186 3.03936 12.1092 2.72702 11.5427 2.58526C10.9761 2.4435 10.3797 2.47916 9.83405 2.68741C9.28842 2.89567 8.81992 3.26647 8.4919 3.74967C8.16388 4.23287 7.99217 4.80516 8 5.38913V6.02549C6.88168 6.05449 5.77354 5.80646 4.77428 5.3035C3.77502 4.80054 2.91566 4.05826 2.27273 3.14276C2.27273 3.14276 -0.272727 8.87004 5.45455 11.4155C4.14397 12.3051 2.58274 12.7512 1 12.6882C6.72727 15.87 13.7273 12.6882 13.7273 5.37004C13.7267 5.19278 13.7096 5.01596 13.6764 4.84185C14.3258 4.20135 14.7842 3.39267 15 2.5064Z"/>
</svg>
