<svg width="16" height="16" viewBox="0 0 16 16" fill="none" xmlns="http://www.w3.org/2000/svg">
<path fill-rule="evenodd" clip-rule="evenodd" d="M9.65581 2.22028C10.2971 1.9755 10.9982 1.93359 11.6641 2.10021C12.2199 2.2393 12.729 2.51809 13.144 2.90769C13.7009 2.71116 14.2285 2.43875 14.7118 2.09782C14.8822 1.97768 15.1091 1.9758 15.2814 2.09308C15.4537 2.21036 15.5352 2.42221 15.4859 2.62471C15.2685 3.51731 14.8279 4.33847 14.2072 5.01197C14.2202 5.13028 14.2269 5.24924 14.2273 5.36838L14.2273 5.37004C14.2273 9.20409 12.3839 12.0041 9.74634 13.408C7.12097 14.8054 3.75912 14.793 0.75723 13.1253C0.554825 13.0128 0.456102 12.7761 0.518626 12.5532C0.58115 12.3303 0.788563 12.1794 1.01992 12.1886C2.20096 12.2356 3.36915 11.9786 4.41501 11.449C3.36089 10.8427 2.62061 10.1088 2.11884 9.31654C1.49557 8.33244 1.25926 7.28853 1.21648 6.34728C1.17379 5.40822 1.32301 4.56108 1.48047 3.95223C1.5595 3.64665 1.64143 3.39794 1.70438 3.22383C1.73588 3.13669 1.76271 3.06801 1.78217 3.01997C1.79191 2.99594 1.7998 2.97706 1.80553 2.9636L1.81245 2.94749L1.81462 2.94254L1.81536 2.94085L1.81565 2.94021C1.81576 2.93994 1.81587 2.93969 2.27278 3.14276L2.68196 2.85541C3.2775 3.70342 4.07352 4.391 4.99913 4.85689C5.77936 5.2496 6.63125 5.47453 7.50005 5.5194V5.39235C7.49158 4.70717 7.69337 4.03583 8.07826 3.46884C8.46381 2.9009 9.01449 2.46506 9.65581 2.22028ZM2.45751 4.16855C2.45454 4.17981 2.45157 4.19116 2.44861 4.20261C2.30778 4.74718 2.17858 5.49094 2.21545 6.30188C2.25221 7.11063 2.4534 7.97582 2.96365 8.78149C3.4719 9.58398 4.3058 10.3578 5.65767 10.9586C5.82357 11.0323 5.93647 11.1902 5.95262 11.371C5.96876 11.5518 5.88562 11.7272 5.73541 11.8292C4.90037 12.396 3.96999 12.7942 2.9963 13.0088C5.20437 13.7059 7.45684 13.4938 9.27649 12.5253C11.5706 11.3042 13.2271 8.85455 13.2273 5.37086C13.2268 5.22483 13.2127 5.07916 13.1853 4.93573C13.154 4.7718 13.2065 4.60304 13.3253 4.48585C13.5814 4.23327 13.8045 3.95157 13.9905 3.64764C13.716 3.76813 13.434 3.87209 13.146 3.9588C12.9577 4.01551 12.7537 3.95655 12.6246 3.80815C12.3086 3.44477 11.8885 3.18721 11.4213 3.07031C10.9542 2.95341 10.4623 2.98282 10.0124 3.15455C9.56246 3.32628 9.17613 3.63205 8.90563 4.0305C8.63514 4.42896 8.49355 4.90087 8.50001 5.38242L8.5001 5.38913H8.50005V6.02549C8.50005 6.29658 8.28401 6.51829 8.01301 6.52532C6.81226 6.55646 5.62245 6.29015 4.54953 5.75012C3.75991 5.35268 3.05165 4.81605 2.45751 4.16855Z" fill="#374B50"/>
</svg>
