<svg width="16" height="16" viewBox="0 0 16 16" version="1.1" xmlns="http://www.w3.org/2000/svg" xmlns:xlink="http://www.w3.org/1999/xlink" xml:space="preserve" xmlns:serif="http://www.serif.com/" style="fill-rule:evenodd;clip-rule:evenodd;stroke-linejoin:round;stroke-miterlimit:1.41421;">
<path d="M14.01,10.783l0,1.299c0,0.059 -0.022,0.109 -0.064,0.152c-0.043,0.043 -0.094,0.065 -0.153,0.065l-8.225,0c-0.058,0 -0.109,-0.022 -0.152,-0.065c-0.043,-0.043 -0.064,-0.093 -0.064,-0.152l0,-1.299c0,-0.063 0.02,-0.115 0.061,-0.155c0.04,-0.041 0.092,-0.061 0.155,-0.061l8.225,0c0.059,0 0.11,0.021 0.153,0.064c0.042,0.043 0.064,0.094 0.064,0.152Zm0,-3.463l0,1.299c0,0.059 -0.022,0.109 -0.064,0.152c-0.043,0.043 -0.094,0.064 -0.153,0.064l-8.225,0c-0.058,0 -0.109,-0.021 -0.152,-0.064c-0.043,-0.043 -0.064,-0.093 -0.064,-0.152l0,-1.299c0,-0.063 0.02,-0.115 0.061,-0.155c0.04,-0.041 0.092,-0.061 0.155,-0.061l8.225,0c0.059,0 0.11,0.021 0.153,0.064c0.042,0.043 0.064,0.094 0.064,0.152Zm0,-3.463l0,1.299c0,0.058 -0.022,0.109 -0.064,0.152c-0.043,0.043 -0.094,0.064 -0.153,0.064l-8.225,0c-0.058,0 -0.109,-0.021 -0.152,-0.064c-0.043,-0.043 -0.064,-0.094 -0.064,-0.152l0,-1.299c0,-0.059 0.021,-0.109 0.064,-0.152c0.043,-0.043 0.094,-0.064 0.152,-0.064l8.225,0c0.059,0 0.11,0.021 0.153,0.064c0.042,0.043 0.064,0.093 0.064,0.152Z" style="fill-rule:nonzero;"/><path d="M3.919,10.783l0,1.299c0,0.059 -0.005,0.109 -0.014,0.152c-0.008,0.043 -0.019,0.065 -0.031,0.065l-1.678,0c-0.012,0 -0.022,-0.022 -0.031,-0.065c-0.009,-0.043 -0.013,-0.093 -0.013,-0.152l0,-1.299c0,-0.063 0.004,-0.115 0.012,-0.155c0.008,-0.041 0.019,-0.061 0.032,-0.061l1.678,0c0.012,0 0.023,0.021 0.031,0.064c0.009,0.043 0.014,0.094 0.014,0.152Zm0,-3.463l0,1.299c0,0.059 -0.005,0.109 -0.014,0.152c-0.008,0.043 -0.019,0.064 -0.031,0.064l-1.678,0c-0.012,0 -0.022,-0.021 -0.031,-0.064c-0.009,-0.043 -0.013,-0.093 -0.013,-0.152l0,-1.299c0,-0.063 0.004,-0.115 0.012,-0.155c0.008,-0.041 0.019,-0.061 0.032,-0.061l1.678,0c0.012,0 0.023,0.021 0.031,0.064c0.009,0.043 0.014,0.094 0.014,0.152Zm0,-3.463l0,1.299c0,0.058 -0.005,0.109 -0.014,0.152c-0.008,0.043 -0.019,0.064 -0.031,0.064l-1.678,0c-0.012,0 -0.022,-0.021 -0.031,-0.064c-0.009,-0.043 -0.013,-0.094 -0.013,-0.152l0,-1.299c0,-0.059 0.004,-0.109 0.013,-0.152c0.009,-0.043 0.019,-0.064 0.031,-0.064l1.678,0c0.012,0 0.023,0.021 0.031,0.064c0.009,0.043 0.014,0.093 0.014,0.152Z" style="fill-rule:nonzero;"/>
</svg>