<svg width="16" height="16" viewBox="0 0 16 16" version="1.1" xmlns="http://www.w3.org/2000/svg" xmlns:xlink="http://www.w3.org/1999/xlink" xml:space="preserve" xmlns:serif="http://www.serif.com/" style="fill-rule:evenodd;clip-rule:evenodd;stroke-linejoin:round;stroke-miterlimit:1.41421;">
    <path d="M12.061,1.299c0.345,0.037 0.61,0.316 0.622,0.668c0,3.632 0.208,7.836 -3.029,9.076c-2.775,1.064 -6.292,-1.13 -6.354,-4.324c-0.01,-1.584 0,-3.168 0,-4.752c0.025,-0.689 1.245,-0.921 1.339,-0.047c0.125,3.515 -0.601,8.04 3.31,8.09c1.747,0.022 3.359,-1.53 3.394,-3.308c0.01,-1.578 0,-3.156 0,-4.735c0.014,-0.383 0.22,-0.686 0.718,-0.668Z" style="fill-rule:nonzero;"/>
    <path d="M2.63,14.032l10.724,0" style="fill-rule:nonzero;"/>
    <path d="M13.406,13.363c0.346,0.041 0.367,0.128 0.457,0.233c0.329,0.386 0.063,1.083 -0.509,1.106l-10.724,0c-0.714,-0.028 -0.973,-1.302 0,-1.341c3.592,0 7.187,-0.139 10.776,0.002Z" style="fill-rule:nonzero;"/>
</svg>
