<svg width="16" height="16" viewBox="0 0 16 16" fill="none" xmlns="http://www.w3.org/2000/svg">
<path d="M13.0583 7.31611C13.0583 7.31611 13.2694 8.34944 13.3167 8.56611H12.3889C12.4806 8.31889 12.8333 7.35778 12.8333 7.35778C12.8278 7.36611 12.925 7.105 12.9806 6.94389L13.0583 7.31611ZM16 3.11333V12.8911C16 13.6272 15.4028 14.2244 14.6667 14.2244H1.33333C0.597222 14.2244 0 13.6272 0 12.8911V3.11333C0 2.37722 0.597222 1.78 1.33333 1.78H14.6667C15.4028 1.78 16 2.37722 16 3.11333ZM4.23611 10.0911L5.99167 5.78H4.81111L3.71944 8.72444L3.6 8.12722L3.21111 6.14389C3.14722 5.86889 2.95 5.79111 2.70556 5.78H0.908333L0.888889 5.86611C1.32778 5.97722 1.71944 6.13833 2.06111 6.34111L3.05556 10.0911H4.23611ZM6.85833 10.0967L7.55833 5.78H6.44167L5.74444 10.0967H6.85833V10.0967ZM10.7444 8.68555C10.75 8.19389 10.45 7.81889 9.80833 7.51055C9.41667 7.31333 9.17778 7.18 9.17778 6.97722C9.18333 6.79389 9.38056 6.605 9.81944 6.605C10.1833 6.59667 10.45 6.68278 10.65 6.76889L10.75 6.81611L10.9028 5.88278C10.6833 5.79667 10.3333 5.69944 9.90278 5.69944C8.8 5.69944 8.025 6.28833 8.01944 7.12722C8.01111 7.74667 8.575 8.09111 8.99722 8.29944C9.42778 8.51055 9.575 8.64944 9.575 8.83555C9.56944 9.12444 9.225 9.25778 8.90556 9.25778C8.46111 9.25778 8.22222 9.18833 7.85833 9.02722L7.71111 8.95778L7.55556 9.92722C7.81667 10.0467 8.3 10.1522 8.8 10.1578C9.97222 10.1606 10.7361 9.58 10.7444 8.68555ZM14.6667 10.0967L13.7667 5.78H12.9028C12.6361 5.78 12.4333 5.85778 12.3194 6.13833L10.6611 10.0967H11.8333C11.8333 10.0967 12.025 9.56333 12.0667 9.44944H13.5C13.5333 9.60222 13.6333 10.0967 13.6333 10.0967H14.6667Z" fill="#374B50"/>
</svg>
