<svg width="16" height="16" viewBox="0 0 16 16" fill="none" xmlns="http://www.w3.org/2000/svg">
<path d="M15.6397 11.9735L9.77623 2.04821C9.63429 1.808 9.44594 1.60327 9.21118 1.43403C8.97642 1.26478 8.72256 1.14195 8.44959 1.06551C8.16569 1 7.88726 0.983622 7.61429 1.01638C7.34132 1.04914 7.08473 1.13649 6.84451 1.27843C6.70256 1.35486 6.56608 1.45586 6.43505 1.58143C6.30402 1.707 6.20575 1.84075 6.14024 1.9827L0.276795 11.9735C-0.00709805 12.4648 -0.0726108 12.9944 0.0802546 13.5622C0.23312 14.13 0.555224 14.5558 1.04658 14.8397C1.1776 14.9489 1.32774 15.0226 1.49698 15.0608C1.66622 15.099 1.8382 15.1181 2.0129 15.1181H13.9036C14.1765 15.1181 14.4441 15.0663 14.7061 14.9625C14.9682 14.8588 15.1865 14.7032 15.3612 14.4958C15.5687 14.2774 15.727 14.0481 15.8362 13.8079C15.9454 13.5676 16 13.3056 16 13.0217C15.9563 12.847 15.9126 12.6641 15.869 12.473C15.8253 12.2819 15.7489 12.1154 15.6397 11.9735ZM14.3949 13.5131C14.3185 13.5786 14.2339 13.6304 14.1411 13.6686C14.0482 13.7069 13.9691 13.726 13.9036 13.726H2.0129C1.94739 13.726 1.89006 13.7232 1.84093 13.7178C1.79179 13.7123 1.73447 13.6878 1.66895 13.6441C1.49425 13.5458 1.38779 13.4039 1.34958 13.2182C1.31136 13.0326 1.32501 12.8525 1.39052 12.6778L7.33586 2.818C7.36862 2.78524 7.40137 2.74156 7.43413 2.68697C7.46689 2.63237 7.49964 2.60508 7.5324 2.60508C7.7071 2.50681 7.88999 2.48224 8.08107 2.53137C8.27216 2.58051 8.41683 2.67605 8.5151 2.818L14.4604 12.6778C14.4932 12.7105 14.5123 12.7596 14.5178 12.8252C14.5232 12.8907 14.5259 12.9562 14.5259 13.0217C14.5587 13.1309 14.5532 13.221 14.5096 13.2919C14.4659 13.3629 14.4277 13.4366 14.3949 13.5131ZM7.95824 5.34026C7.75078 5.34026 7.58154 5.40304 7.45051 5.52861C7.31948 5.65418 7.25397 5.82069 7.25397 6.02815V8.82885C7.25397 9.03631 7.31948 9.20555 7.45051 9.33658C7.58154 9.4676 7.75078 9.53312 7.95824 9.53312C8.1657 9.53312 8.33494 9.4676 8.46596 9.33658C8.59699 9.20555 8.6625 9.03631 8.6625 8.82885V6.02815C8.6625 5.82069 8.59699 5.65418 8.46596 5.52861C8.33494 5.40304 8.1657 5.34026 7.95824 5.34026ZM7.46689 11.1382C7.40137 11.2037 7.34951 11.2747 7.31129 11.3511C7.27308 11.4275 7.25397 11.5204 7.25397 11.6295C7.25397 11.7278 7.27308 11.8152 7.31129 11.8916C7.34951 11.968 7.40137 12.0445 7.46689 12.1209C7.54332 12.1864 7.61702 12.2355 7.68799 12.2683C7.75897 12.3011 7.84905 12.3174 7.95824 12.3174C8.06743 12.3174 8.15751 12.3011 8.22848 12.2683C8.29945 12.2355 8.37315 12.1864 8.44959 12.1209C8.5151 12.0445 8.56696 11.9598 8.60518 11.867C8.6434 11.7742 8.6625 11.6951 8.6625 11.6295C8.6625 11.5531 8.6434 11.4685 8.60518 11.3757C8.56696 11.2829 8.5151 11.2037 8.44959 11.1382C8.30764 10.9962 8.14386 10.9253 7.95824 10.9253C7.77261 10.9253 7.60883 10.9962 7.46689 11.1382Z" fill="#374B50"/>
</svg>